<?xml version="1.0" standalone="no"?>
<!DOCTYPE svg PUBLIC "-//W3C//DTD SVG 1.1//EN" "http://www.w3.org/Graphics/SVG/1.1/DTD/svg11.dtd" >
<svg xmlns="http://www.w3.org/2000/svg">
<metadata>
This is a custom SVG font generated by IcoMoon.
<iconset grid="16"></iconset>
</metadata>
<defs>
<font id="OnlineObjects" horiz-adv-x="512" >
<font-face units-per-em="512" ascent="480" descent="-32" />
<missing-glyph horiz-adv-x="512" />
<glyph unicode="&#x3e;" d="M 161.128-32c-11.736,0-21.664,4.080-29.752,12.168l-24.712,24.656
	c-8.056,8.096-12.128,17.952-12.128,29.592c0,11.608, 4.072,21.576, 12.128,29.904
	l 159.832,159.528L 106.664,383.64C 98.608,391.752, 94.536,401.68, 94.536,413.432
	c0,11.696, 4.072,21.64, 12.128,29.736l 24.712,24.712C 139.464,475.96, 149.392,480, 161.128,480
	c 11.712,0, 21.64-4.040, 29.752-12.128l 214.408-214.088
	C 413.392,245.624, 417.472,235.752, 417.472,224s-4.080-21.64-12.184-29.752L 190.872-19.832
	C 182.768-27.92, 172.832-32, 161.128-32z" data-tags="arrow_right" />
<glyph unicode="&#x3c;" d="M 321.144-19.832L 106.696,194.248C 98.608,202.36, 94.536,212.248, 94.536,224
	s 4.072,21.624, 12.16,29.792l 214.448,214.088C 329.248,475.96, 339.168,480, 350.856,480
	c 11.752,0, 21.672-4.040, 29.784-12.128l 24.688-24.712
	c 8.064-8.096, 12.144-18.040, 12.144-29.736c0-11.752-4.080-21.68-12.144-29.792
	L 245.504,223.856l 159.832-159.528c 8.064-8.328, 12.144-18.296, 12.144-29.904
	c0-11.64-4.080-21.504-12.144-29.592l-24.688-24.656C 372.528-27.92, 362.608-32, 350.856-32
	C 339.168-32, 329.248-27.92, 321.144-19.832z" data-tags="arrow_left" />
<glyph unicode="&#x64;" d="M 502.168,204.328c 2.872,0, 5.216-0.904, 7.096-2.784
	C 511.096,199.704, 512,197.344, 512,194.488l0-177.248 c0-2.872-0.904-5.2-2.736-7.080
	c-1.872-1.816-4.216-2.8-7.096-2.8L 9.848,7.36 c-2.872,0-5.224,0.984-7.096,2.8
	C 0.912,12.032,0,14.36,0,17.232l0,177.248 c0,2.856, 0.912,5.216, 2.76,7.064
	c 1.864,1.872, 4.216,2.784, 7.096,2.784l 59.072,0 c 2.872,0, 5.248-0.904, 7.096-2.784
	c 1.84-1.84, 2.736-4.2, 2.736-7.064l0-108.328 l 354.504,0 l0,108.328 
	c0,2.856, 0.904,5.216, 2.784,7.064c 1.832,1.872, 4.168,2.784, 7.048,2.784L 502.168,204.328 z
	 M 412.016,271.104c 3.472-8.424, 2.032-15.592-4.296-21.544l-137.848-137.824
	C 266.144,107.784, 261.568,105.816, 256,105.816c-5.512,0-10.144,1.968-13.824,5.92
	L 104.336,249.552c-6.376,5.952-7.816,13.128-4.312,21.544
	c 3.456,7.992, 9.504,12.008, 18.128,12.008l 78.808,0 L 196.952,420.96 
	c0,5.312, 1.92,9.928, 5.832,13.832c 3.896,3.872, 8.48,5.832, 13.824,5.832l 78.808,0 
	c 5.328,0, 9.952-1.96, 13.816-5.832c 3.888-3.904, 5.872-8.52, 5.872-13.832l0-137.848 
	l 78.752,0 C 402.472,283.112, 408.512,279.096, 412.016,271.104z" data-tags="download" />
<glyph unicode="&#x78;" d="M 251.656,170.664c0-2.872-1.12-5.456-3.304-7.688l-110.688-110.688l 47.976-47.936
	c 4.232-4.264, 6.368-9.232, 6.368-15.064c0-5.736-2.136-10.704-6.368-14.968
	c-4.176-4.184-9.184-6.328-14.968-6.328L 21.336-32.008 c-5.784,0-10.792,2.144-14.992,6.328
	C 2.112-21.416,0-16.448,0-10.712l0,149.328 c0,5.84, 2.112,10.8, 6.344,15.080
	c 4.2,4.168, 9.208,6.312, 14.992,6.312c 5.792,0, 10.744-2.144, 15.024-6.312
	l 47.976-48.032l 110.64,110.664c 2.232,2.208, 4.816,3.328, 7.68,3.328
	s 5.448-1.12, 7.68-3.328l 38.016-38.008C 250.536,176.104, 251.656,173.52, 251.656,170.664z
	 M 512,458.656l0-149.336 c0-5.784-2.144-10.792-6.328-14.992
	c-4.264-4.232-9.232-6.344-14.968-6.344c-5.832,0-10.8,2.112-15.064,6.344l-47.936,48
	l-110.736-110.664c-2.232-2.232-4.768-3.352-7.688-3.352
	c-2.816,0-5.424,1.12-7.608,3.352l-38.008,37.992
	c-2.232,2.208-3.352,4.768-3.352,7.656s 1.12,5.448, 3.352,7.68l 110.664,110.664
	l-48.032,48c-4.168,4.208-6.312,9.208-6.312,15c0,5.784, 2.144,10.768, 6.312,14.992
	C 330.576,477.88, 335.528,480, 341.376,480l 149.328,0 c 5.736,0, 10.704-2.12, 14.968-6.352
	C 509.856,469.424, 512,464.44, 512,458.656z" data-tags="expand" />
<glyph unicode="&#x75;" d="M 361.472,290.688c0,0, 18.624,76.936,0,103.008c-18.624,26.056-26.080,43.424-67.016,55.84
	c-40.984,12.424-26.056,9.96-55.84,8.688c-29.792-1.248-54.624-17.36-54.624-26.040
	c0,0-18.6-1.248-26.040-8.704C 150.504,416.024, 138.088,381.312, 138.088,372.608
	c0-8.72, 6.216-67.040, 12.416-79.448l-7.384-2.48
	c-6.224-71.96, 24.792-80.656, 24.792-80.656c 11.176-67.048, 22.352-38.504, 22.352-55.872
	c0-17.344-11.168-11.168-11.168-11.168s-9.904-27.296-34.744-37.216
	c-24.8-9.904-123.168-63.248-134.36-74.44C-1.216,20.128, 0.048-32, 0.048-32l 511.904,0 
	c0,0, 1.312,52.128-9.904,63.328c-11.216,11.184-109.56,64.528-134.392,74.44
	c-24.816,9.92-34.72,37.216-34.72,37.216s-11.168-6.168-11.168,11.168
	c0,17.376, 11.168-11.168, 22.36,55.872c0,0, 31,8.696, 24.816,80.656L 361.472,290.688 z" data-tags="user" />
<glyph unicode="&#xa4;" d="M 355.128,224.008c0-54.776-44.392-99.136-99.128-99.136
	c-54.752,0-99.144,44.36-99.144,99.136c0,54.744, 44.392,99.128, 99.144,99.128
	C 310.736,323.136, 355.128,278.752, 355.128,224.008L 355.128,224.008zM 322.36,108.872c-26.128-15.080-55.264-20.16-83.072-16.576l-31.496-119.624
	c 58.296-11.232, 120.736-2.56, 176.184,29.44c 55.832,32.248, 94.72,82.408, 114.032,138.984
	L 378.328,173.496C 367.576,147.28, 348.8,124.112, 322.36,108.872zM 141.128,157.44c-15.4,26.656-20.32,56.424-16.328,84.72l-99.92,27.056
	c-10.64-54.016-2.752-111.944, 26.936-163.336c 29.704-51.472, 75.952-87.264, 128.088-105.048
	l 26.44,100.392C 179.88,111.936, 156.504,130.784, 141.128,157.44zM 189.688,338.664c 26.288,15.176, 55.584,20.192, 83.504,16.512l 31.608,120.040
	C 246.256,486.608, 183.552,477.952, 127.84,445.808c-55.616-32.12-94.416-81.992-113.856-138.248
	l 120.176-32.544C 144.992,300.832, 163.584,323.6, 189.688,338.664zM 370.904,290.104c 15.216-26.336, 20.232-55.688, 16.504-83.664l 99.952-27.064
	c 10.328,53.728, 2.376,111.208-27.128,162.296c-29.624,51.32-75.704,87.064-127.672,104.888
	l-26.44-100.44C 332.408,335.392, 355.624,316.6, 370.904,290.104z" data-tags="onlineobjects" />
<glyph unicode="&#x40;" d="M 498.312,260.192c0-41.144-10.688-80.776-28.2-110.48
	c-23.624-37.328-57.128-56.376-99.064-56.376c-16.736,0-31.968,4.56-42.656,12.936
	c-7.608,5.344-14.488,12.952-18.28,22.112c-16.016-20.56-41.904-33.528-69.336-33.528
	c-31.256,0-57.912,11.424-74.68,35.048C 149.328,151.248, 140.96,180.952, 140.96,216
	c0,35.056, 9.888,67.064, 29.704,89.912c 20.568,25.144, 50.296,38.856, 86.128,38.856
	c 21.336,0, 41.152-9.16, 54.832-22.848l 4.592,15.992l 51.8,0 l-10.656-157.712
	c-0.768-12.952, 0.768-22.112, 5.328-26.672c 2.28-3.048, 6.080-4.56, 12.2-4.56
	c 46.472,0, 62.472,74.664, 62.472,111.224c0,44.2-14.488,80.776-41.144,107.432
	c-30.488,31.232-73.904,46.488-127.256,46.488c-51.048,0-96-16.008-130.296-46.488
	c-39.616-35.816-61.712-86.856-61.712-149.344c0-52.544, 19.048-100.576, 51.808-134.84
	c 32.016-32, 74.672-49.528, 124.96-49.528c 57.904,0, 102.128,8.376, 147.064,28.168l 9.128,4.592
	L 409.904,8 l-3.8-1.528C 364.2-14.096, 314.704-24, 252.96-24
	c-65.528,0-121.92,19.816-163.824,58.672c-49.52,44.936-75.44,112-75.44,188.184
	c0,72.376, 24.392,134.104, 70.872,179.064c 22.848,22.096, 50.28,39.616, 80.76,51.048
	C 197.328,465.912, 231.624,472, 268.2,472c 69.344,0, 131.064-22.848, 172.952-64.752
	c 18.296-17.528, 32.784-38.856, 41.904-62.48C 492.984,319.624, 498.312,291.432, 498.312,260.192z
	 M 291.064,175.608c 8.392,15.248, 10.672,37.344, 10.672,51.832
	c0,19.048-3.8,34.28-9.92,44.944c-8.36,12.2-20.568,17.528-36.568,17.528
	c-17.512,0-30.48-7.608-38.856-23.616C 208.76,253.336, 204.952,234.28, 204.952,216
	c0-19.816, 4.56-64.752, 44.184-64.752C 267.448,151.248, 281.92,159.608, 291.064,175.608z" data-tags="at" />
<glyph unicode="&#x67;" d="M 256.048,472C 119.096,472, 8,361, 8,224.032S 119.096-24, 256.048-24
	C 392.968-24, 504,87.064, 504,224.032S 392.968,472, 256.048,472 M 410.512,379.944
	c 2.672,0.848, 12.144-9.784, 14.248-6.848c 2.784,3.664-10,12.608-10,16.36
	c0,5.152, 24-23.616, 25.312-25.88c 0.312-0.528-6.592,3.32-6.768,2.648
	c-0.528-3.92-1.264-7.792-2.216-11.648C 421,353.632, 400.624,376.592, 410.512,379.944
	 M 324.216,121.496c-18.528-22.736-7.72-48.392-41.936-58.544
	c-17.632-5.28-10.064-42.048-39.608-32.888c 1.688-1.736, 1.688-4.216, 5.856-6.888
	c-6.504-4.656-13.976-5.576-21.672-7.904c 1.864-2.16, 6.976-16.456, 11.464-14.832
	c-40.696-20.424-48.6,56.56-57.448,77.608c-6.648,16-29.408,23.392-39.112,38.128
	c-6.040,9.2-9.864,19.424-15.664,28.784c-13.856,22.248, 20.656,48.856, 5.104,68.4
	C 125,221.2, 113.848,208.768, 101.864,224.456c-3.104,4.096-4.192,13.096-5.52,17.944
	c-8.216-2.048-20.496,15.8-23.144,13.144c-9.208-9.168-22.88,12.592-21.832,20.704
	c 3.152,23.784-7.128,34.952, 5.72,57.552c 19.44,34.112, 43.408,63.672, 78.152,83.312
	C 155.504,428.528, 188.832,448.752, 214.696,447.904c-4.832,0.16-49.304-23.408-44.368-24.816
	c 4.288-1.272, 14.272,4.952, 16.928-1.576C 187.328,418.608, 186.632,416, 185.072,413.584
	c 4.976-7.32, 35.504,23.968, 41.848,26.44c 12.408,4.896, 18.24-8.008, 32.176-3.232
	c 9.704,3.312, 5.216-15.272, 4.2-15.272c 1.64,0, 12.976,4.976, 12.32-1.040
	c-1.688-14.528-54.312,2.096-59.872-14.832c-1.504-4.608, 17.088,4.272, 20.104,1.552
	c-1.24-2.040-2.688-3.928-4.24-5.8c 1.448-2.856, 12.832-6.488, 14.064-3.872
	c-1.232-2.608-34.256-6.784-39.904-9.12c-9.624-3.968-26.232-14.336-35.192-22.336
	c-5.296-4.824-3.088-11.816-9.216-16.152C 154.624,345.152, 147.616,340.592, 141.496,335.024
	C 133.504,327.8, 140.672,305.64, 131.816,301.536c 2.504,1.136-8.728,38.816-23.776,20.576
	c-6-7.288-18.016-4.2-27.248-13.208c-8.208-8.016-11.144-23.744-9.584-34.608
	c 3.664-25.728, 19.984,7.176, 29.92,7.176c 6.64,0-11.272-23.832-6.032-27.64
	c 10.816-7.912, 17.816,5.552, 13.88-18.52c-5.792-35.112, 52.696-2.44, 50.784,1.28
	c 2.752-5.528-6.904-10.816-0.216-15.392c 2.704-1.856, 2.336,9.44, 4.168,11.352
	c 5.888,6.16, 8.304-2.872, 13.48-4.944c 6.592-2.704, 37.16-2.2, 39.096-12.144
	c 5.064-24.768, 54.32-9.456, 40.040-47.84c 1.6,1.016, 3.28,1.64, 5.104,1.92
	c 11.888-3.096, 22.856-13.456, 33.472-12.184C 317.312,160.128, 342.424,143.72, 324.216,121.496
	 M 403.2,205.344c-31.592,24.472-28.856,83.096-2.92,109.952
	c-2.952,18.64, 36.128,21.872, 46.248,13.968c 7.344-5.656, 19.456-28.248, 22.592-36.816
	c 14.216-38.752, 18.096-120.768-20.656-179.544c-20.672,20.032-5.36,57.64-1.144,79.84
	c 3.72,19.624-6.608,14.472-13.128,12.592L 403.2,205.344 z" data-tags="globe" />
<glyph unicode="&#x65;" d="M 464.5,415.5l-416,0 c-26.512,0-48-21.488-48-48l0-288 c0-26.496, 21.488-48, 48-48l 416,0 
	c 26.512,0, 48,21.504, 48,48l0,288 C 512.5,394.012, 491.012,415.5, 464.5,415.5z M 47.356,60.66
	l-17.696,17.712L 164.644,207.34l 11.696-11.712L 47.356,60.66z M 465.644,60.66
	L 336.66,195.628l 11.695,11.712l 134.984-128.968L 465.644,60.66z M 272.5,170.3L 272.5,159.5 l-32,0 
	l0,10.8 L 28.548,359.1l 28.352,28.352L 256.5,202.684L 456.1,387.452l 28.353-28.352
	L 272.5,170.3z" data-tags="envelope" />
<glyph unicode="&#x74;" d="M 464.406,479.5L 320.125,479.5 c-26.453,0-63.398-15.303-82.102-34.007L 14.528,221.998
	c-18.704-18.704-18.704-49.313,0-68.016l 172.455-172.453
	c 18.704-18.705, 49.311-18.705, 68.015,0l 223.495,223.494
	C 497.197,223.728, 512.5,260.674, 512.5,287.125L 512.5,431.406 C 512.5,457.858, 490.857,479.5, 464.406,479.5z M 400.5,319.5
	c-26.51,0-48,21.49-48,48s 21.49,48, 48,48s 48-21.49, 48-48S 427.010,319.5, 400.5,319.5z" data-tags="tag" />
<glyph unicode="&#x47;" d="M 500.184,267.064C 478.968,387.368, 374.376,472, 256.296,472
	C 242,471.992, 227.504,470.76, 212.936,468.184C 78.072,444.408-11.968,315.808, 11.816,180.936
	C 33.024,60.64, 137.632-24, 255.712-24c 14.288,0, 28.792,1.248, 43.352,3.816
	C 433.92,3.592, 523.968,132.184, 500.184,267.064z M 429.736,358.6L 365.344,347.248
	c-10.784,23.6-23.488,45.016-38,63.056c-9.264,11.52-18.968,21.264-28.936,29.416
	C 351.232,429.448, 397.592,400.152, 429.736,358.6z M 373.672,193.328l-95.032-16.768
	l-21.688,123.032l 91.424,16.12c 8.544-22.392, 15.344-46.544, 19.816-71.928
	C 371.2,226.656, 372.92,209.784, 373.672,193.328z M 305.64,392.848
	c 11.768-14.616, 22.264-31.728, 31.392-50.592l-84.96-14.976L 232.232,439.752
	C 256.624,438.136, 282.16,422.032, 305.64,392.848z M 250.952,171.688l-93.248-16.456
	c-4.888,15.816-8.992,32.28-12,49.328c-4.504,25.56-6.248,50.616-5.808,74.392
	l 89.368,15.76L 250.952,171.688z M 204.648,434.288l 19.736-111.888L 141.504,307.784
	C 147.88,369.576, 171,417.984, 204.648,434.288z M 75.912,350.096
	c 18.352,26.2, 41.784,47.456, 68.552,63.2c-17.304-28.672-28.288-66.912-31.656-110.568
	l-66.224-11.68C 53.264,311.824, 63.048,331.712, 75.912,350.096z M 39.504,185.832
	c-4.48,25.36-4.24,50.768-0.016,75.424l 72.112,12.712
	c 0.008-23.712, 2.16-48.648, 6.664-74.24c 2.992-16.968, 6.984-33.456, 11.768-49.36
	l-75.768-13.376C 47.648,152.408, 42.528,168.688, 39.504,185.832z M 67.544,110.784l 71.696,12.64
	c 12.376-32.592, 28.344-61.816, 47.312-85.392c 9.704-12.064, 19.88-22.096, 30.328-30.472
	C 153.952,18.816, 99.792,56.968, 67.544,110.784z M 208.256,55.488
	c-16.216,20.168-30.064,45.048-41.104,72.856L 255.84,144l 23.84-135.216
	C 255.896,11.128, 231.104,27.080, 208.256,55.488z M 307.472,13.144l-23.936,135.736
	l 90.392,15.936C 371.592,90.56, 346.44,30.488, 307.472,13.144z M 370.36,36.488
	c 19.872,33.752, 31.184,80.376, 31.8,133.312l 69.408,12.248
	C 459.72,121.608, 422.856,68.592, 370.36,36.488z M 475.264,211.24l-73.688-12.992
	c-0.984,16.376-2.936,33.216-5.952,50.368c-4.44,25.192-11.016,49.384-19.312,72.024
	l 70.576,12.448c 12.248-21.496, 21.096-45.328, 25.608-70.904
	C 475.528,244.992, 476.232,227.952, 475.264,211.24z" data-tags="globus" />
<glyph unicode="&#x70;" d="M 375.472,172.816c-34.128-34.16-34.128-68.28-68.28-68.28
	c-34.128,0-68.248,34.128-102.392,68.28c-34.128,34.128-68.264,68.248-68.264,102.376
	c0,34.16, 34.144,34.16, 68.264,68.28C 238.936,377.592, 136.528,480, 102.408,480
	C 68.264,480,0,377.592,0,377.592c0-68.248, 70.144-206.656, 136.528-273.064
	C 202.936,38.128, 341.344-32, 409.592-32C 409.592-32, 512,36.28, 512,70.408
	S 409.592,206.936, 375.472,172.816z" data-tags="phone" />
<glyph unicode="&#x77;" d="M 506.952,28.488L 292.080,454.576C 286.032,469.512, 271.512,480, 254.512,480
	c-14.256,0-26.784-7.488-34.040-18.576c-1.696-2.84-2.992-5.424-4-8.36
	L 6.52,30.968C 2.288,24.488,0,16.952,0,8.56C0-13.576, 18.032-32, 40.512-32l 430.968,0 
	C 493.952-32, 512-13.576, 512,8.56C 512,15.952, 510.048,22.528, 506.952,28.488 M 297.424,352
	l-11.512-224l-59.384,0 L 215.224,352L 297.424,352 z M 256.248,0l-0.512,0 C 227.336,0, 208,20.312, 208,48
	c0,28.328, 19.856,48, 48.248,48C 284.768,96, 303.472,76.328, 304,48C 304,20.312, 285.296,0, 256.248,0" data-tags="warning" />
<glyph unicode="&#x63;" d="M 160,208c0-53.016, 42.984-96, 96-96s 96,42.984, 96,96s-42.984,96-96,96S 160,261.016, 160,208z M 480,384l-112,0 c-8,32-16,64-48,64l-128,0 
	c-32,0-40-32-48-64L 32,384 C 14.408,384,0,369.592,0,352l0-288 c0-17.592, 14.408-32, 32-32l 448,0 c 17.592,0, 32,14.408, 32,32L 512,352 
	C 512,369.592, 497.592,384, 480,384z M 256,66c-78.424,0-142,63.56-142,142S 177.576,350, 256,350
	c 78.44,0, 142-63.56, 142-142S 334.44,66, 256,66z M 480,288l-64,0 l0,32 l 64,0 L 480,288 z" data-tags="camera" />
<glyph unicode="&#x66;" d="M 288,458L 288,320L 426,320 zM 64,480L 256,480L 256,288L 448,288L 448-32L 64-32 z" data-tags="file" />
<glyph unicode="&#x54;" d="M 256,464C 123.464,464, 16,356.544, 16,224s 107.464-240, 240-240c 132.544,0, 240,107.456, 240,240S 388.544,464, 256,464z M 341.56,96
	L 226,211.576L 226,384 l 60,0 l0-147.576 L 384,138.44L 341.56,96z" data-tags="time" />
<glyph unicode="&#x44;" d="M 459.472,307.408c-1.856-1.8-4.264-2.704-6.656-2.704
	c-2.312,0-4.72,0.904-6.544,2.704l-42.8,42.856c-3.704,3.64-3.704,9.56,0,13.184
	c 3.64,3.672, 9.592,3.64, 13.184-0.032L 459.504,320.624
	C 463.128,316.92, 463.096,311.064, 459.472,307.408z M 407.8,295.344
	c-1.768-1.856-4.168-2.736-6.544-2.736c-2.424,0-4.8,0.872-6.656,2.736
	l-23.064,23.016c-3.688,3.704-3.688,9.528,0,13.232c 3.608,3.624, 9.528,3.624, 13.168,0
	l 23.064-23.032C 411.456,304.856, 411.488,298.936, 407.8,295.344z M 416,64L 240,64 l 176,176L 416,64 z
	 M 216.504,104.096c-1.816-1.84-4.168-2.752-6.576-2.752
	c-2.352,0-4.768,0.904-6.576,2.752l-23.048,23.064c-3.672,3.64-3.672,9.56,0,13.2
	c 3.648,3.624, 9.536,3.592, 13.168-0.032l 23.032-23.096
	C 220.168,113.624, 220.168,107.704, 216.504,104.096z M 184.672,72.232
	c-1.816-1.872-4.24-2.8-6.592-2.8c-2.4,0-4.784,0.92-6.592,2.768
	l-23.096,23.064c-3.672,3.64-3.672,9.528,0,13.128
	c 3.664,3.704, 9.536,3.736, 13.216,0.032l 23.064-23.096
	C 188.336,81.768, 188.336,75.84, 184.672,72.232z M 172.56,20.592
	c-1.832-1.872-4.208-2.784-6.624-2.784c-2.352,0-4.736,0.904-6.552,2.688
	L 116.552,63.328c-3.672,3.64-3.672,9.528,0,13.168c 3.648,3.688, 9.52,3.688, 13.16,0
	l 42.848-42.784C 176.176,30.128, 176.176,24.232, 172.56,20.592z M 212.16,172.184
	c 3.648,3.64, 9.52,3.64, 13.184,0l 42.832-42.832c 3.64-3.64, 3.64-9.56,0-13.184
	c-1.824-1.856-4.192-2.8-6.544-2.8c-2.432,0-4.832,0.936-6.68,2.8
	l-42.8,42.8C 208.488,162.672, 208.488,168.592, 212.16,172.184z M 244.056,204.128
	c 3.632,3.592, 9.536,3.56, 13.168-0.032l 23.024-23.128
	c 3.688-3.64, 3.688-9.528,0-13.168c-1.784-1.84-4.16-2.72-6.592-2.72
	c-2.368,0-4.76,0.872-6.568,2.72l-23.032,23.096
	C 240.384,194.592, 240.384,200.424, 244.056,204.128z M 275.872,235.952
	c 3.688,3.672, 9.56,3.672, 13.216,0l 23.064-23.096
	c 3.64-3.624, 3.608-9.512-0.032-13.16c-1.84-1.84-4.168-2.8-6.544-2.8
	c-2.408,0-4.8,0.952-6.576,2.8l-23.128,23.064
	C 272.216,226.408, 272.216,232.328, 275.872,235.952z M 307.768,267.8
	c 3.704,3.624, 9.56,3.624, 13.232,0l 42.832-42.84
	c 3.704-3.624, 3.704-9.544, 0.032-13.128c-1.784-1.84-4.232-2.752-6.64-2.752
	c-2.424,0-4.736,0.872-6.544,2.688l-42.904,42.856
	C 304.144,258.264, 304.144,264.184, 307.768,267.8z M 339.64,299.72
	c 3.672,3.608, 9.528,3.608, 13.184,0l 23.128-23.064
	c 3.64-3.592, 3.672-9.512, 0.032-13.216c-1.84-1.752-4.296-2.688-6.672-2.688
	c-2.344,0-4.736,0.936-6.544,2.688l-23.128,23.128C 336,290.168, 336,296.096, 339.64,299.72z
	 M 480,480L0,0l 0.008-32L 512-32 L 512,480 L 480,480 z" data-tags="dimensions" />
<glyph unicode="&#x62;" d="M 256,400C 194.904,435.2, 96,432, 96,432l0-320 c0,0, 98.904-12.8, 160-48L 256,400 zM 288,400c 61.112,35.2, 160,32, 160,32l0-320 c0,0-98.888-12.8-160-48L 288,400 zM 480,416L 480,80L 288,32L 256,32L 64,80L 64,416L 32,416L 32,87.472L 32,48L 256,0L 288,0L 512,48L 512,87.472L 512,416 z" data-tags="book" />
<glyph unicode="&#x2a;" d="M 256,464c-132.544,0-240-107.44-240-239.968c0-132.592, 107.456-240.032, 240-240.032
	c 132.56,0, 240,107.44, 240,240.032C 496,356.56 388.56,464 256,464z M 417.424,224.032
	c0-29.936-8.272-57.872-22.448-81.872l-220.848,220.816
	c 24.016,14.192, 51.952,22.464, 81.872,22.464
	C 345.168,385.44 417.424,313.152 417.424,224.032z M 94.576,224.032
	c0,29.904, 8.272,57.84, 22.464,81.872l 220.864-220.848
	c-24.048-14.192-51.968-22.464-81.904-22.464
	C 166.832,62.592 94.576,134.848 94.576,224.032z" data-tags="delete" />
<glyph unicode="&#x23;" d="M 384,96l-320,0 l0,224 l 85.648,0 c0,0, 31.36,44, 90.352,64l-216,0 c-14.16,0-24-9.872-24-24l0-302.384 
	c0-14.16, 11.456-25.616, 25.616-25.616l 397.376,0 c 14.144,0, 25.008,11.456, 25.008,25.616L 448,176 l-64-48L 384,96 z
	 M 352,176l 160,128l-160,128l0-80 c-206.432,0-208-212.464-208-212.464c 58.432,95.952, 95.936,116.464, 208,116.464
	" data-tags="share" />
<glyph unicode="&#x6c;" d="M 448,416l0-416 l-336,0 c-26.512,0-48,21.504-48,48s 21.488,48, 48,48l 304,0 l0,384 l-320,0 c-35.2,0-64-28.816-64-64l0-384 
	c0-35.184, 28.8-64, 64-64l 384,0 l0,448 L 448,416 z M 128,64l 288,0 l0-32 l-288,0 L 128,64 z" data-tags="album" />
<glyph unicode="&#x2b;" d="M 256,480c-141.392,0-256-114.64-256-256c0-141.408, 114.608-256, 256-256s 256,114.592, 256,256
						C 512,365.36 397.408,480 256,480z M 416,192l-128,0 l0-128 l-64,0 l0,128 l-128,0 l0,64 l 128,0 l0,128 l 64,0 l0-128 l 128,0 L 416,192 z" data-tags="add" />
<glyph unicode="&#x3d;" d="M 22.592,52.352l-22.592-84.208l 84.208,22.544l 78.256,20.912l-118.944,119.008
		L 22.592,52.352z M 70.832,162.176l 123.248-123.328l 235.872,235.696l-123.328,123.328
		L 70.832,162.176z M 499.808,403.168l-64.416,64.464c-16.272,16.304-42.576,16.272-58.896,0
		l-40.448-40.368l 123.28-123.328l 40.464,40.368
		C 516.048,360.592 516.096,386.944 499.808,403.168z" data-tags="edit" />
<glyph unicode="&#x21;" d="M 240,48l-80-32l-16,16l 96,64l0,32 l-176,0 c-16,0-24,10.032-24,24c0,13.28, 8,24, 24,24l0,224 
	c-13.28,0.688-24,11.408-24,24c0,13.936, 10.016,24, 24,24l 176,0 l 12.8,32l 6.4,0 l 12.8-32l 176,0 
	c 13.984,0, 24-10.064, 24-24c0-13.968-10.016-24-24-24l0-224 c 16,0, 24-10.032, 24-24s-8-24-24-24l-176,0 l0-32 l 96-64
	l-16-16l-80,32l0-64 c0-9.776-6.224-16-16-16c-10.48,0-16,6.224-16,16L 240,48 z M 416,400l-320,0 l0-224 l 320,0 L 416,400 z" data-tags="present" />
<glyph unicode="&#x69;" d="M 256,464c-132.544,0-240-107.472-240-240c0-132.544, 107.456-240, 240-240c 132.528,0, 240,107.456, 240,240
		C 496,356.528 388.528,464 256,464z M 288.752,59.744
		c-16.416-6.128-29.488-10.752-39.312-13.952c-9.696-3.2-20.656-4.816-32.88-4.816
		c-18.816,0-32.608,4.592-41.6,13.728c-8.944,9.104-12.336,20.72-10.16,34.784
		c 0.88,5.44, 2.192,11.088, 3.792,16.784c 1.744,5.664, 3.968,12.128, 6.832,19.28
		l 30.176,68.4c 2.784,6.56, 5.152,12.8, 7.232,18.656
		c 2.112,5.808, 3.552,11.168, 4.32,16.112c 1.376,8.736, 0.576,14.736-2.528,18.208
		s-9.68,5.136-19.936,5.136c-5.008,0-10.32-0.8-15.84-2.32
		c-5.488-1.68-10.24-3.072-14.256-4.544l 8.464,21.152
		c 13.584,5.12, 26.304,9.536, 38.448,13.216c 12.176,3.664, 23.424,5.504, 33.728,5.504
		c 18.608,0, 32.256-4.48, 40.944-13.504c 8.656-8.944, 11.84-20.656, 9.568-34.976
		c-0.416-2.976-1.616-8.288-3.504-15.76c-1.904-7.424-4.208-14.336-7.088-20.56
		l-30.080-68.208c-2.384-5.472-4.768-11.696-7.168-18.752
		c-2.336-7.008-3.76-12.336-4.352-15.872c-1.456-9.104-0.352-15.264, 3.216-18.56
		c 3.6-3.28, 10.336-4.944, 20.416-4.944c 4.72,0, 10.192,0.88, 16.4,2.496
		c 6.24,1.68, 10.816,3.12, 13.648,4.384L 288.752,59.744z M 347.12,367.184
		c-1.824-11.872-7.968-22-18.24-30.352c-10.336-8.336-21.792-12.512-34.432-12.512
		c-12.672,0-22.928,4.192-30.656,12.512c-7.728,8.352-10.656,18.48-8.8,30.352
		c 1.872,11.872, 8,21.984, 18.368,30.416c 10.4,8.416, 21.872,12.672, 34.624,12.672
		c 12.64,0, 22.784-4.256, 30.4-12.672C 346.128,389.168 348.976,379.056 347.12,367.184z" data-tags="info" />
<glyph unicode="&#x5e;" d="M 448,288l-61.968,178.272c-3.888,10.656-15.232,16.272-25.344,12.64
	l-348.048-127.056c-10.128-3.68-15.216-15.312-11.328-25.968l 62.688-152.128l0,63.552 
	c0,36.784, 21.904,50.704, 58.064,50.704l 91.968,0 l 109.728,111.008L 387.232,288L 448,288 z
	 M 480,256l-352,0 c-16,0-32-16-32-32l0-224 c0-16, 16.496-32, 32-32l 352.496,0 c 15.504,0, 31.504,16, 31.504,32l0,224 
	C 512,239.504 496,256 480,256 M 464,16l-320,0 l0,48 l 60.4,109.28l 70.864-88
	l 66.48,68.176l 85.44,30.864L 464,112L 464,16 z" data-tags="photos" />
<glyph unicode="&#x6b;" d="M 256,480c-141.392,0-256-114.64-256-256c0-141.408, 114.608-256, 256-256s 256,114.592, 256,256
						C 512,365.36 397.408,480 256,480z M 413.152,128.544l-61.696-61.648
						l-95.456,95.456l-95.392-95.456l-61.712,61.648L 194.304,224l-95.408,95.424l 61.712,61.664
						l 95.392-95.424l 95.456,95.424l 61.696-61.664L 317.696,224L 413.152,128.544z" data-tags="close" />
<glyph unicode="&#x22;" d="M 111.28,128.304c-10.064,15.84-17.696,32.976-22.896,51.28l-88.384,0 l0,86.080 l 87.472,0 
	c 2.432,9.472, 5.504,18.544, 9.136,27.264c 3.664,8.688, 8.112,17.024, 13.312,24.96
	l-60,60l 60.896,60.944l 60.928-61.376c 7.632,4.256, 15.568,8.064, 23.808,11.44
	c 8.24,3.312, 16.784,5.968, 25.664,7.744L 221.2,480 l 86.096,0 l0-85.152 
	c 8.848-2.464, 17.248-5.616, 25.168-9.408c 7.952-3.824, 15.6-8.16, 22.896-13.056
	l 61.376,61.344l 60.928-60.88l-63.2-63.216c 3.664-7.024, 6.944-14.128, 9.824-21.28
	c 2.928-7.184, 5.296-14.752, 7.104-22.688l 80.608,0 l0-86.080 l-81.52,0 
	c-1.824-7.952-4.272-15.424-7.328-22.448c-3.056-7.008-6.576-13.904-10.512-20.592
	l 60.432-60l-60.912-60.928l-59.088,59.072c-14.336-9.152-29.6-16.032-45.776-20.592L 307.296-32 
	l-86.096,0 l0,83.808 c-17.12,3.968-32.688,9.888-46.72,17.84l-59.056-59.072l-60.928,60.928
	L 111.28,128.304z M 194.64,222.624c0-9.472, 1.808-18.496, 5.504-27.024
	c 3.648-8.528, 8.608-15.968, 14.864-22.192c 6.272-6.288, 13.664-11.232, 22.224-14.912
	c 8.56-3.664, 17.552-5.488, 27.024-5.488c 9.76,0, 18.832,1.824, 27.248,5.488
	c 8.384,3.664, 15.712,8.624, 21.968,14.912c 6.272,6.224, 11.232,13.664, 14.896,22.192
	s 5.504,17.568, 5.504,27.024c0,9.76-1.84,18.848-5.504,27.248s-8.624,15.696-14.896,22
	c-6.256,6.224-13.584,11.184-21.968,14.848c-8.416,3.68-17.488,5.504-27.248,5.504
	c-9.488,0-18.464-1.808-27.024-5.504c-8.544-3.664-15.952-8.624-22.224-14.848
	c-6.256-6.304-11.216-13.6-14.864-22C 196.464,241.472 194.64,232.384 194.64,222.624z
	" data-tags="gear" />
<glyph unicode="&#x27;" d="M 284.096,82.064c-14.064-5.232-25.216-9.2-33.632-11.92
			c-8.32-2.752-17.68-4.128-28.128-4.128c-16.096,0-27.92,3.936-35.6,11.744
			c-7.664,7.792-10.56,17.712-8.688,29.744c 0.752,4.656, 1.872,9.504, 3.248,14.352
			c 1.504,4.864, 3.376,10.384, 5.824,16.512l 25.824,58.512
			c 2.368,5.632, 4.384,10.96, 6.192,15.968c 1.808,4.992, 3.024,9.552, 3.68,13.776
			c 1.184,7.456, 0.496,12.608-2.16,15.584c-2.688,2.96-8.32,4.384-17.056,4.384
			c-4.304,0-8.848-0.688-13.568-1.984c-4.688-1.44-8.752-2.624-12.192-3.888
			l 7.248,18.112c 11.6,4.384, 22.496,8.16, 32.88,11.312
			c 10.432,3.136, 20.064,4.688, 28.88,4.688c 15.92,0, 27.6-3.808, 35.024-11.536
			c 7.392-7.664, 10.128-17.664, 8.192-29.936c-0.368-2.528-1.376-7.056-3.008-13.472
			c-1.632-6.336-3.6-12.288-6.064-17.6l-25.744-58.336
			c-2.032-4.688-4.064-10.032-6.128-16.064c-2.016-5.968-3.232-10.56-3.744-13.6
			c-1.216-7.776-0.288-13.040, 2.784-15.856s 8.832-4.24, 17.456-4.24
			c 4.048,0, 8.72,0.752, 14.032,2.144c 5.36,1.456, 9.264,2.672, 11.664,3.76
			L 284.096,82.064z M 334.032,345.104c-1.568-10.16-6.816-18.832-15.6-25.968
			c-8.848-7.12-18.656-10.72-29.472-10.72c-10.848,0-19.632,3.6-26.256,10.72
			c-6.592,7.136-9.088,15.808-7.504,25.968s 6.848,18.816, 15.712,26.032
			c 8.912,7.216, 18.72,10.848, 29.616,10.848c 10.816,0, 19.488-3.632, 26.016-10.848
			C 333.168,363.92 335.616,355.264 334.032,345.104zM 256,448c 123.52,0, 224-100.48, 224-224s-100.48-224-224-224s-224,100.48-224,224
	S 132.496,448 256,448 M 256,480c-141.376,0-256-114.608-256-256s 114.624-256, 256-256s 256,114.608, 256,256
	S 397.392,480 256,480L 256,480z" data-tags="info_light" />
<glyph unicode="&#x28;" d="M 128,0l0,32 c 55.728,3.536, 64,6.096, 64,56.208L 192,304 c0,36.672-3.072,45.888-32,48
		l-32,0 l0,32 c 64,0, 144,32, 192,80l0-375.792 c0-48.688, 7.568-52.672, 64-56.208l0-32 L 128,0 z" data-tags="first" />
<glyph unicode="&#x25;" d="M0,64L 512,64L 512,0L0,0zM 64,192L 128,192L 128,96L 64,96zM 160,320L 224,320L 224,96L 160,96zM 256,224L 320,224L 320,96L 256,96zM 352,416L 416,416L 416,96L 352,96z" data-tags="statistics" />
<glyph unicode="&#x24;" d="M 496.131,44.302L 374.855,147.449c-12.537,11.283-25.945,16.463-36.776,15.963C 366.707,196.946, 384,240.451, 384,288
	C 384,394.039, 298.039,480, 192,480C 85.962,480,0,394.039,0,288c0-106.039, 85.961-192, 192-192c 47.549,0, 91.054,17.293, 124.588,45.922
	c-0.5-10.831, 4.68-24.239, 15.963-36.776l 103.147-121.276c 17.661-19.623, 46.511-21.277, 64.11-3.678S 515.754,26.641, 496.131,44.302z
	 M 192,160c-70.692,0-128,57.308-128,128S 121.308,416, 192,416s 128-57.308, 128-128S 262.693,160, 192,160z" data-tags="search" />
<glyph unicode="&#x26;" d="M 256,480C 167.634,480, 96,408.366, 96,320c0-160, 160-352, 160-352s 160,192, 160,352C 416,408.366, 344.365,480, 256,480z M 256,224
	c-53.020,0-96,42.98-96,96s 42.98,96, 96,96s 96-42.98, 96-96S 309.020,224, 256,224z" data-tags="marker" />
<glyph unicode="&#x29;" d="M 416,464c0,8.832-7.152,16-16,16l-16,0 l-16,0 L 144,480 L 128,480 L 112,480 C 103.168,480, 96,472.832, 96,464L0,224l0-224 
	c0-17.664, 14.336-32, 32-32l 448,0 c 17.664,0, 32,14.336, 32,32L 512,224 L 416,464z M 368,224l-48-80c0-8.848-7.152-16-16-16l-96,0 c-8.848,0-16,7.152-16,16l-48,80L 64,224 L 146.288,416
	l 219.44,0 L 448,224L 368,224 z" data-tags="inbox" />
<glyph unicode="&#x2c;" d="M 464-32L 48-32 c-8.832,0-16,7.152-16,16L 32,240 c0,8.848, 7.168,16, 16,16l 48,0 l0,64 C 96,408.368, 167.632,480, 256,480
	s 160-71.632, 160-160l0-64 l 48,0 c 8.848,0, 16-7.152, 16-16l0-256 C 480-24.848, 472.848-32, 464-32z M 352,328C 352,376.608, 309.008,416, 256,416s-96-39.392-96-88L 160,256 l 192,0 L 352,328 z" data-tags="locked" />
<glyph unicode="&#x2d;" d="M 256,480C 114.615,480,0,365.385,0,224s 114.615-256, 256-256s 256,114.615, 256,256S 397.385,480, 256,480z M 160,224
	c0,53.020, 42.98,96, 96,96s 96-42.98, 96-96s-42.98-96-96-96S 160,170.98, 160,224z M 462.99,138.262L 462.99,138.262l-88.71,36.745
	C 380.539,190.099, 384,206.645, 384,224s-3.461,33.901-9.72,48.993l 61.063,25.293l 27.647,11.452C 473.944,283.327, 480,254.373, 480,224
	C 480,193.627, 473.943,164.673, 462.99,138.262L 462.99,138.262z M 341.739,430.99L 341.739,430.99L 341.739,430.99l-36.745-88.71
	C 289.902,348.539, 273.356,352, 256,352s-33.901-3.461-48.993-9.72l-17.23,41.599l-19.515,47.112C 196.673,441.943, 225.628,448, 256,448
	C 286.373,448, 315.327,441.943, 341.739,430.99z M 49.010,309.738l 47.112-19.515l 41.599-17.23C 131.462,257.901, 128,241.355, 128,224
	s 3.461-33.901, 9.72-48.993l-88.71-36.745C 38.057,164.673, 32,193.627, 32,224C 32,254.373, 38.057,283.327, 49.010,309.738z
	 M 170.262,17.010l 11.452,27.647l 25.293,61.063C 222.099,99.461, 238.645,96, 256,96s 33.901,3.461, 48.993,9.72l 36.745-88.71l0,0l0,0
	C 315.327,6.058, 286.373,0, 256,0C 225.628,0, 196.673,6.057, 170.262,17.010z" data-tags="support" />
<glyph unicode="&#x2e;" d="M 192,448l 320,0 l0-64 L 192,384 L 192,448 z M 192,256l 320,0 l0-64 L 192,192 L 192,256 z M 192,64l 320,0 l0-64 L 192,0 L 192,64 zM0,416A64,64 2700 1 1 128,416A64,64 2700 1 1 0,416zM0,224A64,64 2700 1 1 128,224A64,64 2700 1 1 0,224zM0,32A64,64 2700 1 1 128,32A64,64 2700 1 1 0,32z" data-tags="list_bullet" />
<glyph unicode="&#x2f;" d="M 227.152,269.088c-2.704,7.68-8.72,28.688-7.664,46
		c 0.304,4.928, 1.168,26.4, 0.592,32.448c-0.368,3.92, 0.384,8.304,0,12.368
		c-0.736,7.76-3.408,32.16-3.536,37.152c-0.528,21.888-12.336,54.288-2.96,72.56
		c 4.528,8.784, 21.664,14.592, 32.448,6.48c 14.96-11.248, 11.52-47.008, 11.2-71.376
		c-0.272-21.008-1.936-49.52, 1.184-69.6c 3.376-21.856, 2.576-48.528-7.664-61.936
		C 244.944,265.632 233.424,259.856 227.152,269.088M 108.016,431.888c 21.392,4.368, 26.768-17.072, 31.84-33.632
		c 2.48-8.096, 4.944-16.176, 7.072-23.6c 7.024-24.496, 14.672-57.264, 22.416-83.168
		c 3.36-11.232, 10.8-22.672, 9.44-33.008c-0.864-6.56-6.48-14.704-12.976-14.752
		c-8.336-0.064-20.24,23.056-23.008,30.672c-3.28,9.008-9.536,24.112-12.976,32.432
		c-6.144,14.88-15.232,30.88-21.232,47.184c-5.36,14.56-9.84,25.792-12.976,44.24
		c-1.28,7.536-3.024,14.704-1.76,20.048
		C 95.504,425.296 102.048,430.672 108.016,431.888M 19.536,263.2c 16.832,2.448, 27.104-12.272, 38.928-20.064
		c 11.232-7.408, 22.16-12.752, 29.488-18.88c 5.328-4.432, 12.064-12.416, 13.568-18.88
		c 3.36-14.496-8.464-30.784-19.456-31.248c-8.080-0.352-16.272,9.888-21.824,15.92
		c-12.496,13.536-25.824,24.16-37.744,37.744
		C 15.008,236.336 2.576,257.056 19.536,263.2M 471.92,178.864c-5.648-1.696-12.432-7.328-17.696-11.792
		c-4.416-3.76-11.472-10.224-14.736-14.752c-2.384-3.312-6.976-9.808-10.032-14.16
		c-4.336-6.192-14.704-15.664-22.16-22.992c-5.456-5.344-19.616-11.36-28.896-10.608
		c-5.296,0.416-8.672,3.872-13.28,7.952c-4.368,3.856-8.256,7.664-13.28,14.752
		c-3.216,4.544-7.92,19.728-11.2,27.12c-3.296,7.408-2.576,23.952-1.776,29.2
		c 1.184,7.664, 2.32,10.416, 3.296,17.072c 2.512,17.152-4.144,26.464-2.112,39.552
		c 0.928,5.968, 3.376,13.968, 6.24,19.44c 2.752,5.248, 12.256,53.232, 14.752,60.752
		c 2.176,6.56, 2.56,13.904, 4.72,20.64c 2,6.272, 3.872,12.704, 5.904,19.472
		c 4.432,14.848, 13.728,32.816, 8.848,50.72c-2.736,10.032-17.664,26.336-28.896,24.784
		c-10.144-1.408-13.008-6.48-18.032-14.144c-3.424-5.2-4.208-13.328-5.312-18.288
		c-1.392-6.288-0.784-16.592-1.184-23.008c-0.656-10.608-1.808-22.912-2.944-34.208
		c-1.056-10.544-3.44-18.288-5.904-27.728c-4.128-15.856-15.712-25.264-17.344-41.296
		c-0.736-7.216-1.616-14.816-3.296-20.032c-2.496-7.696-7.088-11.92-15.584-14.192
		c-13.936-3.712-21.248,6.784-34.208,5.312c-12.336-1.392-16.864-16.496-28.32-23.008
		c-17.152-9.76-24.528-3.808-34.848-9.424c-11.84-6.416-18.352-18.816-24.48-22.4
		c-8.56-5.008-14.8-4.592-20.304-6.512c-14.48-5.056-30.624-20.064-29.488-37.744
		c 0.368-5.856, 5.264-13.616, 8.256-18.288c 3.984-6.208, 6.8-12.24, 9.44-17.696
		c 5.776-11.952, 13.328-24.976, 17.104-36.56c 4.464-13.712, 4.768-31.296, 5.904-46
		c 0.512-6.704, 3.2-13.296, 5.312-20.064c 2.208-7.040, 3.376-14.336, 5.904-19.472
		c 5.312-10.8, 18.848-21.568, 34.208-23.008c 16.368-1.52, 27.12,3.312, 39.52,6.496
		c 8.496,2.176, 17.52,4.176, 27.136,5.888c 18.416,3.296, 40.304,6.352, 54.272,12.384
		c 10.544,4.544, 21.088,12.048, 30.672,18.88c 17.872,12.72, 33.664,23.232, 44.24,41.28
		c 4.224,7.216, 10.192,11.776, 15.328,20.064c 5.44,8.736, 15.168,17.792, 25.36,22.4
		c 8.096,3.664, 14.272,7.968, 23.6,11.2c 9.68,3.376, 18.496,9.92, 25.952,17.104
		c 7.28,7.008, 15.568,14.592, 17.696,25.36
		C 504.16,169.2 491.856,184.848 471.92,178.864 M 282.896,110.992
		c-0.784-4.4-3.264-9.792-4.72-15.92c-1.616-6.784-0.576-14.816-1.76-18.88
		c-2.096-7.088-16.528-15.552-26.544-7.072c-4.96,4.176-6.8,14.464-9.44,19.456
		c-3.712,7.008-14.272,14.992-16.512,23.008c-2.352,8.4, 1.392,18.176-0.592,28.896
		c-0.608,3.296-4.032,7.472-5.312,10.624c-2.448,6.032-6.016,14.496, 2.352,16.512
		c 8.688,2.080, 14.848-12.208, 21.232-15.936c 5.168-3.008, 12.192-4.384, 17.696-7.072
		C 271.648,138.592 286.512,131.296 282.896,110.992" data-tags="humanise" />
<glyph unicode="&#x20;" horiz-adv-x="256" />
<glyph class="hidden" unicode="&#xf000;" d="M0,480L 512 -32L0 -32 z" horiz-adv-x="0" />
</font>
</defs>
</svg>
