<svg id="Layer_1" xmlns="http://www.w3.org/2000/svg" viewBox="0 0 32 32"><style>.st4{fill:none;stroke:#d9d9d9;stroke-linecap:round;stroke-linejoin:round}</style><path fill="none" d="M0 0h32v32H0z"/><path fill="#fff" stroke="#999" stroke-width=".9" stroke-linejoin="round" d="M31.519 26.098L4.485 30.824.46 7.796 10.73 6l11.703 3.34 6.6 2.538z"/><linearGradient id="SVGID_1_" gradientUnits="userSpaceOnUse" x1="16" y1="28.5" x2="16" y2="5.5"><stop offset="0" stop-color="#e6e6e6"/><stop offset=".054" stop-color="#ececec"/><stop offset=".146" stop-color="#f2f2f2"/><stop offset=".183" stop-color="#f6f6f6"/><stop offset=".305" stop-color="#fdfdfd"/><stop offset=".642" stop-color="#fff"/></linearGradient><path fill="url(#SVGID_1_)" stroke="#999" stroke-linecap="round" stroke-linejoin="round" d="M2.5 5.5v22l1 1h25l1-1v-22z"/><linearGradient id="SVGID_2_" gradientUnits="userSpaceOnUse" x1="16" y1="8.5" x2="16" y2="2.5"><stop offset="0" stop-color="#ee324f"/><stop offset=".185" stop-color="#f1595f"/><stop offset=".433" stop-color="#f37b75"/><stop offset=".66" stop-color="#f59087"/><stop offset=".857" stop-color="#f79d92"/><stop offset="1" stop-color="#f7a297"/></linearGradient><path fill="url(#SVGID_2_)" stroke="#ef3f4e" stroke-linecap="round" stroke-linejoin="round" d="M2.5 2.5h27v6h-27z"/><path class="st4" d="M4.5 13.5h23M11.5 10.5v16M20.5 10.5v16M4.5 18.5h23M4.5 23.5h23"/><path fill="none" stroke="gray" stroke-linecap="round" stroke-linejoin="round" d="M2.5 27.5l1 1h25l1-1"/><g><linearGradient id="SVGID_3_" gradientUnits="userSpaceOnUse" x1="7.5" y1="4.5" x2="7.5" y2=".5"><stop offset="0" stop-color="#e6e6e6"/><stop offset=".054" stop-color="#ececec"/><stop offset=".146" stop-color="#f2f2f2"/><stop offset=".183" stop-color="#f6f6f6"/><stop offset=".305" stop-color="#fdfdfd"/><stop offset=".642" stop-color="#fff"/></linearGradient><path fill="url(#SVGID_3_)" d="M6.5.5h2v4h-2z"/><linearGradient id="SVGID_4_" gradientUnits="userSpaceOnUse" x1="7.5" y1="5" x2="7.5"><stop offset="0" stop-color="#666"/><stop offset=".626" stop-color="#a9a9a9"/><stop offset="1" stop-color="#ccc"/></linearGradient><path d="M8.5 5h-2a.5.5 0 0 1-.5-.5v-2C6 2.224 6.724 0 7 0h1c.276 0 1 2.224 1 2.5v2a.5.5 0 0 1-.5.5zM7 4h1V1H7v3z" fill="url(#SVGID_4_)"/></g><g><linearGradient id="SVGID_5_" gradientUnits="userSpaceOnUse" x1="24.5" y1="4.5" x2="24.5" y2=".5"><stop offset="0" stop-color="#e6e6e6"/><stop offset=".054" stop-color="#ececec"/><stop offset=".146" stop-color="#f2f2f2"/><stop offset=".183" stop-color="#f6f6f6"/><stop offset=".305" stop-color="#fdfdfd"/><stop offset=".642" stop-color="#fff"/></linearGradient><path fill="url(#SVGID_5_)" d="M23.5.5h2v4h-2z"/><linearGradient id="SVGID_6_" gradientUnits="userSpaceOnUse" x1="24.5" y1="5" x2="24.5"><stop offset="0" stop-color="#666"/><stop offset=".626" stop-color="#a9a9a9"/><stop offset="1" stop-color="#ccc"/></linearGradient><path d="M25.5 5h-2a.5.5 0 0 1-.5-.5v-2c0-.276.724-2.5 1-2.5h1c.276 0 1 2.224 1 2.5v2a.5.5 0 0 1-.5.5zM24 4h1V1h-1v3z" fill="url(#SVGID_6_)"/></g></svg>