<svg id="Layer_1" xmlns="http://www.w3.org/2000/svg" viewBox="0 0 16 16"><style>.st3{fill:none;stroke:#d9d9d9;stroke-linecap:round;stroke-linejoin:round}</style><path fill="none" d="M0 0h16v15H0z"/><linearGradient id="SVGID_1_" gradientUnits="userSpaceOnUse" x1="8" y1="15.5" x2="8" y2="5.5"><stop offset="0" stop-color="#e6e6e6"/><stop offset=".054" stop-color="#ececec"/><stop offset=".146" stop-color="#f2f2f2"/><stop offset=".183" stop-color="#f6f6f6"/><stop offset=".305" stop-color="#fdfdfd"/><stop offset=".642" stop-color="#fff"/></linearGradient><path fill="url(#SVGID_1_)" stroke="#999" stroke-linecap="round" stroke-linejoin="round" d="M.5 5.5v9l1 1h13l1-1v-9z"/><linearGradient id="SVGID_2_" gradientUnits="userSpaceOnUse" x1="8" y1="5.5" x2="8" y2="1.5"><stop offset="0" stop-color="#ee324f"/><stop offset=".185" stop-color="#f1595f"/><stop offset=".433" stop-color="#f37b75"/><stop offset=".66" stop-color="#f59087"/><stop offset=".857" stop-color="#f79d92"/><stop offset="1" stop-color="#f7a297"/></linearGradient><path fill="url(#SVGID_2_)" stroke="#ef3f4e" stroke-linecap="round" stroke-linejoin="round" d="M.5 1.5h15v4H.5z"/><path class="st3" d="M2.5 9.5h11M5.5 7.5v7M10.5 7.5v7M2.5 12.5h11"/><path fill="none" stroke="gray" stroke-linecap="round" stroke-linejoin="round" d="M.5 14.5l1 1h13l1-1"/><g><linearGradient id="SVGID_3_" gradientUnits="userSpaceOnUse" x1="3.5" y1="3.5" x2="3.5" y2=".5"><stop offset="0" stop-color="#e6e6e6"/><stop offset=".054" stop-color="#ececec"/><stop offset=".146" stop-color="#f2f2f2"/><stop offset=".183" stop-color="#f6f6f6"/><stop offset=".305" stop-color="#fdfdfd"/><stop offset=".642" stop-color="#fff"/></linearGradient><path fill="url(#SVGID_3_)" d="M2.5.5h2v3h-2z"/><linearGradient id="SVGID_4_" gradientUnits="userSpaceOnUse" x1="3.5" y1="4" x2="3.5"><stop offset="0" stop-color="#666"/><stop offset=".626" stop-color="#a9a9a9"/><stop offset="1" stop-color="#ccc"/></linearGradient><path d="M4.5 4h-2a.5.5 0 0 1-.5-.5v-2C2 1.224 2.724 0 3 0h1c.276 0 1 1.224 1 1.5v2a.5.5 0 0 1-.5.5zM3 3h1V1H3v2z" fill="url(#SVGID_4_)"/></g><g><linearGradient id="SVGID_5_" gradientUnits="userSpaceOnUse" x1="12.5" y1="3.5" x2="12.5" y2=".5"><stop offset="0" stop-color="#e6e6e6"/><stop offset=".054" stop-color="#ececec"/><stop offset=".146" stop-color="#f2f2f2"/><stop offset=".183" stop-color="#f6f6f6"/><stop offset=".305" stop-color="#fdfdfd"/><stop offset=".642" stop-color="#fff"/></linearGradient><path fill="url(#SVGID_5_)" d="M11.5.5h2v3h-2z"/><linearGradient id="SVGID_6_" gradientUnits="userSpaceOnUse" x1="12.5" y1="4" x2="12.5"><stop offset="0" stop-color="#666"/><stop offset=".626" stop-color="#a9a9a9"/><stop offset="1" stop-color="#ccc"/></linearGradient><path d="M13.5 4h-2a.5.5 0 0 1-.5-.5v-2c0-.276.724-1.5 1-1.5h1c.276 0 1 1.224 1 1.5v2a.5.5 0 0 1-.5.5zM12 3h1V1h-1v2z" fill="url(#SVGID_6_)"/></g></svg>