<?xml version="1.0" encoding="utf-8"?>
<!-- Generator: Adobe Illustrator 23.0.3, SVG Export Plug-In . SVG Version: 6.00 Build 0)  -->
<svg version="1.1" id="Layer_1" xmlns="http://www.w3.org/2000/svg" xmlns:xlink="http://www.w3.org/1999/xlink" x="0px" y="0px"
	 viewBox="0 0 16 16" style="enable-background:new 0 0 16 16;" xml:space="preserve">
<g>
	<polygon points="6.4800911,8.2343636 4.6290908,10.0845451 3,8.454545 3,13 7.5454545,13 5.9163637,11.369091 7.7664547,9.5207272 
			"/>
	<polygon points="8.454545,3 10.0836363,4.6300001 8.2334547,6.4800911 9.5198183,7.7664547 11.3709087,5.9145455 13,7.5454545 
		13,3 	"/>
</g>
<path d="M13.5,16h-11C1.121582,16,0,14.8789062,0,13.5v-11C0,1.121582,1.121582,0,2.5,0h11C14.8789062,0,16,1.121582,16,2.5v11
	C16,14.8789062,14.8789062,16,13.5,16z M2.5,1C1.6728516,1,1,1.6728516,1,2.5v11C1,14.3271484,1.6728516,15,2.5,15h11
	c0.8271484,0,1.5-0.6728516,1.5-1.5v-11C15,1.6728516,14.3271484,1,13.5,1H2.5z"/>
</svg>
