<?xml version="1.0" encoding="utf-8"?>
<!-- Generator: Adobe Illustrator 23.0.3, SVG Export Plug-In . SVG Version: 6.00 Build 0)  -->
<svg version="1.1" id="Layer_1" xmlns="http://www.w3.org/2000/svg" xmlns:xlink="http://www.w3.org/1999/xlink" x="0px" y="0px"
	 viewBox="0 0 32 32" style="enable-background:new 0 0 32 32;" xml:space="preserve">
<g>
	<g>
		<path d="M29.9581833,2.0417066C28.6392174,0.7250133,26.887991,0,25.0252876,0s-3.6128616,0.7250133-4.9286289,2.0406401
			L16.9171238,5.21984c-1.3157663,1.3156266-2.0418167,3.0666666-2.0418167,4.9302397
			c0,0.6749868,0.0989971,1.3353605,0.2833366,1.9666138l2.5908871-2.5916805
			c0.131321-0.8728533,0.5209084-1.6811728,1.1574554-2.3165865l3.1784706-3.178133
			c0.7854691-0.7854934,1.8282471-1.2187734,2.9398308-1.2187734s2.1575623,0.4343467,2.9430313,1.2197332
			c0.7854691,0.7864532,1.2189026,1.8312535,1.2199688,2.9417601c0,1.1113601-0.4334316,2.1551995-1.2189026,2.9405866
			l-3.1784687,3.1792002c-0.6354809,0.6363735-1.4449539,1.0270929-2.3178997,1.1572266l-2.5909939,2.589653
			c0.6303616,0.1843204,1.2918701,0.2833061,1.9669285,0.2833061c1.8637714,0,3.614996-0.7250118,4.9317226-2.0417061
			l3.1775093-3.1790934c1.3177929-1.3156261,2.042881-3.0666666,2.0418148-4.9302397
			C31.9999981,5.1105065,31.2739487,3.3594666,29.9581833,2.0417066z"/>
		<g>
			<path d="M14.248147,22.4740257c-0.13132,0.8728542-0.5209084,1.6822414-1.1574554,2.3176537L9.9122219,27.968853
				c-0.7865362,0.785387-1.8303804,1.2197342-2.9419646,1.2197342S4.8137627,28.75424,4.0282927,27.968853
				c-1.6220381-1.621973-1.6220381-4.2615471,0-5.8834133l3.177403-3.1770668
				c0.6354804-0.6364803,1.4449525-1.027092,2.3190722-1.1582928l2.5908871-2.5906134
				c-0.63132-0.1844263-1.290803-0.2823467-1.9658613-0.2823467c-1.8637705,0-3.6160622,0.7250137-4.9327884,2.041707
				l-3.1784697,3.178133c-2.7180476,2.7176533-2.7180476,7.1405869,0,9.8614407C3.3563285,31.2750931,5.1075535,32,6.9702573,32
				c1.863771,0,3.6139293-0.7249069,4.9307618-2.0415993l3.1784697-3.1781349
				c1.3168335-1.3166924,2.0428829-3.0677319,2.0428829-4.9313049c0-0.6749878-0.0988903-1.3353615-0.2833366-1.9666138
				L14.248147,22.4740257z"/>
		</g>
	</g>
	<path d="M20.7217922,8.8854399c-0.6417751,0-1.2449322,0.2500267-1.6980991,0.7042131l-9.4479332,9.4458675
		c-0.9375925,0.9364262-0.9375925,2.4603729-0.0010672,3.3967991c0.9063358,0.9083729,2.4898634,0.909441,3.3983335-0.0010662
		l9.4467583-9.4457598c0.4542351-0.4541874,0.7042885-1.0563202,0.7042885-1.6979208
		c0-0.6417065-0.2500534-1.2447996-0.7032204-1.6979198C21.9666176,9.1354666,21.3623943,8.8854399,20.7217922,8.8854399
		L20.7217922,8.8854399z"/>
</g>
</svg>
