<?xml version="1.0" encoding="utf-8"?> <!-- Generator: IcoMoon.io --> <!DOCTYPE svg PUBLIC "-//W3C//DTD SVG 1.1//EN" "http://www.w3.org/Graphics/SVG/1.1/DTD/svg11.dtd"> <svg width="512" height="512" viewBox="0 0 512 512" xmlns="http://www.w3.org/2000/svg" xmlns:xlink="http://www.w3.org/1999/xlink"><g><line x1="32" x2="32" y1="0" y2="512" stroke="#B35047"></line><line x1="64" x2="64" y1="0" y2="512" stroke="#B35047"></line><line x1="96" x2="96" y1="0" y2="512" stroke="#B35047"></line><line x1="128" x2="128" y1="0" y2="512" stroke="#B35047"></line><line x1="160" x2="160" y1="0" y2="512" stroke="#B35047"></line><line x1="192" x2="192" y1="0" y2="512" stroke="#B35047"></line><line x1="224" x2="224" y1="0" y2="512" stroke="#B35047"></line><line x1="256" x2="256" y1="0" y2="512" stroke="#B35047"></line><line x1="288" x2="288" y1="0" y2="512" stroke="#B35047"></line><line x1="320" x2="320" y1="0" y2="512" stroke="#B35047"></line><line x1="352" x2="352" y1="0" y2="512" stroke="#B35047"></line><line x1="384" x2="384" y1="0" y2="512" stroke="#B35047"></line><line x1="416" x2="416" y1="0" y2="512" stroke="#B35047"></line><line x1="448" x2="448" y1="0" y2="512" stroke="#B35047"></line><line x1="480" x2="480" y1="0" y2="512" stroke="#B35047"></line><line x1="0" x2="512" y1="32" y2="32" stroke="#B35047"></line><line x1="0" x2="512" y1="64" y2="64" stroke="#B35047"></line><line x1="0" x2="512" y1="96" y2="96" stroke="#B35047"></line><line x1="0" x2="512" y1="128" y2="128" stroke="#B35047"></line><line x1="0" x2="512" y1="160" y2="160" stroke="#B35047"></line><line x1="0" x2="512" y1="192" y2="192" stroke="#B35047"></line><line x1="0" x2="512" y1="224" y2="224" stroke="#B35047"></line><line x1="0" x2="512" y1="256" y2="256" stroke="#B35047"></line><line x1="0" x2="512" y1="288" y2="288" stroke="#B35047"></line><line x1="0" x2="512" y1="320" y2="320" stroke="#B35047"></line><line x1="0" x2="512" y1="352" y2="352" stroke="#B35047"></line><line x1="0" x2="512" y1="384" y2="384" stroke="#B35047"></line><line x1="0" x2="512" y1="416" y2="416" stroke="#B35047"></line><line x1="0" x2="512" y1="448" y2="448" stroke="#B35047"></line><line x1="0" x2="512" y1="480" y2="480" stroke="#B35047"></line><rect x="0" y="0" width="512" height="512" fill="none" stroke="#B35047"></rect></g><path d="M 464.00,64.00L 48.00,64.00 C 21.488,64.00,0.00,85.488,0.00,112.00l0.00,288.00 c0.00,26.496, 21.488,48.00, 48.00,48.00l 416.00,0.00 c 26.512,0.00, 48.00-21.504, 48.00-48.00L 512.00,112.00 C 512.00,85.488, 490.512,64.00, 464.00,64.00z M 43.856,415.84 L 32.16,404.128l 131.984-131.968l 11.696,11.712L 43.856,415.84z M 468.144,415.84l-131.984-131.968l 11.696-11.712l 131.984,131.968L 468.144,415.84z M 272.00,309.20 L 272.00,320.00 l-32.00,0.00 l0.00-10.80 L 32.048,116.40l 20.352-20.352L 256.00,284.816L 459.60,96.048l 20.352,20.352L 272.00,309.20z" ></path></svg>