<!-- Generated by IcoMoon.io -->
<svg version="1.1" xmlns="http://www.w3.org/2000/svg" width="16" height="16" viewBox="0 0 16 16">
<title>add</title>
<path fill="#000" d="M8 0c-4.418 0-8 3.582-8 8s3.582 8 8 8c4.418 0 8-3.582 8-8s-3.582-8-8-8zM8 15.015c-3.86 0-7-3.156-7-7.016s3.14-7 7-7 7 3.14 7 7c0 3.859-3.14 7.016-7 7.016zM11.5 7.5h-3v-3c0-0.276-0.224-0.5-0.5-0.5s-0.5 0.223-0.5 0.5v3h-3c-0.276 0-0.5 0.223-0.5 0.5s0.224 0.5 0.5 0.5h3v2.999c0 0.277 0.224 0.5 0.5 0.5s0.5-0.223 0.5-0.5v-2.999h3c0.277 0 0.5-0.224 0.5-0.5s-0.223-0.5-0.5-0.5z"></path>
</svg>
