<svg aria-hidden="true" style="position: absolute; width: 0; height: 0; overflow: hidden;" version="1.1" xmlns="http://www.w3.org/2000/svg" xmlns:xlink="http://www.w3.org/1999/xlink">
<defs>
<symbol id="icon-search" viewBox="0 0 16 16">
<title>search</title>
<path d="M6.667 0.667c0.813 0 1.59 0.158 2.331 0.477s1.379 0.744 1.915 1.279c0.535 0.535 0.96 1.173 1.279 1.915s0.475 1.517 0.475 2.329c0 0.698-0.115 1.367-0.342 2.004s-0.552 1.219-0.971 1.74l3.787 3.781c0.129 0.129 0.192 0.287 0.192 0.475 0 0.192-0.063 0.35-0.19 0.477s-0.285 0.19-0.477 0.19c-0.188 0-0.346-0.065-0.475-0.192l-3.779-3.787c-0.521 0.421-1.1 0.744-1.74 0.971s-1.308 0.342-2.006 0.342c-0.813 0-1.59-0.158-2.331-0.477s-1.379-0.744-1.915-1.279c-0.535-0.535-0.96-1.173-1.279-1.915s-0.475-1.517-0.475-2.329 0.158-1.59 0.477-2.331 0.744-1.379 1.279-1.915 1.173-0.96 1.915-1.279 1.517-0.475 2.329-0.475zM6.667 2c-0.631 0-1.235 0.123-1.813 0.371s-1.073 0.579-1.49 0.996-0.748 0.912-0.996 1.49-0.369 1.179-0.369 1.81 0.123 1.235 0.371 1.812 0.579 1.073 0.996 1.49 0.912 0.748 1.49 0.996 1.181 0.371 1.813 0.371 1.235-0.123 1.813-0.371 1.073-0.579 1.49-0.996 0.748-0.912 0.996-1.49 0.371-1.181 0.371-1.813-0.123-1.235-0.371-1.813-0.579-1.073-0.996-1.49-0.912-0.748-1.49-0.996-1.183-0.369-1.815-0.369z"></path>
</symbol>
<symbol id="icon-menu" viewBox="0 0 16 16">
<title>menu</title>
<path d="M2 3.333h12c0.183 0 0.342 0.065 0.471 0.196s0.196 0.288 0.196 0.471-0.065 0.342-0.196 0.471-0.287 0.196-0.471 0.196h-12c-0.183 0-0.342-0.065-0.471-0.196s-0.196-0.287-0.196-0.471 0.065-0.342 0.196-0.471 0.287-0.196 0.471-0.196zM2 11.333h12c0.183 0 0.342 0.065 0.471 0.196s0.196 0.287 0.196 0.471-0.065 0.342-0.196 0.471-0.287 0.196-0.471 0.196h-12c-0.183 0-0.342-0.065-0.471-0.196s-0.196-0.287-0.196-0.471 0.065-0.342 0.196-0.471 0.287-0.196 0.471-0.196zM2 7.333h12c0.183 0 0.342 0.065 0.471 0.196s0.196 0.287 0.196 0.471-0.065 0.342-0.196 0.471-0.287 0.196-0.471 0.196h-12c-0.183 0-0.342-0.065-0.471-0.196s-0.196-0.287-0.196-0.471 0.065-0.342 0.196-0.471 0.287-0.196 0.471-0.196z"></path>
</symbol>
<symbol id="icon-close" viewBox="0 0 16 16">
<title>close</title>
<path d="M12.667 2.667c0.192 0 0.35 0.063 0.477 0.19s0.19 0.285 0.19 0.477c0 0.188-0.065 0.346-0.192 0.475l-4.2 4.192 4.198 4.192c0.129 0.129 0.192 0.287 0.192 0.475 0 0.192-0.063 0.35-0.19 0.477s-0.283 0.19-0.475 0.19c-0.188 0-0.346-0.065-0.475-0.192l-4.192-4.2-4.192 4.2c-0.129 0.129-0.288 0.192-0.475 0.192-0.192 0-0.35-0.063-0.477-0.19s-0.19-0.285-0.19-0.477c0-0.188 0.065-0.346 0.192-0.475l4.2-4.192-4.2-4.192c-0.129-0.129-0.192-0.288-0.192-0.475 0-0.192 0.063-0.35 0.19-0.477s0.285-0.19 0.477-0.19c0.188 0 0.346 0.065 0.475 0.192l4.192 4.2 4.192-4.198c0.129-0.129 0.287-0.194 0.475-0.194z"></path>
</symbol>
<symbol id="icon-left" viewBox="0 0 16 16">
<title>left</title>
<path d="M12.093 1.098c0.25-0.253 0.25-0.66 0-0.91s-0.651-0.253-0.901 0l-7.285 7.354c-0.25 0.253-0.25 0.66 0 0.91l7.285 7.357c0.25 0.253 0.651 0.253 0.901 0s0.25-0.66 0-0.91l-6.642-6.901 6.642-6.901z"></path>
</symbol>
<symbol id="icon-right" viewBox="0 0 16 16">
<title>right</title>
<path d="M3.907 14.902c-0.25 0.253-0.25 0.66 0 0.91s0.651 0.253 0.901 0l7.285-7.354c0.25-0.253 0.25-0.66 0-0.91l-7.285-7.357c-0.25-0.253-0.651-0.253-0.901 0s-0.25 0.66 0 0.91l6.642 6.901-6.642 6.901z"></path>
</symbol>
<symbol id="icon-up" viewBox="0 0 16 16">
<title>up</title>
<path d="M14.902 12.093c0.253 0.25 0.66 0.25 0.91 0s0.253-0.651 0-0.901l-7.354-7.285c-0.253-0.25-0.66-0.25-0.91 0l-7.357 7.285c-0.253 0.25-0.253 0.651 0 0.901s0.66 0.25 0.91 0l6.901-6.642 6.901 6.642z"></path>
</symbol>
<symbol id="icon-down" viewBox="0 0 16 16">
<title>down</title>
<path d="M1.098 3.907c-0.253-0.25-0.66-0.25-0.91 0s-0.253 0.651 0 0.901l7.354 7.285c0.253 0.25 0.66 0.25 0.91 0l7.357-7.285c0.253-0.25 0.253-0.651 0-0.901s-0.66-0.25-0.91 0l-6.901 6.642-6.901-6.642z"></path>
</symbol>
<symbol id="icon-info" viewBox="0 0 16 16">
<title>info</title>
<path d="M8.878 12.435c-0.44 0.164-0.788 0.287-1.051 0.373-0.26 0.086-0.553 0.129-0.879 0.129-0.503 0-0.873-0.123-1.112-0.367s-0.33-0.553-0.271-0.93c0.024-0.146 0.059-0.297 0.101-0.448 0.047-0.152 0.106-0.325 0.182-0.516l0.807-1.829c0.074-0.176 0.137-0.342 0.194-0.499s0.095-0.299 0.115-0.431c0.037-0.233 0.016-0.394-0.067-0.487s-0.26-0.137-0.533-0.137c-0.135 0-0.277 0.021-0.424 0.062-0.146 0.045-0.274 0.082-0.381 0.122l0.226-0.566c0.362-0.137 0.703-0.255 1.027-0.354 0.326-0.098 0.627-0.146 0.902-0.146 0.498 0 0.863 0.119 1.095 0.361 0.231 0.239 0.316 0.552 0.256 0.936-0.011 0.079-0.043 0.221-0.094 0.421-0.051 0.198-0.113 0.384-0.19 0.55l-0.804 1.823c-0.064 0.146-0.127 0.313-0.192 0.502-0.063 0.187-0.101 0.33-0.117 0.425-0.038 0.243-0.009 0.408 0.087 0.495s0.276 0.133 0.545 0.133c0.127 0 0.273-0.024 0.438-0.067 0.168-0.046 0.29-0.084 0.364-0.117l-0.226 0.563zM10.438 4.215c-0.049 0.317-0.213 0.588-0.488 0.811-0.277 0.223-0.583 0.335-0.921 0.335-0.339 0-0.614-0.112-0.821-0.335-0.206-0.223-0.284-0.494-0.234-0.811s0.214-0.588 0.491-0.813c0.278-0.225 0.585-0.339 0.925-0.339 0.338 0 0.609 0.114 0.813 0.339 0.207 0.225 0.284 0.496 0.234 0.813zM8 1c3.86 0 7 3.14 7 7s-3.14 7-7 7-7-3.14-7-7 3.14-7 7-7M8 0c-4.418 0-8 3.582-8 8s3.582 8 8 8 8-3.582 8-8-3.582-8-8-8v0z"></path>
</symbol>
<symbol id="icon-more" viewBox="0 0 16 16">
<title>more</title>
<path d="M8 1c3.86 0 7 3.14 7 7s-3.14 7-7 7c-3.86 0-7-3.14-7-7s3.14-7 7-7zM8 0c-4.418 0-8 3.582-8 8s3.582 8 8 8c4.418 0 8-3.582 8-8s-3.582-8-8-8v0z"></path>
<path d="M5.25 8c0 0.69-0.56 1.25-1.25 1.25s-1.25-0.56-1.25-1.25c0-0.69 0.56-1.25 1.25-1.25s1.25 0.56 1.25 1.25z"></path>
<path d="M9.25 8c0 0.69-0.56 1.25-1.25 1.25s-1.25-0.56-1.25-1.25c0-0.69 0.56-1.25 1.25-1.25s1.25 0.56 1.25 1.25z"></path>
<path d="M13.25 8c0 0.69-0.56 1.25-1.25 1.25s-1.25-0.56-1.25-1.25c0-0.69 0.56-1.25 1.25-1.25s1.25 0.56 1.25 1.25z"></path>
</symbol>
<symbol id="icon-follow" viewBox="0 0 16 16">
<title>follow</title>
<path d="M8 1c3.86 0 7 3.14 7 7s-3.14 7-7 7c-3.86 0-7-3.14-7-7s3.14-7 7-7zM8 0c-4.418 0-8 3.582-8 8s3.582 8 8 8c4.418 0 8-3.582 8-8s-3.582-8-8-8v0z"></path>
<path d="M4 7h7v2h-7v-2z"></path>
<path d="M8 3.5l4.5 4.5-4.5 4.5z"></path>
</symbol>
<symbol id="icon-add" viewBox="0 0 16 16">
<title>add</title>
<path d="M8 0c-4.418 0-8 3.582-8 8s3.582 8 8 8c4.418 0 8-3.582 8-8s-3.582-8-8-8zM8 15.015c-3.86 0-7-3.156-7-7.016s3.14-7 7-7 7 3.14 7 7c0 3.859-3.14 7.016-7 7.016zM11.5 7.5h-3v-3c0-0.276-0.224-0.5-0.5-0.5s-0.5 0.223-0.5 0.5v3h-3c-0.276 0-0.5 0.223-0.5 0.5s0.224 0.5 0.5 0.5h3v2.999c0 0.277 0.224 0.5 0.5 0.5s0.5-0.223 0.5-0.5v-2.999h3c0.277 0 0.5-0.224 0.5-0.5s-0.223-0.5-0.5-0.5z"></path>
</symbol>
<symbol id="icon-trash" viewBox="0 0 16 16">
<title>trash</title>
<path d="M12.004 2.007l-0.008-0.085c-0.042-1.067-0.914-1.922-1.992-1.922h-3c-1.078 0-1.95 0.933-1.992 2l-0.008 0.007h-3.004v0.993l0.918 0.001 0.875 11.428c0.049 0.866 0.645 1.571 1.411 1.571h6.66c0.766 0 1.229-0.705 1.278-1.571l0.963-11.428 0.887-0.001v-0.993h-2.989zM6.005 2c0-0.552 0.448-1 1-1h3c0.552 0 1 0.448 1 1v0.007h-5v-0.007zM12.29 14.158c-0.025 0.446-0.174 0.824-0.553 0.824h-6.406c-0.379 0-0.656-0.378-0.68-0.824l-0.838-11.157h9.4l-0.923 11.157z"></path>
<path d="M8.005 5h1v8h-1v-8z"></path>
<path d="M11.505 5h-1l-0.468 8h0.965z"></path>
<path d="M6.505 5h-1l0.502 8h0.965z"></path>
</symbol>
<symbol id="icon-gear" viewBox="0 0 16 16">
<title>gear</title>
<path d="M15.008 6.486l-1.283-0.284c-0.1-0.32-0.231-0.626-0.382-0.92l0.694-1.157c0.259-0.414 0.39-1.024 0-1.415l-0.707-0.707c-0.39-0.391-1.050-0.321-1.447-0.044l-1.126 0.717c-0.292-0.151-0.597-0.281-0.915-0.384l-0.288-1.299c-0.086-0.476-0.502-0.992-1.054-0.992h-1c-0.552 0-0.891 0.523-1 1l-0.321 1.283c-0.339 0.108-0.664 0.246-0.974 0.409l-1.154-0.735c-0.397-0.276-1.057-0.346-1.447 0.044l-0.708 0.707c-0.391 0.39-0.26 1 0 1.415l0.731 1.218c-0.137 0.276-0.259 0.561-0.353 0.86l-1.283 0.285c-0.476 0.086-0.992 0.502-0.992 1.054v1c0 0.552 0.523 0.89 1 1l1.3 0.325c0.090 0.275 0.202 0.54 0.329 0.796l-0.732 1.219c-0.259 0.414-0.39 1.024 0 1.414l0.708 0.707c0.39 0.39 1.050 0.321 1.448 0.044l1.156-0.737c0.312 0.165 0.638 0.303 0.979 0.412l0.32 1.28c0.109 0.476 0.448 1 1 1h1c0.553 0 0.969-0.515 1.055-0.992l0.288-1.303c0.314-0.101 0.616-0.229 0.904-0.379l1.128 0.719c0.398 0.276 1.057 0.346 1.447-0.044l0.707-0.707c0.39-0.39 0.259-1 0-1.414l-0.695-1.158c0.139-0.274 0.261-0.56 0.358-0.857l1.3-0.325c0.476-0.11 1-0.448 1-1v-1c0-0.553-0.515-0.969-0.992-1.055zM15.001 8.47c-0.043 0.030-0.123 0.072-0.224 0.096l-1.854 0.463-0.172 0.525c-0.078 0.237-0.178 0.477-0.299 0.714l-0.251 0.493 0.979 1.633c0.063 0.1 0.091 0.19 0.101 0.242l-0.658 0.657c-0.063-0.020-0.136-0.046-0.171-0.070l-1.646-1.050-0.511 0.264c-0.246 0.128-0.499 0.234-0.752 0.316l-0.545 0.177-0.412 1.861c-0.019 0.1-0.072 0.179-0.108 0.209h-0.9c-0.030-0.043-0.072-0.123-0.096-0.223l-0.46-1.841-0.532-0.169c-0.274-0.086-0.548-0.201-0.814-0.342l-0.514-0.271-1.646 1.050c-0.067 0.046-0.139 0.072-0.204 0.072l-0.655-0.638c0.009-0.052 0.036-0.137 0.091-0.225l1.022-1.704-0.243-0.489c-0.115-0.23-0.204-0.447-0.274-0.662l-0.171-0.526-1.836-0.459c-0.115-0.027-0.199-0.069-0.242-0.1v-0.929c0 0 0.001 0 0.002 0 0.017 0 0.099-0.059 0.167-0.071l1.887-0.418 0.174-0.551c0.071-0.224 0.167-0.458 0.294-0.716l0.243-0.49-1.012-1.686c-0.063-0.1-0.092-0.19-0.1-0.243l0.657-0.657c0.064 0.021 0.135 0.046 0.17 0.070l1.677 1.069 0.513-0.271c0.263-0.139 0.537-0.253 0.811-0.341l0.532-0.17 0.456-1.825c0.027-0.115 0.069-0.199 0.1-0.242h0.929c-0.007 0.010 0.057 0.097 0.071 0.169l0.42 1.897 0.544 0.176c0.255 0.083 0.511 0.19 0.761 0.32l0.511 0.266 1.612-1.027c0.068-0.046 0.139-0.071 0.204-0.071l0.656 0.637c-0.009 0.052-0.036 0.138-0.091 0.225l-0.989 1.648 0.252 0.494c0.136 0.266 0.24 0.516 0.318 0.764l0.173 0.552 1.848 0.41c0.112 0.021 0.199 0.085 0.217 0.12l-0.009 0.887zM8.007 4.995c-1.66 0-3.011 1.348-3.011 3.005s1.351 3.005 3.011 3.005 3.011-1.348 3.011-3.005c0-1.657-1.351-3.005-3.011-3.005zM8 10c-1.103 0-2-0.897-2-2s0.897-2 2-2 2 0.897 2 2c0 1.103-0.897 2-2 2z"></path>
</symbol>
<symbol id="icon-delete" viewBox="0 0 16 16">
<title>delete</title>
<path d="M8 0c-4.418 0-8 3.582-8 8s3.582 8 8 8 8-3.582 8-8c0-4.418-3.582-8-8-8zM8 1c1.753 0 3.351 0.649 4.579 1.713l-9.866 9.866c-1.065-1.228-1.714-2.826-1.714-4.579 0-3.867 3.135-7 7-7zM8 15c-1.753 0-3.351-0.649-4.58-1.713l9.866-9.866c1.065 1.228 1.714 2.826 1.714 4.579-0.001 3.866-3.135 7-7.001 7z"></path>
</symbol>
<symbol id="icon-view" viewBox="0 0 16 16">
<title>view</title>
<path d="M8 5c-1.657 0-3 1.343-3 3s1.343 3 3 3 3-1.343 3-3c0-1.657-1.343-3-3-3zM8 10c-1.104 0-2-0.896-2-2s0.896-2 2-2c1.104 0 2 0.896 2 2s-0.896 2-2 2zM8 2.5c-4.418 0-8 5.5-8 5.5s3.582 5.5 8 5.5 8-5.5 8-5.5-3.582-5.5-8-5.5zM8 12.5c-3.866 0-7-4.5-7-4.5s3.134-4.5 7-4.5 7 4.5 7 4.5-3.134 4.5-7 4.5z"></path>
</symbol>
</defs>
</svg>
