<!-- Generated by IcoMoon.io -->
<svg version="1.1" xmlns="http://www.w3.org/2000/svg" viewBox="0 0 16 16">
<title>close</title>
<path d="M12.667 2.667c0.192 0 0.35 0.063 0.477 0.19s0.19 0.285 0.19 0.477c0 0.188-0.065 0.346-0.192 0.475l-4.2 4.192 4.198 4.192c0.129 0.129 0.192 0.287 0.192 0.475 0 0.192-0.063 0.35-0.19 0.477s-0.283 0.19-0.475 0.19c-0.188 0-0.346-0.065-0.475-0.192l-4.192-4.2-4.192 4.2c-0.129 0.129-0.288 0.192-0.475 0.192-0.192 0-0.35-0.063-0.477-0.19s-0.19-0.285-0.19-0.477c0-0.188 0.065-0.346 0.192-0.475l4.2-4.192-4.2-4.192c-0.129-0.129-0.192-0.288-0.192-0.475 0-0.192 0.063-0.35 0.19-0.477s0.285-0.19 0.477-0.19c0.188 0 0.346 0.065 0.475 0.192l4.192 4.2 4.192-4.198c0.129-0.129 0.287-0.194 0.475-0.194z"></path>
</svg>
