<!-- Generated by IcoMoon.io -->
<svg version="1.1" xmlns="http://www.w3.org/2000/svg" viewBox="0 0 16 16">
<title>gear</title>
<path fill="#000" d="M15.008 6.486l-1.283-0.284c-0.1-0.32-0.231-0.626-0.382-0.92l0.694-1.157c0.259-0.414 0.39-1.024 0-1.415l-0.707-0.707c-0.39-0.391-1.050-0.321-1.447-0.044l-1.126 0.717c-0.292-0.151-0.597-0.281-0.915-0.384l-0.288-1.299c-0.086-0.476-0.502-0.992-1.054-0.992h-1c-0.552 0-0.891 0.523-1 1l-0.321 1.283c-0.339 0.108-0.664 0.246-0.974 0.409l-1.154-0.735c-0.397-0.276-1.057-0.346-1.447 0.044l-0.708 0.707c-0.391 0.39-0.26 1 0 1.415l0.731 1.218c-0.137 0.276-0.259 0.561-0.353 0.86l-1.283 0.285c-0.476 0.086-0.992 0.502-0.992 1.054v1c0 0.552 0.523 0.89 1 1l1.3 0.325c0.090 0.275 0.202 0.54 0.329 0.796l-0.732 1.219c-0.259 0.414-0.39 1.024 0 1.414l0.708 0.707c0.39 0.39 1.050 0.321 1.448 0.044l1.156-0.737c0.312 0.165 0.638 0.303 0.979 0.412l0.32 1.28c0.109 0.476 0.448 1 1 1h1c0.553 0 0.969-0.515 1.055-0.992l0.288-1.303c0.314-0.101 0.616-0.229 0.904-0.379l1.128 0.719c0.398 0.276 1.057 0.346 1.447-0.044l0.707-0.707c0.39-0.39 0.259-1 0-1.414l-0.695-1.158c0.139-0.274 0.261-0.56 0.358-0.857l1.3-0.325c0.476-0.11 1-0.448 1-1v-1c0-0.553-0.515-0.969-0.992-1.055zM15.001 8.47c-0.043 0.030-0.123 0.072-0.224 0.096l-1.854 0.463-0.172 0.525c-0.078 0.237-0.178 0.477-0.299 0.714l-0.251 0.493 0.979 1.633c0.063 0.1 0.091 0.19 0.101 0.242l-0.658 0.657c-0.063-0.020-0.136-0.046-0.171-0.070l-1.646-1.050-0.511 0.264c-0.246 0.128-0.499 0.234-0.752 0.316l-0.545 0.177-0.412 1.861c-0.019 0.1-0.072 0.179-0.108 0.209h-0.9c-0.030-0.043-0.072-0.123-0.096-0.223l-0.46-1.841-0.532-0.169c-0.274-0.086-0.548-0.201-0.814-0.342l-0.514-0.271-1.646 1.050c-0.067 0.046-0.139 0.072-0.204 0.072l-0.655-0.638c0.009-0.052 0.036-0.137 0.091-0.225l1.022-1.704-0.243-0.489c-0.115-0.23-0.204-0.447-0.274-0.662l-0.171-0.526-1.836-0.459c-0.115-0.027-0.199-0.069-0.242-0.1v-0.929c0 0 0.001 0 0.002 0 0.017 0 0.099-0.059 0.167-0.071l1.887-0.418 0.174-0.551c0.071-0.224 0.167-0.458 0.294-0.716l0.243-0.49-1.012-1.686c-0.063-0.1-0.092-0.19-0.1-0.243l0.657-0.657c0.064 0.021 0.135 0.046 0.17 0.070l1.677 1.069 0.513-0.271c0.263-0.139 0.537-0.253 0.811-0.341l0.532-0.17 0.456-1.825c0.027-0.115 0.069-0.199 0.1-0.242h0.929c-0.007 0.010 0.057 0.097 0.071 0.169l0.42 1.897 0.544 0.176c0.255 0.083 0.511 0.19 0.761 0.32l0.511 0.266 1.612-1.027c0.068-0.046 0.139-0.071 0.204-0.071l0.656 0.637c-0.009 0.052-0.036 0.138-0.091 0.225l-0.989 1.648 0.252 0.494c0.136 0.266 0.24 0.516 0.318 0.764l0.173 0.552 1.848 0.41c0.112 0.021 0.199 0.085 0.217 0.12l-0.009 0.887zM8.007 4.995c-1.66 0-3.011 1.348-3.011 3.005s1.351 3.005 3.011 3.005 3.011-1.348 3.011-3.005c0-1.657-1.351-3.005-3.011-3.005zM8 10c-1.103 0-2-0.897-2-2s0.897-2 2-2 2 0.897 2 2c0 1.103-0.897 2-2 2z"></path>
</svg>
