<!-- Generated by IcoMoon.io -->
<svg version="1.1" xmlns="http://www.w3.org/2000/svg" width="16" height="16" viewBox="0 0 16 16">
<title>info</title>
<path d="M8.878 12.435c-0.44 0.164-0.788 0.287-1.051 0.373-0.26 0.086-0.553 0.129-0.879 0.129-0.503 0-0.873-0.123-1.112-0.367s-0.33-0.553-0.271-0.93c0.024-0.146 0.059-0.297 0.101-0.448 0.047-0.152 0.106-0.325 0.182-0.516l0.807-1.829c0.074-0.176 0.137-0.342 0.194-0.499s0.095-0.299 0.115-0.431c0.037-0.233 0.016-0.394-0.067-0.487s-0.26-0.137-0.533-0.137c-0.135 0-0.277 0.021-0.424 0.062-0.146 0.045-0.274 0.082-0.381 0.122l0.226-0.566c0.362-0.137 0.703-0.255 1.027-0.354 0.326-0.098 0.627-0.146 0.902-0.146 0.498 0 0.863 0.119 1.095 0.361 0.231 0.239 0.316 0.552 0.256 0.936-0.011 0.079-0.043 0.221-0.094 0.421-0.051 0.198-0.113 0.384-0.19 0.55l-0.804 1.823c-0.064 0.146-0.127 0.313-0.192 0.502-0.063 0.187-0.101 0.33-0.117 0.425-0.038 0.243-0.009 0.408 0.087 0.495s0.276 0.133 0.545 0.133c0.127 0 0.273-0.024 0.438-0.067 0.168-0.046 0.29-0.084 0.364-0.117l-0.226 0.563zM10.438 4.215c-0.049 0.317-0.213 0.588-0.488 0.811-0.277 0.223-0.583 0.335-0.921 0.335-0.339 0-0.614-0.112-0.821-0.335-0.206-0.223-0.284-0.494-0.234-0.811s0.214-0.588 0.491-0.813c0.278-0.225 0.585-0.339 0.925-0.339 0.338 0 0.609 0.114 0.813 0.339 0.207 0.225 0.284 0.496 0.234 0.813zM8 1c3.86 0 7 3.14 7 7s-3.14 7-7 7-7-3.14-7-7 3.14-7 7-7M8 0c-4.418 0-8 3.582-8 8s3.582 8 8 8 8-3.582 8-8-3.582-8-8-8v0z"></path>
</svg>
