<!-- Generated by IcoMoon.io -->
<svg version="1.1" xmlns="http://www.w3.org/2000/svg" width="16" height="16" viewBox="0 0 16 16">
<title>menu</title>
<path d="M2 3.333h12c0.183 0 0.342 0.065 0.471 0.196s0.196 0.288 0.196 0.471-0.065 0.342-0.196 0.471-0.287 0.196-0.471 0.196h-12c-0.183 0-0.342-0.065-0.471-0.196s-0.196-0.287-0.196-0.471 0.065-0.342 0.196-0.471 0.287-0.196 0.471-0.196zM2 11.333h12c0.183 0 0.342 0.065 0.471 0.196s0.196 0.287 0.196 0.471-0.065 0.342-0.196 0.471-0.287 0.196-0.471 0.196h-12c-0.183 0-0.342-0.065-0.471-0.196s-0.196-0.287-0.196-0.471 0.065-0.342 0.196-0.471 0.287-0.196 0.471-0.196zM2 7.333h12c0.183 0 0.342 0.065 0.471 0.196s0.196 0.287 0.196 0.471-0.065 0.342-0.196 0.471-0.287 0.196-0.471 0.196h-12c-0.183 0-0.342-0.065-0.471-0.196s-0.196-0.287-0.196-0.471 0.065-0.342 0.196-0.471 0.287-0.196 0.471-0.196z"></path>
</svg>
