<!-- Generated by IcoMoon.io -->
<svg version="1.1" xmlns="http://www.w3.org/2000/svg" viewBox="0 0 16 16">
<title>search</title>
<path d="M6.667 0.667c0.813 0 1.59 0.158 2.331 0.477s1.379 0.744 1.915 1.279c0.535 0.535 0.96 1.173 1.279 1.915s0.475 1.517 0.475 2.329c0 0.698-0.115 1.367-0.342 2.004s-0.552 1.219-0.971 1.74l3.787 3.781c0.129 0.129 0.192 0.287 0.192 0.475 0 0.192-0.063 0.35-0.19 0.477s-0.285 0.19-0.477 0.19c-0.188 0-0.346-0.065-0.475-0.192l-3.779-3.787c-0.521 0.421-1.1 0.744-1.74 0.971s-1.308 0.342-2.006 0.342c-0.813 0-1.59-0.158-2.331-0.477s-1.379-0.744-1.915-1.279c-0.535-0.535-0.96-1.173-1.279-1.915s-0.475-1.517-0.475-2.329 0.158-1.59 0.477-2.331 0.744-1.379 1.279-1.915 1.173-0.96 1.915-1.279 1.517-0.475 2.329-0.475zM6.667 2c-0.631 0-1.235 0.123-1.813 0.371s-1.073 0.579-1.49 0.996-0.748 0.912-0.996 1.49-0.369 1.179-0.369 1.81 0.123 1.235 0.371 1.812 0.579 1.073 0.996 1.49 0.912 0.748 1.49 0.996 1.181 0.371 1.813 0.371 1.235-0.123 1.813-0.371 1.073-0.579 1.49-0.996 0.748-0.912 0.996-1.49 0.371-1.181 0.371-1.813-0.123-1.235-0.371-1.813-0.579-1.073-0.996-1.49-0.912-0.748-1.49-0.996-1.183-0.369-1.815-0.369z"></path>
</svg>
