<!-- Generated by IcoMoon.io -->
<svg version="1.1" xmlns="http://www.w3.org/2000/svg" viewBox="0 0 16 16">
<title>trash</title>
<path d="M12.004 2.007l-0.008-0.085c-0.042-1.067-0.914-1.922-1.992-1.922h-3c-1.078 0-1.95 0.933-1.992 2l-0.008 0.007h-3.004v0.993l0.918 0.001 0.875 11.428c0.049 0.866 0.645 1.571 1.411 1.571h6.66c0.766 0 1.229-0.705 1.278-1.571l0.963-11.428 0.887-0.001v-0.993h-2.989zM6.005 2c0-0.552 0.448-1 1-1h3c0.552 0 1 0.448 1 1v0.007h-5v-0.007zM12.29 14.158c-0.025 0.446-0.174 0.824-0.553 0.824h-6.406c-0.379 0-0.656-0.378-0.68-0.824l-0.838-11.157h9.4l-0.923 11.157z"></path>
<path d="M8.005 5h1v8h-1v-8z"></path>
<path d="M11.505 5h-1l-0.468 8h0.965z"></path>
<path d="M6.505 5h-1l0.502 8h0.965z"></path>
</svg>
