<!-- Generated by IcoMoon.io -->
<svg version="1.1" xmlns="http://www.w3.org/2000/svg" viewBox="0 0 16 16">
<title>warning</title>
<path d="M15.842 14.11l-6.715-13.315c-0.189-0.467-0.643-0.794-1.174-0.794-0.446 0-0.837 0.234-1.064 0.581-0.053 0.089-0.093 0.169-0.125 0.261l-6.561 13.191c-0.132 0.203-0.204 0.438-0.204 0.7 0 0.692 0.564 1.268 1.266 1.268h13.468c0.702 0 1.266-0.576 1.266-1.268 0-0.231-0.061-0.437-0.158-0.623M9.294 4l-0.36 7h-1.856l-0.353-7h2.569zM8.008 15h-0.016c-0.888 0-1.492-0.635-1.492-1.5 0-0.885 0.62-1.5 1.508-1.5 0.891 0 1.476 0.615 1.492 1.5 0 0.865-0.585 1.5-1.492 1.5"></path>
</svg>
