<?xml version="1.0" encoding="utf-8"?>
<!-- Generator: Adobe Illustrator 18.0.0, SVG Export Plug-In . SVG Version: 6.00 Build 0)  -->
<!DOCTYPE svg PUBLIC "-//W3C//DTD SVG 1.1 Tiny//EN" "http://www.w3.org/Graphics/SVG/1.1/DTD/svg11-tiny.dtd">
<svg version="1.1" baseProfile="tiny" id="Lag_1" xmlns="http://www.w3.org/2000/svg" xmlns:xlink="http://www.w3.org/1999/xlink"
	 x="0px" y="0px" viewBox="-41.5 676.5 32 32" xml:space="preserve">
<rect x="-41.5" y="676.5" fill="none" width="32" height="32"/>
<rect x="-41.5" y="676.5" fill="none" width="32" height="32"/>
<g>
	<path fill-rule="evenodd" d="M-25.5,676.5c-8.836,0-16,7.163-16,16c0,8.837,7.164,16,16,16c8.837,0,16-7.163,16-16
		C-9.5,683.663-16.663,676.5-25.5,676.5z M-25.5,706.531c-7.72,0-14-6.312-14-14.031c0-7.719,6.28-14,14-14s14,6.28,14,14
		C-11.5,700.219-17.78,706.531-25.5,706.531z M-18.5,691.5h-6v-6c0-0.552-0.448-1-1-1s-1,0.447-1,1v6h-6c-0.552,0-1,0.447-1,1
		c0,0.552,0.448,1,1,1h6v5.999c0,0.553,0.448,1,1,1s1-0.447,1-1V693.5h6c0.553,0,1-0.448,1-1C-17.5,691.947-17.947,691.5-18.5,691.5
		z"/>
</g>
</svg>
