<?xml version="1.0" encoding="utf-8"?>
<!-- Generator: Adobe Illustrator 18.0.0, SVG Export Plug-In . SVG Version: 6.00 Build 0)  -->
<!DOCTYPE svg PUBLIC "-//W3C//DTD SVG 1.1 Tiny//EN" "http://www.w3.org/Graphics/SVG/1.1/DTD/svg11-tiny.dtd">
<svg version="1.1" baseProfile="tiny" id="Lag_1" xmlns="http://www.w3.org/2000/svg" xmlns:xlink="http://www.w3.org/1999/xlink"
	 x="0px" y="0px" viewBox="-41.5 676.5 32 32" xml:space="preserve">
<rect x="-41.5" y="676.5" fill="none" width="32" height="32"/>
<rect x="-41.5" y="676.5" fill="none" width="32" height="32"/>
<g>
</g>
<g>
</g>
<path d="M-17.5,686.5l-16,0c-1.104,0-2,0.896-2,2v4c0,1.104,0.896,2,2,2h16c1.104,0,2-0.896,2-2v-4
	C-15.5,687.395-16.395,686.5-17.5,686.5z M-17.5,692.5h-16v-4l16,0V692.5z"/>
<g>
</g>
<path d="M-17.5,696.5l-16,0c-1.104,0-2,0.896-2,2v4c0,1.104,0.896,2,2,2h16c1.104,0,2-0.896,2-2v-4
	C-15.5,697.396-16.395,696.5-17.5,696.5z M-17.5,702.5h-16v-4l16,0V702.5z"/>
<g>
</g>
<path d="M-18.25,676.5l-14.5,0c-0.75,0-1.125,0.042-1.75,1l-5,6.5v22.5c0,1.104,0.896,2,2,2h24c1.104,0,2-0.896,2-2V684l-5-6.5
	C-17.166,676.542-17.5,676.5-18.25,676.5z M-13.5,706.5h-24v-22l4.5-6l15,0l4.5,6V706.5z"/>
</svg>
