<?xml version="1.0" encoding="utf-8"?>
<!-- Generator: Adobe Illustrator 19.1.0, SVG Export Plug-In . SVG Version: 6.00 Build 0)  -->
<!DOCTYPE svg PUBLIC "-//W3C//DTD SVG 1.1//EN" "http://www.w3.org/Graphics/SVG/1.1/DTD/svg11.dtd">
<svg version="1.1" id="Lag_1" xmlns="http://www.w3.org/2000/svg" xmlns:xlink="http://www.w3.org/1999/xlink" x="0px" y="0px"
	 viewBox="-281 404.8900146 32 32" style="enable-background:new -281 404.8900146 32 32;" xml:space="preserve">
<style type="text/css">
	.st0{fill:none;}
</style>
<rect x="-281" y="404.8900146" class="st0" width="32" height="32"/>
<rect x="-281" y="404.8900146" class="st0" width="32" height="32"/>
<g>
	<rect x="-273" y="416.8900146" width="16" height="4"/>
	<rect x="-273" y="426.8900146" width="16" height="4"/>
	<path d="M-256,405.8900146c-0.6660156-0.9580078-1-1-1.75-1h-14.5c-0.75,0-1.125,0.0419922-1.75,1l-5,6.5v22.5
		c0,1.1040039,0.8959961,2,2,2h24c1.1040039,0,2-0.8959961,2-2v-22.5L-256,405.8900146z M-255,430.8900146
		c0,1.1040039-0.8959961,2-2,2h-16c-1.1040039,0-2-0.8959961-2-2v-4c0-1.1040039,0.8959961-2,2-2h16c1.1049805,0,2,0.8959961,2,2
		V430.8900146z M-255,420.8900146c0,1.1040039-0.8959961,2-2,2h-16c-1.1040039,0-2-0.8959961-2-2v-4c0-1.1040039,0.8959961-2,2-2h16
		c1.1049805,0,2,0.8950195,2,2V420.8900146z"/>
</g>
</svg>
