<?xml version="1.0" encoding="utf-8"?>
<!-- Generator: Adobe Illustrator 14.0.0, SVG Export Plug-In  -->
<!DOCTYPE svg PUBLIC "-//W3C//DTD SVG 1.1 Tiny//EN" "http://www.w3.org/Graphics/SVG/1.1/DTD/svg11-tiny.dtd" [
	<!ENTITY ns_flows "http://ns.adobe.com/Flows/1.0/">
]>
<svg version="1.1" baseProfile="tiny"
	 xmlns="http://www.w3.org/2000/svg" xmlns:xlink="http://www.w3.org/1999/xlink" xmlns:a="http://ns.adobe.com/AdobeSVGViewerExtensions/3.0/"
	 x="0px" y="0px" width="32px" height="32px" viewBox="0 0 32 32" xml:space="preserve">
<defs>
</defs>
<rect fill="none" width="32" height="32"/>
<path d="M20.0712891,31.2392578L6.668457,17.859375C6.1630859,17.3525391,5.9086914,16.734375,5.9086914,16
	s0.2543945-1.3515625,0.7597656-1.8618164l13.402832-13.3803711C20.578125,0.2524414,21.1982422,0,21.9287109,0
	c0.734375,0,1.3544922,0.2524414,1.8613281,0.7578125l1.5429688,1.5444336
	c0.5039062,0.5058594,0.7587891,1.1274414,0.7587891,1.8583984c0,0.734375-0.2548828,1.3549805-0.7587891,1.8618164
	L15.34375,16.0087891l9.9892578,9.9707031c0.5039062,0.5205078,0.7587891,1.1435547,0.7587891,1.8691406
	c0,0.7275391-0.2548828,1.34375-0.7587891,1.8496094l-1.5429688,1.5410156C23.2832031,31.7451172,22.6630859,32,21.9287109,32
	C21.1982422,32,20.578125,31.7451172,20.0712891,31.2392578z"/>
</svg>
