<?xml version="1.0" encoding="utf-8"?>
<!-- Generator: Adobe Illustrator 14.0.0, SVG Export Plug-In  -->
<!DOCTYPE svg PUBLIC "-//W3C//DTD SVG 1.1 Tiny//EN" "http://www.w3.org/Graphics/SVG/1.1/DTD/svg11-tiny.dtd" [
	<!ENTITY ns_flows "http://ns.adobe.com/Flows/1.0/">
]>
<svg version="1.1" baseProfile="tiny"
	 xmlns="http://www.w3.org/2000/svg" xmlns:xlink="http://www.w3.org/1999/xlink" xmlns:a="http://ns.adobe.com/AdobeSVGViewerExtensions/3.0/"
	 x="0px" y="0px" width="32px" height="32px" viewBox="0 0 32 32" xml:space="preserve">
<defs>
</defs>
<rect fill="none" width="32" height="32"/>
<path d="M10.0703125,32c-0.7333984,0-1.3540039-0.2548828-1.859375-0.7607422l-1.5444336-1.5410156
	c-0.503418-0.5058594-0.7578125-1.1220703-0.7578125-1.8496094c0-0.7255859,0.2543945-1.3486328,0.7578125-1.8691406
	l9.9897461-9.9707031L6.6665039,6.0224609C6.1630859,5.515625,5.9086914,4.8950195,5.9086914,4.1606445
	c0-0.730957,0.2543945-1.3525391,0.7578125-1.8583984l1.5444336-1.5444336C8.7163086,0.2524414,9.3369141,0,10.0703125,0
	c0.7319336,0,1.3525391,0.2524414,1.859375,0.7578125l13.4003906,13.3803711
	C25.8369141,14.6484375,26.0917969,15.265625,26.0917969,16s-0.2548828,1.3525391-0.7617188,1.859375L11.9296875,31.2392578
	C11.4228516,31.7451172,10.8022461,32,10.0703125,32z"/>
</svg>
