<?xml version="1.0" encoding="utf-8"?>
<!-- Generator: Adobe Illustrator 15.0.2, SVG Export Plug-In  -->
<!DOCTYPE svg PUBLIC "-//W3C//DTD SVG 1.1 Tiny//EN" "http://www.w3.org/Graphics/SVG/1.1/DTD/svg11-tiny.dtd" [
	<!ENTITY ns_flows "http://ns.adobe.com/Flows/1.0/">
]>
<svg version="1.1" baseProfile="tiny"
	 xmlns="http://www.w3.org/2000/svg" xmlns:xlink="http://www.w3.org/1999/xlink" xmlns:a="http://ns.adobe.com/AdobeSVGViewerExtensions/3.0/"
	 x="0px" y="0px" width="32px" height="32px" viewBox="0 0 32 32" overflow="visible" xml:space="preserve">
<defs>
</defs>
<rect fill="none" width="32" height="32"/>
<rect fill="none" width="32" height="32"/>
<path d="M31.1445312,13.737793c0,2.5712891-0.6679688,5.0483398-1.7626953,6.9047852
	c-1.4765625,2.3330078-3.5703125,3.5234375-6.1914062,3.5234375c-1.0458984,0-1.9980469-0.2851562-2.6660156-0.8085938
	c-0.4755859-0.3339844-0.9052734-0.8095703-1.1425781-1.3818359c-1.0009766,1.2851562-2.6191406,2.0957031-4.3334961,2.0957031
	c-1.9536133,0-3.6196289-0.7138672-4.6674805-2.1904297C9.3330078,20.546875,8.8100586,18.6904297,8.8100586,16.5
	c0-2.190918,0.6181641-4.1914062,1.8564453-5.6196289c1.2856445-1.5712891,3.1435547-2.4287109,5.3828125-2.4287109
	c1.3334961,0,2.5717773,0.5722656,3.4272461,1.4282227l0.2871094-0.9995117h3.2373047l-0.6660156,9.8569336
	c-0.0478516,0.8095703,0.0478516,1.3818359,0.3330078,1.6669922c0.1425781,0.1904297,0.3798828,0.2851562,0.7626953,0.2851562
	c2.9042969,0,3.9042969-4.6665039,3.9042969-6.9516602c0-2.7626953-0.9052734-5.0483398-2.5712891-6.7143555
	c-1.9052734-1.9521484-4.6191406-2.9052734-7.9536133-2.9052734c-3.1904297,0-6,1.0004883-8.1435547,2.9052734
	c-2.4760742,2.2382812-3.8569336,5.4287109-3.8569336,9.3339844c0,3.2841797,1.1904297,6.2861328,3.237793,8.4277344
	c2.0009766,2,4.6669922,3.0957031,7.8100586,3.0957031c3.6191406,0,6.3828125-0.5234375,9.1914062-1.7607422l0.5703125-0.2871094
	V29.5l-0.2373047,0.0957031C22.7626953,30.8808594,19.6689453,31.5,15.8100586,31.5
	c-4.0957031,0-7.6201172-1.2382812-10.2387695-3.6669922c-3.0952148-2.8085938-4.7148438-7-4.7148438-11.7617188
	c0-4.5234375,1.5244141-8.3813477,4.4296875-11.1914062c1.4282227-1.3808594,3.1425781-2.4760742,5.0473633-3.1904297
	C12.3330078,0.8803711,14.4765625,0.5,16.7626953,0.5c4.3339844,0,8.1914062,1.4282227,10.8095703,4.046875
	c1.1435547,1.0957031,2.0488281,2.4287109,2.6191406,3.9047852C30.8115234,10.0234375,31.1445312,11.7856445,31.1445312,13.737793z
	 M18.1914062,19.0244141c0.5244141-0.953125,0.6669922-2.3339844,0.6669922-3.2392578
	c0-1.1904297-0.2373047-2.1425781-0.6201172-2.809082c-0.5224609-0.7626953-1.2856445-1.0957031-2.2856445-1.0957031
	c-1.0947266,0-1.9047852,0.4755859-2.4287109,1.4760742C13.0473633,14.1665039,12.8095703,15.3574219,12.8095703,16.5
	c0,1.2382812,0.2851562,4.046875,2.7617188,4.046875C16.715332,20.546875,17.6201172,20.0244141,18.1914062,19.0244141z"/>
</svg>
