<?xml version="1.0" encoding="utf-8"?>
<!-- Generator: Adobe Illustrator 15.0.2, SVG Export Plug-In  -->
<!DOCTYPE svg PUBLIC "-//W3C//DTD SVG 1.1 Tiny//EN" "http://www.w3.org/Graphics/SVG/1.1/DTD/svg11-tiny.dtd" [
	<!ENTITY ns_flows "http://ns.adobe.com/Flows/1.0/">
]>
<svg version="1.1" baseProfile="tiny"
	 xmlns="http://www.w3.org/2000/svg" xmlns:xlink="http://www.w3.org/1999/xlink" xmlns:a="http://ns.adobe.com/AdobeSVGViewerExtensions/3.0/"
	 x="0px" y="0px" width="32px" height="32px" viewBox="0 0 32 32" overflow="visible" xml:space="preserve">
<defs>
</defs>
<rect fill="none" width="32" height="32"/>
<path d="M16,5C12.1816406,2.7998047,6,3,6,3v20c0,0,6.1816406,0.7998047,10,3V5z"/>
<path d="M18,5c3.8193359-2.2001953,10-2,10-2v20c0,0-6.1806641,0.7998047-10,3V5z"/>
<polygon points="30,4 30,25 18,28 16,28 4,25 4,4 2,4 2,24.5332031 2,27 16,30 18,30 32,27 32,24.5332031 32,4 "/>
</svg>
