<?xml version="1.0" encoding="utf-8"?>
<!-- Generator: Adobe Illustrator 18.0.0, SVG Export Plug-In . SVG Version: 6.00 Build 0)  -->
<!DOCTYPE svg PUBLIC "-//W3C//DTD SVG 1.1 Tiny//EN" "http://www.w3.org/Graphics/SVG/1.1/DTD/svg11-tiny.dtd">
<svg version="1.1" baseProfile="tiny" id="Lag_1" xmlns="http://www.w3.org/2000/svg" xmlns:xlink="http://www.w3.org/1999/xlink"
	 x="0px" y="0px" viewBox="-41.5 676.5 32 32" xml:space="preserve">
<rect x="-41.5" y="676.5" fill="none" width="32" height="32"/>
<rect x="-41.5" y="676.5" fill="none" width="32" height="32"/>
<path d="M-25.5,680.5c7.72,0,14,4.486,14,10c0,5.514-6.28,10-14,10l-0.473,0.002l-0.355,0.001c-0.549,0-0.909-0.015-1.471-0.099
	l-1.121-0.16l-0.719,0.87c-0.331,0.399-2.017,1.785-3.878,2.677c0.378-1.001,0.658-2.094,0.683-3.175l0.01-0.06v-0.171v-1.224
	l-1.089-0.557c-3.549-1.816-5.585-4.77-5.585-8.105C-39.5,684.986-33.22,680.5-25.5,680.5 M-25.5,678.5c-8.837,0-16,5.373-16,12
	c0,4.127,2.445,7.724,6.674,9.886c0,0.025-0.008,0.044-0.008,0.072c0,1.793-1.005,3.765-1.594,4.779h0.001
	c-0.047,0.109-0.074,0.228-0.074,0.356c0,0.503,0.405,0.906,0.906,0.906c0.076,0,0.195-0.016,0.24-0.016c0.01,0,0.017,0,0.016,0.003
	c3.125-0.511,6.561-3.271,7.245-4.104c0.703,0.104,1.177,0.12,1.765,0.12c0.247,0,0.515-0.003,0.829-0.003c8.836,0,16-5.372,16-12
	C-9.5,683.873-16.664,678.5-25.5,678.5L-25.5,678.5z"/>
</svg>
