<?xml version="1.0" encoding="utf-8"?>
<!-- Generator: Adobe Illustrator 15.0.2, SVG Export Plug-In  -->
<!DOCTYPE svg PUBLIC "-//W3C//DTD SVG 1.1 Tiny//EN" "http://www.w3.org/Graphics/SVG/1.1/DTD/svg11-tiny.dtd" [
	<!ENTITY ns_flows "http://ns.adobe.com/Flows/1.0/">
]>
<svg version="1.1" baseProfile="tiny"
	 xmlns="http://www.w3.org/2000/svg" xmlns:xlink="http://www.w3.org/1999/xlink" xmlns:a="http://ns.adobe.com/AdobeSVGViewerExtensions/3.0/"
	 x="0px" y="0px" width="32px" height="32px" viewBox="0 0 32 32" overflow="visible" xml:space="preserve">
<defs>
</defs>
<rect fill="none" width="32" height="32"/>
<path d="M10,17c0,3.3134766,2.6865234,6,6,6s6-2.6865234,6-6s-2.6865234-6-6-6S10,13.6865234,10,17z M30,6h-7c-0.5-2-1-4-3-4h-8
	c-2,0-2.5,2-3,4H2C0.9003906,6,0,6.9003906,0,8v18c0,1.0996094,0.9003906,2,2,2h28c1.0996094,0,2-0.9003906,2-2V8
	C32,6.9003906,31.0996094,6,30,6z M16,25.875c-4.9013672,0-8.875-3.9726562-8.875-8.875S11.0986328,8.125,16,8.125
	c4.9023438,0,8.875,3.9726562,8.875,8.875S20.9023438,25.875,16,25.875z M30,12h-4v-2h4V12z"/>
</svg>
