<?xml version="1.0" encoding="utf-8"?>
<!-- Generator: Adobe Illustrator 18.0.0, SVG Export Plug-In . SVG Version: 6.00 Build 0)  -->
<!DOCTYPE svg PUBLIC "-//W3C//DTD SVG 1.1//EN" "http://www.w3.org/Graphics/SVG/1.1/DTD/svg11.dtd">
<svg version="1.1" id="Lag_1" xmlns="http://www.w3.org/2000/svg" xmlns:xlink="http://www.w3.org/1999/xlink" x="0px" y="0px"
	 viewBox="-41.5 676.5 32 32" enable-background="new -41.5 676.5 32 32" xml:space="preserve">
<rect x="-41.5" y="676.5" fill="none" width="32" height="32"/>
<rect x="-41.5" y="676.5" fill="none" width="32" height="32"/>
<path d="M-10.293,706.293L-24.086,692.5l13.791-13.792c0.391-0.391,0.391-1.023,0-1.414s-1.023-0.391-1.414,0L-25.5,691.086
	l-13.793-13.793c-0.391-0.391-1.023-0.391-1.414,0s-0.391,1.023,0,1.414l13.793,13.793l-13.793,13.793
	c-0.391,0.391-0.391,1.023,0,1.414C-40.511,707.902-40.256,708-40,708s0.512-0.098,0.707-0.293l13.793-13.793l13.793,13.793
	C-11.511,707.902-11.256,708-11,708s0.512-0.098,0.707-0.293C-9.902,707.316-9.902,706.684-10.293,706.293z"/>
</svg>
