<?xml version="1.0" encoding="utf-8"?>
<!-- Generator: Adobe Illustrator 16.2.1, SVG Export Plug-In . SVG Version: 6.00 Build 0)  -->
<!DOCTYPE svg PUBLIC "-//W3C//DTD SVG 1.1//EN" "http://www.w3.org/Graphics/SVG/1.1/DTD/svg11.dtd">
<svg version="1.1" id="Lag_1" xmlns="http://www.w3.org/2000/svg" xmlns:xlink="http://www.w3.org/1999/xlink" x="0px" y="0px"
	 width="32px" height="32px" viewBox="-41.4997559 676.5 32 32" enable-background="new -41.4997559 676.5 32 32"
	 xml:space="preserve">
<g>
	<g>
		<g>
			<defs>
				<rect id="SVGID_1_" x="-41.4997559" y="676.5" width="32" height="32"/>
			</defs>
			<clipPath id="SVGID_2_">
				<use xlink:href="#SVGID_1_"  overflow="visible"/>
			</clipPath>
			<g clip-path="url(#SVGID_2_)">
				<defs>
					<rect id="SVGID_3_" x="-41.4997559" y="676.5" width="32" height="32"/>
				</defs>
				<clipPath id="SVGID_4_">
					<use xlink:href="#SVGID_3_"  overflow="visible"/>
				</clipPath>
			</g>
			<g clip-path="url(#SVGID_2_)">
				<g>
					<path d="M-25.4997559,676.5c-8.8374023,0-16,7.1650391-16,16c0,8.8378906,7.1625977,16,16,16s16-7.1621094,16-16
						C-9.4997559,683.6650391-16.6623535,676.5-25.4997559,676.5z M-15.6779785,698.4658203l-3.855957,3.8525391
						l-5.9658203-5.9658203l-5.9619141,5.9658203l-3.8574219-3.8525391L-29.3562012,692.5l-5.9628906-5.9638672l3.8574219-3.8535156
						l5.9619141,5.9638672l5.9658203-5.9638672l3.855957,3.8535156L-21.6437988,692.5L-15.6779785,698.4658203z"/>
				</g>
			</g>
		</g>
	</g>
</g>
</svg>
