<?xml version="1.0" encoding="utf-8"?>
<!-- Generator: Adobe Illustrator 18.0.0, SVG Export Plug-In . SVG Version: 6.00 Build 0)  -->
<!DOCTYPE svg PUBLIC "-//W3C//DTD SVG 1.1//EN" "http://www.w3.org/Graphics/SVG/1.1/DTD/svg11.dtd">
<svg version="1.1" id="Lag_1" xmlns="http://www.w3.org/2000/svg" xmlns:xlink="http://www.w3.org/1999/xlink" x="0px" y="0px"
	 viewBox="-41.5 676.5 32 32" enable-background="new -41.5 676.5 32 32" xml:space="preserve">
<rect x="-41.5" y="676.5" fill="none" width="32" height="32"/>
<rect x="-41.5" y="676.5" fill="none" width="32" height="32"/>
<g>
	<g>
		<path fill-rule="evenodd" clip-rule="evenodd" d="M-25.5,676.5c-8.836,0-16,7.163-16,16c0,8.837,7.164,16,16,16s16-7.163,16-16
			C-9.5,683.663-16.663,676.5-25.5,676.5z M-25.5,678.5c3.506,0,6.702,1.298,9.158,3.427l-19.732,19.732
			c-2.129-2.456-3.427-5.652-3.427-9.158C-39.5,684.768-33.232,678.5-25.5,678.5z M-25.5,706.5c-3.506,0-6.703-1.298-9.159-3.427
			l19.732-19.732c2.13,2.456,3.428,5.653,3.428,9.159C-11.5,700.232-17.768,706.5-25.5,706.5z"/>
	</g>
</g>
</svg>
