<?xml version="1.0" encoding="utf-8"?>
<!-- Generator: Adobe Illustrator 16.2.1, SVG Export Plug-In . SVG Version: 6.00 Build 0)  -->
<!DOCTYPE svg PUBLIC "-//W3C//DTD SVG 1.1 Tiny//EN" "http://www.w3.org/Graphics/SVG/1.1/DTD/svg11-tiny.dtd">
<svg version="1.1" baseProfile="tiny" id="Lag_1" xmlns="http://www.w3.org/2000/svg" xmlns:xlink="http://www.w3.org/1999/xlink"
	 x="0px" y="0px" width="32px" height="32px" viewBox="-41.4997559 676.5 32 32" xml:space="preserve">
<rect x="-41.4997559" y="676.5" fill="none" width="32" height="32"/>
<path d="M-25.4997559,677.5c-8.2841797,0-15,6.7148438-15,14.9980469c0,8.2871094,6.7158203,15.0019531,15,15.0019531
	c8.2851562,0,15-6.7148438,15-15.0019531C-10.4997559,684.2148438-17.2145996,677.5-25.4997559,677.5z M-15.4108887,692.4980469
	c0,1.8710938-0.5166016,3.6171875-1.4033203,5.1171875l-13.8027344-13.8007812
	c1.5009766-0.8867188,3.2470703-1.4042969,5.1171875-1.4042969
	C-19.9265137,682.4101562-15.4108887,686.9277344-15.4108887,692.4980469z M-35.588623,692.4980469
	c0-1.8691406,0.5166016-3.6152344,1.4042969-5.1171875l13.8037109,13.8027344
	c-1.5029297,0.8867188-3.2480469,1.4042969-5.1191406,1.4042969
	C-31.072998,702.5878906-35.588623,698.0722656-35.588623,692.4980469z"/>
</svg>
