<?xml version="1.0" encoding="utf-8"?>
<!-- Generator: Adobe Illustrator 15.0.2, SVG Export Plug-In  -->
<!DOCTYPE svg PUBLIC "-//W3C//DTD SVG 1.1 Tiny//EN" "http://www.w3.org/Graphics/SVG/1.1/DTD/svg11-tiny.dtd" [
	<!ENTITY ns_flows "http://ns.adobe.com/Flows/1.0/">
]>
<svg version="1.1" baseProfile="tiny"
	 xmlns="http://www.w3.org/2000/svg" xmlns:xlink="http://www.w3.org/1999/xlink" xmlns:a="http://ns.adobe.com/AdobeSVGViewerExtensions/3.0/"
	 x="0px" y="0px" width="32px" height="32px" viewBox="0 0 32 32" overflow="visible" xml:space="preserve">
<defs>
</defs>
<polygon fill="none" points="32,32 0,32 0,0 32,0 32,0 "/>
<path d="M28.7167969,10.7871094c-0.1162109,0.1123047-0.2666016,0.1689453-0.4160156,0.1689453
	c-0.1445312,0-0.2949219-0.0566406-0.4091797-0.1689453l-2.6748047-2.6787109c-0.2314453-0.2275391-0.2314453-0.5976562,0-0.8242188
	c0.2275391-0.2294922,0.5996094-0.2275391,0.8242188,0.0019531L28.71875,9.9609375
	C28.9453125,10.1923828,28.9433594,10.5585938,28.7167969,10.7871094z M25.4873047,11.5410156
	c-0.1103516,0.1162109-0.2607422,0.1708984-0.4091797,0.1708984c-0.1513672,0-0.2998047-0.0546875-0.4160156-0.1708984
	l-1.4414062-1.4384766c-0.2304688-0.2314453-0.2304688-0.5957031,0-0.8271484c0.2255859-0.2265625,0.5957031-0.2265625,0.8232422,0
	l1.4414062,1.4394531C25.7158203,10.9462891,25.7177734,11.3164062,25.4873047,11.5410156z M26,26H15l11-11V26z
	 M13.5317383,23.4941406c-0.1132812,0.1152344-0.2602539,0.171875-0.4111328,0.171875
	c-0.1469727,0-0.2978516-0.0566406-0.4111328-0.171875l-1.4404297-1.4414062c-0.2294922-0.2275391-0.2294922-0.5976562,0-0.8251953
	c0.2280273-0.2265625,0.5961914-0.2246094,0.8232422,0.0019531l1.4394531,1.4433594
	C13.7607422,22.8984375,13.7607422,23.2685547,13.5317383,23.4941406z M11.5419922,25.4853516
	c-0.1132812,0.1171875-0.2651367,0.1748047-0.4121094,0.1748047c-0.1499023,0-0.2988281-0.0576172-0.4121094-0.1728516
	l-1.4433594-1.4414062c-0.2294922-0.2275391-0.2294922-0.5957031,0-0.8203125
	c0.2290039-0.2314453,0.5961914-0.2333984,0.8261719-0.0019531l1.4414062,1.4433594
	C11.7709961,24.8896484,11.7709961,25.2597656,11.5419922,25.4853516z M10.7851562,28.7128906
	c-0.1147461,0.1171875-0.2631836,0.1738281-0.4140625,0.1738281c-0.1469727,0-0.2958984-0.0566406-0.409668-0.1679688
	L7.284668,26.0419922c-0.2294922-0.2275391-0.2294922-0.5957031,0-0.8232422c0.2280273-0.2304688,0.5952148-0.2304688,0.8222656,0
	l2.6782227,2.6738281C11.0112305,28.1171875,11.0112305,28.4853516,10.7851562,28.7128906z M13.2597656,19.2382812
	c0.2280273-0.2275391,0.5952148-0.2275391,0.8242188,0l2.6772461,2.6767578c0.2275391,0.2275391,0.2275391,0.5976562,0,0.8242188
	c-0.1137695,0.1162109-0.262207,0.1748047-0.4091797,0.1748047c-0.1518555,0-0.3017578-0.0585938-0.4174805-0.1748047
	l-2.6748047-2.6748047C13.0302734,19.8330078,13.0302734,19.4628906,13.2597656,19.2382812z M15.253418,17.2421875
	c0.2270508-0.2246094,0.5961914-0.2226562,0.8232422,0.0019531l1.4389648,1.4453125
	c0.2304688,0.2275391,0.2304688,0.5957031,0,0.8232422c-0.1113281,0.1152344-0.2597656,0.1699219-0.4121094,0.1699219
	c-0.1479492,0-0.2973633-0.0546875-0.4106445-0.1699219l-1.4394531-1.4433594
	C15.0239258,17.8378906,15.0239258,17.4736328,15.253418,17.2421875z M17.2421875,15.2529297
	c0.2304688-0.2294922,0.5976562-0.2294922,0.8261719,0l1.4414062,1.4433594
	c0.2275391,0.2265625,0.2255859,0.5947266-0.0019531,0.8222656c-0.1152344,0.1152344-0.2607422,0.1748047-0.4091797,0.1748047
	c-0.1503906,0-0.2998047-0.0595703-0.4111328-0.1748047l-1.4453125-1.4414062
	C17.0136719,15.8496094,17.0136719,15.4794922,17.2421875,15.2529297z M19.2353516,13.2626953
	c0.2314453-0.2265625,0.5976562-0.2265625,0.8271484,0l2.6767578,2.6777344
	c0.2314453,0.2265625,0.2314453,0.5966797,0.0019531,0.8203125c-0.1113281,0.1152344-0.2646484,0.171875-0.4150391,0.171875
	c-0.1513672,0-0.2958984-0.0546875-0.4091797-0.1679688l-2.6816406-2.6787109
	C19.0087891,13.8583984,19.0087891,13.4882812,19.2353516,13.2626953z M21.2275391,11.2675781
	c0.2294922-0.2255859,0.5957031-0.2255859,0.8242188,0l1.4453125,1.4414062
	c0.2275391,0.2246094,0.2294922,0.5947266,0.0019531,0.8261719c-0.1152344,0.109375-0.2685547,0.1679688-0.4169922,0.1679688
	c-0.1464844,0-0.2958984-0.0585938-0.4091797-0.1679688l-1.4453125-1.4453125C21,11.8642578,21,11.4941406,21.2275391,11.2675781z
	 M30,0L0,30l0.0004883,2H32V0H30z"/>
</svg>
