<?xml version="1.0" encoding="utf-8"?>
<!-- Generator: Adobe Illustrator 19.1.0, SVG Export Plug-In . SVG Version: 6.00 Build 0)  -->
<!DOCTYPE svg PUBLIC "-//W3C//DTD SVG 1.1//EN" "http://www.w3.org/Graphics/SVG/1.1/DTD/svg11.dtd">
<svg version="1.1" id="Lag_1" xmlns="http://www.w3.org/2000/svg" xmlns:xlink="http://www.w3.org/1999/xlink" x="0px" y="0px"
	 viewBox="-281 404.8900146 32 32" style="enable-background:new -281 404.8900146 32 32;" xml:space="preserve">
<style type="text/css">
	.st0{fill:none;}
</style>
<polyline class="st0" points="-249,436.8900146 -281,436.8900146 -281,404.8900146 "/>
<polyline class="st0" points="-249,436.8900146 -281,436.8900146 -281,404.8900146 "/>
<path d="M-270,406.8900146c0-1.1040039,0.8959961-2,2-2h9v10h10v16c0,1.1040039-0.8959961,2-2,2h-8v-16.5l-9.5-9.5"/>
<polygon points="-250,412.8900146 -257,405.8900146 -257,412.8900146 "/>
<path d="M-261,434.8900146c0,1.1040039-0.8959961,2-2,2h-16c-1.1040039,0-2-0.8959961-2-2v-24c0-1.1040039,0.894989-2,2-2h8v10h10
	V434.8900146z"/>
<polygon points="-269,416.8900146 -262,416.8900146 -269,409.8900146 "/>
</svg>
