<?xml version="1.0" encoding="utf-8"?>
<!-- Generator: Adobe Illustrator 18.0.0, SVG Export Plug-In . SVG Version: 6.00 Build 0)  -->
<!DOCTYPE svg PUBLIC "-//W3C//DTD SVG 1.1 Tiny//EN" "http://www.w3.org/Graphics/SVG/1.1/DTD/svg11-tiny.dtd">
<svg version="1.1" baseProfile="tiny" id="Lag_1" xmlns="http://www.w3.org/2000/svg" xmlns:xlink="http://www.w3.org/1999/xlink"
	 x="0px" y="0px" viewBox="-41.5 676.5 32 32" xml:space="preserve">
<rect x="-41.5" y="676.5" fill="none" width="32" height="32"/>
<rect x="-41.5" y="676.5" fill="none" width="32" height="32"/>
<g>
	<path d="M-17.5,676.5h-11c-1.104,0-2,0.896-2,2h11v8h8v16h-8v2h8c1.104,0,2-0.896,2-2v-18L-17.5,676.5z M-17.5,684.5v-5.172
		l5.171,5.172H-17.5z M-39.5,680.5c-1.105,0-2,0.896-2,2v24c0,1.104,0.896,2,2,2h16c1.104,0,2-0.896,2-2v-18l-8-8H-39.5z
		 M-23.5,706.5h-16v-24h8v8h8V706.5z M-29.5,688.5v-5.172l5.171,5.172H-29.5z"/>
</g>
</svg>
