<?xml version="1.0" encoding="utf-8"?>
<!-- Generator: Adobe Illustrator 14.0.0, SVG Export Plug-In  -->
<!DOCTYPE svg PUBLIC "-//W3C//DTD SVG 1.1 Tiny//EN" "http://www.w3.org/Graphics/SVG/1.1/DTD/svg11-tiny.dtd" [
	<!ENTITY ns_flows "http://ns.adobe.com/Flows/1.0/">
]>
<svg version="1.1" baseProfile="tiny"
	 xmlns="http://www.w3.org/2000/svg" xmlns:xlink="http://www.w3.org/1999/xlink" xmlns:a="http://ns.adobe.com/AdobeSVGViewerExtensions/3.0/"
	 x="0px" y="0px" width="32px" height="32px" viewBox="0 0 32 32" xml:space="preserve">
<defs>
</defs>
<rect fill="none" width="32" height="32"/>
<path d="M31.3857422,17.2294922c0.1796875,0,0.3261719,0.0566406,0.4433594,0.1738281
	C31.9433594,17.5185547,32,17.6660156,32,17.8447266v11.078125c0,0.1796875-0.0566406,0.3251953-0.1708984,0.4423828
	c-0.1171875,0.1132812-0.2636719,0.1748047-0.4433594,0.1748047H0.6157227c-0.1796875,0-0.3266602-0.0615234-0.4433594-0.1748047
	C0.0571289,29.2480469,0,29.1025391,0,28.9228516v-11.078125c0-0.1787109,0.0571289-0.3261719,0.1723633-0.4414062
	c0.1166992-0.1171875,0.2636719-0.1738281,0.4433594-0.1738281h3.6918945c0.1796875,0,0.328125,0.0566406,0.4433594,0.1738281
	c0.1152344,0.1152344,0.1708984,0.2626953,0.1708984,0.4414062v6.7705078h22.15625v-6.7705078
	c0-0.1787109,0.0566406-0.3261719,0.1738281-0.4414062c0.1142578-0.1171875,0.2607422-0.1738281,0.4404297-0.1738281H31.3857422z
	 M25.7509766,13.0561523c0.2167969,0.5263672,0.1269531,0.9746094-0.2685547,1.3466797l-8.6157227,8.6137695
	C16.6337891,23.2636719,16.3481445,23.3867188,16,23.3867188c-0.3447266,0-0.6337891-0.1230469-0.8637695-0.3701172
	L6.5209961,14.402832c-0.3984375-0.3720703-0.4882812-0.8203125-0.2695312-1.3466797
	c0.2158203-0.4995117,0.5942383-0.7504883,1.1328125-0.7504883h4.925293V3.6899414
	c0-0.3320312,0.1201172-0.6206055,0.3642578-0.8647461c0.2436523-0.2421875,0.5297852-0.3647461,0.8637695-0.3647461h4.925293
	c0.3330078,0,0.6220703,0.1225586,0.8632812,0.3647461c0.2431641,0.2441406,0.3671875,0.5327148,0.3671875,0.8647461v8.6157227
	h4.921875C25.1542969,12.3056641,25.5322266,12.5566406,25.7509766,13.0561523z"/>
</svg>
