<?xml version="1.0" encoding="utf-8"?>
<!-- Generator: Adobe Illustrator 15.0.2, SVG Export Plug-In  -->
<!DOCTYPE svg PUBLIC "-//W3C//DTD SVG 1.1 Tiny//EN" "http://www.w3.org/Graphics/SVG/1.1/DTD/svg11-tiny.dtd" [
	<!ENTITY ns_flows "http://ns.adobe.com/Flows/1.0/">
]>
<svg version="1.1" baseProfile="tiny"
	 xmlns="http://www.w3.org/2000/svg" xmlns:xlink="http://www.w3.org/1999/xlink" xmlns:a="http://ns.adobe.com/AdobeSVGViewerExtensions/3.0/"
	 x="0px" y="0px" width="512px" height="512px" viewBox="0.5 0.5 512 512" overflow="visible" xml:space="preserve">
<defs>
</defs>
<line fill="none" stroke="#B35047" x1="32.5" y1="0.5" x2="32.5" y2="512.5"/>
<line fill="none" stroke="#B35047" x1="64.5" y1="0.5" x2="64.5" y2="512.5"/>
<line fill="none" stroke="#B35047" x1="96.5" y1="0.5" x2="96.5" y2="512.5"/>
<line fill="none" stroke="#B35047" x1="128.5" y1="0.5" x2="128.5" y2="512.5"/>
<line fill="none" stroke="#B35047" x1="160.5" y1="0.5" x2="160.5" y2="512.5"/>
<line fill="none" stroke="#B35047" x1="192.5" y1="0.5" x2="192.5" y2="512.5"/>
<line fill="none" stroke="#B35047" x1="224.5" y1="0.5" x2="224.5" y2="512.5"/>
<line fill="none" stroke="#B35047" x1="256.5" y1="0.5" x2="256.5" y2="512.5"/>
<line fill="none" stroke="#B35047" x1="288.5" y1="0.5" x2="288.5" y2="512.5"/>
<line fill="none" stroke="#B35047" x1="320.5" y1="0.5" x2="320.5" y2="512.5"/>
<line fill="none" stroke="#B35047" x1="352.5" y1="0.5" x2="352.5" y2="512.5"/>
<line fill="none" stroke="#B35047" x1="384.5" y1="0.5" x2="384.5" y2="512.5"/>
<line fill="none" stroke="#B35047" x1="416.5" y1="0.5" x2="416.5" y2="512.5"/>
<line fill="none" stroke="#B35047" x1="448.5" y1="0.5" x2="448.5" y2="512.5"/>
<line fill="none" stroke="#B35047" x1="480.5" y1="0.5" x2="480.5" y2="512.5"/>
<line fill="none" stroke="#B35047" x1="0.5" y1="32.5" x2="512.5" y2="32.5"/>
<line fill="none" stroke="#B35047" x1="0.5" y1="64.5" x2="512.5" y2="64.5"/>
<line fill="none" stroke="#B35047" x1="0.5" y1="96.5" x2="512.5" y2="96.5"/>
<line fill="none" stroke="#B35047" x1="0.5" y1="128.5" x2="512.5" y2="128.5"/>
<line fill="none" stroke="#B35047" x1="0.5" y1="160.5" x2="512.5" y2="160.5"/>
<line fill="none" stroke="#B35047" x1="0.5" y1="192.5" x2="512.5" y2="192.5"/>
<line fill="none" stroke="#B35047" x1="0.5" y1="224.5" x2="512.5" y2="224.5"/>
<line fill="none" stroke="#B35047" x1="0.5" y1="256.5" x2="512.5" y2="256.5"/>
<line fill="none" stroke="#B35047" x1="0.5" y1="288.5" x2="512.5" y2="288.5"/>
<line fill="none" stroke="#B35047" x1="0.5" y1="320.5" x2="512.5" y2="320.5"/>
<line fill="none" stroke="#B35047" x1="0.5" y1="352.5" x2="512.5" y2="352.5"/>
<line fill="none" stroke="#B35047" x1="0.5" y1="384.5" x2="512.5" y2="384.5"/>
<line fill="none" stroke="#B35047" x1="0.5" y1="416.5" x2="512.5" y2="416.5"/>
<line fill="none" stroke="#B35047" x1="0.5" y1="448.5" x2="512.5" y2="448.5"/>
<line fill="none" stroke="#B35047" x1="0.5" y1="480.5" x2="512.5" y2="480.5"/>
<rect x="0.5" y="0.5" fill="none" stroke="#B35047" width="512" height="512"/>
<path d="M464.5,64.5h-416c-26.512207,0-48,21.487793-48,48v288c0,26.4960938,21.487793,48,48,48h416
	c26.5117188,0,48-21.5039062,48-48v-288C512.5,85.987793,491.0117188,64.5,464.5,64.5z M47.355957,419.3398438
	l-17.6958008-17.7119141L164.644043,272.6601562l11.6958008,11.7119141L47.355957,419.3398438z M465.6435547,419.3398438
	L336.6601562,284.3720703l11.6953125-11.7119141l134.984375,128.9677734L465.6435547,419.3398438z M272.5,309.7001953V320.5h-32
	v-10.7998047L28.5478516,120.8999023l28.3520508-28.3520508L256.5,277.3164062L456.0996094,92.5478516l28.3525391,28.3520508
	L272.5,309.7001953z"/>
</svg>
