<?xml version="1.0" encoding="utf-8"?>
<!-- Generator: Adobe Illustrator 14.0.0, SVG Export Plug-In  -->
<!DOCTYPE svg PUBLIC "-//W3C//DTD SVG 1.1 Tiny//EN" "http://www.w3.org/Graphics/SVG/1.1/DTD/svg11-tiny.dtd" [
	<!ENTITY ns_flows "http://ns.adobe.com/Flows/1.0/">
]>
<svg version="1.1" baseProfile="tiny"
	 xmlns="http://www.w3.org/2000/svg" xmlns:xlink="http://www.w3.org/1999/xlink" xmlns:a="http://ns.adobe.com/AdobeSVGViewerExtensions/3.0/"
	 x="0px" y="0px" width="32px" height="32px" viewBox="0 0.0004883 32 32" xml:space="preserve">
<defs>
</defs>
<rect y="0.0004883" fill="none" width="32" height="32"/>
<path d="M15.7285156,19.3334961c0,0.1796875-0.0698242,0.3408203-0.206543,0.4804688l-6.9179688,6.9179688l2.9985352,2.9960938
	c0.2646484,0.2666016,0.3979492,0.5771484,0.3979492,0.9414062c0,0.3583984-0.1333008,0.6689453-0.3979492,0.9355469
	c-0.2612305,0.2617188-0.5742188,0.3955078-0.9355469,0.3955078H1.3334961c-0.3613281,0-0.6743164-0.1337891-0.9370117-0.3955078
	C0.1318359,31.3383789,0,31.027832,0,30.6694336v-9.3330078c0-0.3652344,0.1318359-0.6748047,0.3964844-0.9423828
	c0.2626953-0.2607422,0.5756836-0.3945312,0.9370117-0.3945312c0.3618164,0,0.6713867,0.1337891,0.9389648,0.3945312
	l2.9985352,3.0019531l6.9150391-6.9165039c0.1396484-0.1381836,0.3007812-0.2080078,0.4799805-0.2080078
	s0.340332,0.0698242,0.4799805,0.2080078l2.3759766,2.3754883C15.6586914,18.9936523,15.7285156,19.1547852,15.7285156,19.3334961z
	 M32,1.3339844v9.3334961c0,0.3613281-0.1337891,0.6743164-0.3955078,0.9370117
	c-0.2666016,0.2646484-0.5771484,0.3964844-0.9355469,0.3964844c-0.3642578,0-0.6748047-0.1318359-0.9414062-0.3964844l-2.9960938-3
	l-6.9208984,6.9165039c-0.1396484,0.1396484-0.2978516,0.2094727-0.4804688,0.2094727
	c-0.1757812,0-0.3388672-0.0698242-0.4755859-0.2094727l-2.3754883-2.3745117
	c-0.1396484-0.1381836-0.2094727-0.2978516-0.2094727-0.4785156s0.0698242-0.340332,0.2094727-0.4799805l6.9165039-6.9165039
	l-3.0019531-3c-0.2607422-0.2631836-0.3945312-0.5756836-0.3945312-0.9375c0-0.3613281,0.1337891-0.6728516,0.3945312-0.9370117
	C20.6611328,0.1323242,20.9707031,0,21.3359375,0h9.3330078c0.3583984,0,0.6689453,0.1323242,0.9355469,0.3969727
	C31.8662109,0.6611328,32,0.9726562,32,1.3339844z"/>
</svg>
