<?xml version="1.0" encoding="utf-8"?>
<!-- Generator: Adobe Illustrator 19.1.0, SVG Export Plug-In . SVG Version: 6.00 Build 0)  -->
<!DOCTYPE svg PUBLIC "-//W3C//DTD SVG 1.1//EN" "http://www.w3.org/Graphics/SVG/1.1/DTD/svg11.dtd">
<svg version="1.1" id="Lag_1" xmlns="http://www.w3.org/2000/svg" xmlns:xlink="http://www.w3.org/1999/xlink" x="0px" y="0px"
	 viewBox="-41.4997559 676.5 32 32" style="enable-background:new -41.4997559 676.5 32 32;" xml:space="preserve">
<style type="text/css">
	.st0{fill:none;}
	.st1{fill:#231F20;}
</style>
<rect x="-41.4997559" y="676.5" class="st0" width="32" height="32"/>
<rect x="-41.4997559" y="676.5" class="st0" width="32" height="32"/>
<path d="M-25.4997559,678.5c7.7196999,0,14,6.2802734,14,14s-6.2803001,14-14,14c-7.7197304,0-14-6.2802734-14-14
	S-33.2194862,678.5-25.4997559,678.5 M-25.4997559,676.5c-8.8364296,0-16,7.1630859-16,16s7.1635704,16,16,16
	c8.8363991,0,16-7.1630859,16-16S-16.6633568,676.5-25.4997559,676.5L-25.4997559,676.5z"/>
<rect x="-33.4997559" y="690.5" class="st1" width="14" height="4"/>
<polyline class="st1" points="-25.4997559,683.5 -16.4997559,692.5 -25.4997559,701.5 "/>
</svg>
