<?xml version="1.0" encoding="utf-8"?>
<!-- Generator: Adobe Illustrator 16.2.1, SVG Export Plug-In . SVG Version: 6.00 Build 0)  -->
<!DOCTYPE svg PUBLIC "-//W3C//DTD SVG 1.1 Tiny//EN" "http://www.w3.org/Graphics/SVG/1.1/DTD/svg11-tiny.dtd">
<svg version="1.1" baseProfile="tiny" id="Lag_1" xmlns="http://www.w3.org/2000/svg" xmlns:xlink="http://www.w3.org/1999/xlink"
	 x="0px" y="0px" width="32px" height="32px" viewBox="-41.4997559 676.5 32 32" xml:space="preserve">
<path d="M-34.5446777,698.4814453c-0.6289062-0.9902344-1.1064453-2.0605469-1.4306641-3.2050781h-5.5244141v-5.3798828h5.4667969
	c0.1523438-0.5917969,0.34375-1.1591797,0.5712891-1.7041016c0.2294922-0.5429688,0.5068359-1.0644531,0.8320312-1.5595703
	l-3.75-3.75l3.8056641-3.8085938l3.8076172,3.8359375c0.4765625-0.265625,0.9726562-0.5039062,1.4882812-0.7148438
	c0.5146484-0.2070312,1.0488281-0.3730469,1.6035156-0.484375V676.5h5.3808594v5.3222656
	c0.5527344,0.1542969,1.078125,0.3505859,1.5732422,0.5878906c0.4970703,0.2392578,0.9746094,0.5097656,1.4306641,0.8164062
	l3.8359375-3.8339844l3.8076172,3.8046875l-3.9501953,3.9511719c0.2285156,0.4394531,0.4335938,0.8828125,0.6142578,1.3300781
	c0.1826172,0.4492188,0.3310547,0.921875,0.4443359,1.4179688h5.0380859v5.3798828h-5.0947266
	c-0.1142578,0.4970703-0.2666016,0.9638672-0.4580078,1.4033203c-0.1914062,0.4384766-0.4111328,0.8691406-0.6572266,1.2871094
	l3.7773438,3.75l-3.8066406,3.8076172l-3.6933594-3.6923828c-0.8955078,0.5722656-1.8496094,1.0019531-2.8613281,1.2871094V708.5
	h-5.3808594v-5.2382812c-1.0703125-0.2480469-2.0429688-0.6181641-2.9199219-1.1152344l-3.6914062,3.6923828l-3.8076172-3.8076172
	L-34.5446777,698.4814453z M-29.3347168,692.5859375c0,0.5917969,0.1132812,1.15625,0.34375,1.6894531
	c0.2275391,0.5332031,0.5380859,0.9980469,0.9287109,1.3867188c0.3916016,0.3925781,0.8544922,0.7021484,1.3886719,0.9316406
	c0.5351562,0.2285156,1.0966797,0.3427734,1.6894531,0.3427734c0.6103516,0,1.1767578-0.1142578,1.703125-0.3427734
	c0.5244141-0.2294922,0.9824219-0.5390625,1.3730469-0.9316406c0.3916016-0.3886719,0.7021484-0.8535156,0.9306641-1.3867188
	s0.34375-1.0976562,0.34375-1.6894531c0-0.6103516-0.1152344-1.1777344-0.34375-1.703125s-0.5390625-0.9814453-0.9306641-1.375
	c-0.390625-0.3886719-0.8486328-0.6992188-1.3730469-0.9277344c-0.5263672-0.2304688-1.0927734-0.34375-1.703125-0.34375
	c-0.5927734,0-1.1542969,0.1132812-1.6894531,0.34375c-0.5341797,0.2285156-0.9970703,0.5390625-1.3886719,0.9277344
	c-0.390625,0.3935547-0.7011719,0.8496094-0.9287109,1.375C-29.2214355,691.4082031-29.3347168,691.9755859-29.3347168,692.5859375z
	"/>
</svg>
