<?xml version="1.0" encoding="utf-8"?>
<!-- Generator: Adobe Illustrator 18.0.0, SVG Export Plug-In . SVG Version: 6.00 Build 0)  -->
<!DOCTYPE svg PUBLIC "-//W3C//DTD SVG 1.1 Tiny//EN" "http://www.w3.org/Graphics/SVG/1.1/DTD/svg11-tiny.dtd">
<svg version="1.1" baseProfile="tiny" id="Lag_1" xmlns="http://www.w3.org/2000/svg" xmlns:xlink="http://www.w3.org/1999/xlink"
	 x="0px" y="0px" viewBox="-41.5 676.5 32 32" xml:space="preserve">
<rect x="-41.5" y="676.5" fill="none" width="32" height="32"/>
<rect x="-41.5" y="676.5" fill="none" width="32" height="32"/>
<g>
	<path d="M-11.484,689.471l-2.566-0.569c-0.2-0.64-0.462-1.252-0.763-1.841l1.389-2.313c0.519-0.829,0.78-2.047,0-2.829
		l-1.415-1.414c-0.78-0.781-2.099-0.641-2.895-0.088l-2.251,1.434c-0.584-0.303-1.194-0.563-1.829-0.768l-0.576-2.598
		c-0.172-0.953-1.005-1.984-2.109-1.984h-2c-1.104,0-1.781,1.047-2,2l-0.642,2.566c-0.678,0.216-1.328,0.492-1.948,0.819
		l-2.308-1.47c-0.795-0.552-2.114-0.692-2.894,0.088l-1.415,1.414c-0.781,0.781-0.519,2,0,2.829l1.461,2.435
		c-0.274,0.552-0.517,1.123-0.705,1.72l-2.566,0.569c-0.953,0.172-1.984,1.005-1.984,2.109v2c0,1.104,1.047,1.781,2,2l2.599,0.649
		c0.18,0.551,0.404,1.08,0.658,1.593l-1.463,2.438c-0.518,0.828-0.78,2.047,0,2.828l1.415,1.414c0.78,0.781,2.099,0.641,2.895,0.089
		l2.312-1.474c0.624,0.329,1.277,0.607,1.959,0.823l0.64,2.56c0.219,0.953,0.896,2,2,2h2c1.105,0,1.938-1.031,2.109-1.984
		l0.577-2.605c0.628-0.203,1.231-0.459,1.808-0.758l2.256,1.438c0.796,0.552,2.114,0.692,2.895-0.089l1.415-1.414
		c0.78-0.781,0.519-2,0-2.828l-1.39-2.316c0.279-0.549,0.521-1.12,0.716-1.714l2.599-0.649c0.953-0.219,2-0.896,2-2v-2
		C-9.5,690.476-10.531,689.643-11.484,689.471z M-11.499,693.439c-0.085,0.061-0.245,0.145-0.448,0.192l-3.708,0.926l-0.344,1.051
		c-0.155,0.474-0.357,0.954-0.598,1.429l-0.502,0.986l1.959,3.267c0.125,0.2,0.183,0.379,0.201,0.484l-1.315,1.314
		c-0.127-0.04-0.271-0.092-0.341-0.14l-3.292-2.1l-1.023,0.529c-0.493,0.256-0.999,0.468-1.503,0.631l-1.09,0.353l-0.824,3.723
		c-0.038,0.199-0.145,0.359-0.217,0.417h-1.8c-0.061-0.085-0.145-0.245-0.191-0.447l-0.92-3.682l-1.065-0.338
		c-0.549-0.173-1.097-0.403-1.629-0.685l-1.028-0.543l-3.292,2.099c-0.134,0.091-0.278,0.143-0.409,0.143l-1.311-1.276
		c0.017-0.104,0.072-0.274,0.181-0.449l2.045-3.408l-0.486-0.979c-0.229-0.461-0.408-0.894-0.548-1.324l-0.343-1.052l-3.672-0.918
		c-0.231-0.053-0.398-0.139-0.485-0.2v-1.859c0.001,0,0.002,0.001,0.004,0.001c0.034,0,0.198-0.117,0.335-0.142l3.773-0.836
		l0.347-1.103c0.141-0.449,0.333-0.917,0.588-1.431l0.486-0.98l-2.024-3.372c-0.125-0.201-0.184-0.38-0.201-0.485l1.315-1.314
		c0.128,0.041,0.271,0.092,0.34,0.14l3.354,2.138l1.027-0.542c0.527-0.278,1.073-0.507,1.622-0.682l1.063-0.339l0.912-3.649
		c0.053-0.231,0.138-0.398,0.2-0.485h1.859c-0.014,0.02,0.115,0.195,0.142,0.339l0.84,3.794l1.089,0.352
		c0.511,0.165,1.023,0.38,1.522,0.639l1.023,0.532l3.224-2.054c0.135-0.092,0.279-0.143,0.409-0.143l1.312,1.275
		c-0.018,0.104-0.072,0.275-0.182,0.451l-1.979,3.296l0.505,0.988c0.272,0.533,0.48,1.033,0.635,1.529l0.346,1.104l3.696,0.82
		c0.224,0.042,0.398,0.171,0.435,0.241L-11.499,693.439z M-25.486,686.49c-3.321,0-6.023,2.696-6.023,6.009
		c0,3.313,2.702,6.009,6.023,6.009s6.023-2.696,6.023-6.009C-19.463,689.186-22.165,686.49-25.486,686.49z M-25.5,696.5
		c-2.206,0-4-1.794-4-4c0-2.206,1.794-4,4-4s4,1.794,4,4C-21.5,694.706-23.294,696.5-25.5,696.5z"/>
</g>
</svg>
