<?xml version="1.0" encoding="utf-8"?>
<!-- Generator: Adobe Illustrator 15.0.2, SVG Export Plug-In  -->
<!DOCTYPE svg PUBLIC "-//W3C//DTD SVG 1.1 Tiny//EN" "http://www.w3.org/Graphics/SVG/1.1/DTD/svg11-tiny.dtd" [
	<!ENTITY ns_flows "http://ns.adobe.com/Flows/1.0/">
]>
<svg version="1.1" baseProfile="tiny"
	 xmlns="http://www.w3.org/2000/svg" xmlns:xlink="http://www.w3.org/1999/xlink" xmlns:a="http://ns.adobe.com/AdobeSVGViewerExtensions/3.0/"
	 x="0px" y="0px" width="32px" height="32px" viewBox="0 0 32 32" overflow="visible" xml:space="preserve">
<defs>
</defs>
<rect fill="none" width="32" height="32"/>
<rect fill="none" width="32" height="32"/>
<path d="M31.2617188,13.3085938C29.9355469,5.7895508,23.3984375,0.5,16.0185547,0.5
	C15.125,0.5004883,14.21875,0.5776367,13.3085938,0.7382812C4.8793945,2.2246094-0.7480469,10.262207,0.7382812,18.6914062
	C2.0639648,26.2099609,8.6020508,31.5,15.9819336,31.5c0.8930664,0,1.7993164-0.078125,2.7094727-0.2382812
	C27.1201172,29.7753906,32.7480469,21.7382812,31.2617188,13.3085938z M26.8583984,7.5874023L22.8339844,8.296875
	c-0.6738281-1.4750977-1.4677734-2.8134766-2.375-3.940918c-0.5791016-0.7202148-1.1855469-1.3291016-1.8085938-1.8383789
	C21.9521484,3.159668,24.8496094,4.9907227,26.8583984,7.5874023z M23.3544922,17.9169922l-5.9394531,1.0478516
	l-1.3554688-7.6894531l5.7138672-1.0073242c0.5341797,1.3994141,0.9589844,2.9091797,1.2382812,4.4956055
	C23.2001953,15.8339844,23.3076172,16.8886719,23.3544922,17.9169922z M19.1025391,5.4467773
	c0.7353516,0.9135742,1.3916016,1.9829102,1.9619141,3.1621094l-5.3100586,0.9360352L14.5146484,2.515625
	C16.0390625,2.6166992,17.6347656,3.6230469,19.1025391,5.4467773z M15.6845703,19.2695312l-5.828125,1.0283203
	c-0.3056641-0.9882812-0.5620117-2.0175781-0.75-3.0830078c-0.2817383-1.5976562-0.390625-3.1635742-0.362793-4.6494141
	l5.5854492-0.9848633L15.6845703,19.2695312z M12.7905273,2.8569336l1.2333984,6.9931641L8.84375,10.7636719
	C9.2426758,6.9013672,10.6875,3.8759766,12.7905273,2.8569336z M4.7446289,8.1191406
	c1.1469727-1.6376953,2.6113281-2.9658203,4.284668-3.9501953c-1.081543,1.7919922-1.7680664,4.1821289-1.9785156,6.9106445
	l-4.1391602,0.7299805C3.3291016,10.5112305,3.9404297,9.2680664,4.7446289,8.1191406z M2.4692383,18.3857422
	c-0.2797852-1.5849609-0.2651367-3.1728516-0.0009766-4.7138672l4.5068359-0.7944336
	c0.0004883,1.4819336,0.1347656,3.0405273,0.4165039,4.6401367c0.1870117,1.0605469,0.4365234,2.0908203,0.7353516,3.0849609
	l-4.7353516,0.8359375C2.9780273,20.4746094,2.6582031,19.4570312,2.4692383,18.3857422z M4.2216797,23.0761719l4.480957-0.7900391
	c0.7734375,2.0371094,1.7714844,3.8632812,2.9570312,5.3369141c0.6064453,0.7539062,1.2426758,1.3808594,1.8955078,1.9042969
	C9.6220703,28.8242188,6.2368164,26.4394531,4.2216797,23.0761719z M13.0161133,26.5322266
	c-1.0136719-1.2607422-1.8789062-2.8154297-2.5688477-4.5537109L15.9902344,21l1.4902344,8.4511719
	C15.9936523,29.3046875,14.4438477,28.3076172,13.0161133,26.5322266z M19.2167969,29.1787109l-1.4960938-8.4833984
	l5.6494141-0.9960938C23.2246094,24.3398438,21.6523438,28.0947266,19.2167969,29.1787109z M23.1474609,27.7197266
	c1.2421875-2.109375,1.9492188-5.0234375,1.9873047-8.3320312l4.3378906-0.765625
	C28.7324219,22.3994141,26.4287109,25.7128906,23.1474609,27.7197266z M29.7041016,16.7973633l-4.6054688,0.8120117
	c-0.0615234-1.0234375-0.1835938-2.0761719-0.3720703-3.1479492c-0.2773438-1.574707-0.6884766-3.0864258-1.2070312-4.5014648
	l4.4111328-0.777832c0.765625,1.3432617,1.3183594,2.8330078,1.6005859,4.4316406
	C29.7207031,14.6879883,29.7646484,15.7529297,29.7041016,16.7973633z"/>
</svg>
