<?xml version="1.0" encoding="utf-8"?>
<!-- Generator: Adobe Illustrator 15.0.2, SVG Export Plug-In  -->
<!DOCTYPE svg PUBLIC "-//W3C//DTD SVG 1.1 Tiny//EN" "http://www.w3.org/Graphics/SVG/1.1/DTD/svg11-tiny.dtd" [
	<!ENTITY ns_flows "http://ns.adobe.com/Flows/1.0/">
]>
<svg version="1.1" baseProfile="tiny"
	 xmlns="http://www.w3.org/2000/svg" xmlns:xlink="http://www.w3.org/1999/xlink" xmlns:a="http://ns.adobe.com/AdobeSVGViewerExtensions/3.0/"
	 x="0px" y="0px" width="32px" height="32px" viewBox="0 0 32 32" overflow="visible" xml:space="preserve">
<defs>
</defs>
<rect fill="none" width="32" height="32"/>
<path fill="#231F20" d="M16.0029297,0.5C7.4433594,0.5,0.5,7.4375,0.5,15.9980469S7.4433594,31.5,16.0029297,31.5
	C24.5605469,31.5,31.5,24.5585938,31.5,15.9980469S24.5605469,0.5,16.0029297,0.5 M25.6572266,6.253418
	c0.1669922-0.0532227,0.7587891,0.6113281,0.890625,0.4282227c0.1738281-0.2290039-0.625-0.7880859-0.625-1.0224609
	c0-0.3217773,1.5,1.4760742,1.5820312,1.6176758c0.0195312,0.0332031-0.4121094-0.2075195-0.4228516-0.1655273
	c-0.0332031,0.2451172-0.0791016,0.4868164-0.1386719,0.7280273C26.3125,7.8979492,25.0390625,6.4628906,25.6572266,6.253418
	 M20.2636719,22.40625c-1.1582031,1.4208984-0.4824219,3.0244141-2.6210938,3.6591797
	c-1.1020508,0.3300781-0.6289062,2.6279297-2.4755859,2.0556641c0.1054688,0.1083984,0.1054688,0.2636719,0.3662109,0.4306641
	c-0.40625,0.2910156-0.8735352,0.3486328-1.3544922,0.4941406c0.1166992,0.1347656,0.4360352,1.0283203,0.7163086,0.9267578
	c-2.543457,1.2763672-3.0375977-3.5351562-3.590332-4.8505859c-0.4155273-1-1.8378906-1.4619141-2.4443359-2.3828125
	c-0.3774414-0.5751953-0.6166992-1.2138672-0.9790039-1.7988281c-0.8662109-1.390625,1.2910156-3.0537109,0.3188477-4.2749023
	C7.8125,16.1748047,7.1157227,16.9521484,6.3666992,15.9716797c-0.1938477-0.2558594-0.262207-0.8183594-0.3452148-1.121582
	c-0.5136719,0.1279297-1.2807617-0.9873047-1.4462891-0.8212891c-0.5756836,0.5732422-1.4301758-0.7871094-1.3647461-1.2939453
	c0.1967773-1.4863281-0.4453125-2.1845703,0.3574219-3.597168c1.2148438-2.1318359,2.7128906-3.9794922,4.8842773-5.2070312
	C9.71875,3.2167969,11.8022461,1.953125,13.418457,2.0058594c-0.3022461-0.0097656-3.081543,1.4628906-2.7729492,1.5507812
	c0.2680664,0.0795898,0.8920898-0.3095703,1.0581055,0.0986328C11.7080078,3.8369141,11.6645508,4,11.5668945,4.1508789
	c0.3110352,0.4575195,2.21875-1.4980469,2.6157227-1.6523438c0.7753906-0.3061523,1.1401367,0.5004883,2.0112305,0.2021484
	c0.6064453-0.2070312,0.3261719,0.9545898,0.2626953,0.9545898c0.1025391,0,0.8110352-0.3110352,0.7700195,0.0649414
	c-0.1054688,0.9082031-3.3945312-0.1308594-3.7421875,0.9267578c-0.09375,0.2880859,1.0678711-0.2670898,1.2563477-0.097168
	c-0.0776367,0.1274414-0.1679688,0.2456055-0.2651367,0.3623047c0.090332,0.1787109,0.8017578,0.4052734,0.8789062,0.2421875
	c-0.0771484,0.1630859-2.1411133,0.4238281-2.4941406,0.5698242c-0.6015625,0.2480469-1.6396484,0.8959961-2.199707,1.3959961
	c-0.3310547,0.3012695-0.1928711,0.7382812-0.5761719,1.0092773C9.6640625,8.4282227,9.2260742,8.7128906,8.8432617,9.0610352
	C8.34375,9.5126953,8.7919922,10.8974609,8.2382812,11.1538086c0.1567383-0.0708008-0.5454102-2.4257812-1.4858398-1.2861328
	c-0.375,0.4555664-1.1259766,0.2626953-1.703125,0.8256836c-0.5131836,0.5009766-0.6962891,1.4838867-0.5991211,2.1630859
	c0.2290039,1.6079102,1.2490234-0.4487305,1.8701172-0.4487305c0.4150391,0-0.7045898,1.4892578-0.3769531,1.7275391
	c0.6757812,0.4946289,1.1132812-0.347168,0.8676758,1.1577148c-0.3618164,2.1943359,3.293457,0.1523438,3.1738281-0.0800781
	c0.171875,0.3457031-0.4316406,0.6757812-0.0136719,0.9619141c0.1689453,0.1162109,0.1459961-0.5898438,0.2607422-0.7094727
	c0.3681641-0.3847656,0.519043,0.1796875,0.8422852,0.309082c0.4121094,0.1689453,2.3222656,0.1376953,2.4433594,0.7587891
	c0.3164062,1.5478516,3.3950195,0.5908203,2.5024414,2.9902344c0.1000977-0.0634766,0.2050781-0.1025391,0.3188477-0.1201172
	c0.7431641,0.1933594,1.4287109,0.8408203,2.0917969,0.7617188C19.8320312,19.9921875,21.4013672,21.0175781,20.2636719,22.40625
	 M25.2001953,17.1660156c-1.9746094-1.5292969-1.8037109-5.1933594-0.1826172-6.8720703
	c-0.1845703-1.1650391,2.2578125-1.3671875,2.890625-0.8730469c0.4589844,0.3535156,1.2158203,1.765625,1.4121094,2.3007812
	c0.8886719,2.421875,1.1308594,7.5478516-1.2910156,11.2216797c-1.2919922-1.2519531-0.3349609-3.6025391-0.0712891-4.9902344
	c0.2324219-1.2265625-0.4130859-0.9042969-0.8203125-0.7871094H25.2001953z"/>
<rect fill="none" width="32" height="32"/>
</svg>
