<?xml version="1.0" encoding="utf-8"?>
<!-- Generator: Adobe Illustrator 19.1.0, SVG Export Plug-In . SVG Version: 6.00 Build 0)  -->
<!DOCTYPE svg PUBLIC "-//W3C//DTD SVG 1.1//EN" "http://www.w3.org/Graphics/SVG/1.1/DTD/svg11.dtd">
<svg version="1.1" id="Layer_1" xmlns="http://www.w3.org/2000/svg" xmlns:xlink="http://www.w3.org/1999/xlink" x="0px" y="0px"
	 viewBox="-41 676.8900146 32 32" style="enable-background:new -41 676.8900146 32 32;" xml:space="preserve">
<g id="icomoon-ignore">
</g>
<path d="M-25,678.8900146c7.7199993,0,14,6.2800293,14,14s-6.2800007,14-14,14s-14-6.2800293-14-14
	S-32.7190018,678.8900146-25,678.8900146z M-25,676.8900146c-8.8359985,0-16,7.1630249-16,16s7.1640015,16,16,16s16-7.1630249,16-16
	S-16.1630001,676.8900146-25,676.8900146L-25,676.8900146z"/>
<g>
	<path d="M-24.921442,682.8900146c3.1847,0,6.0583801,1.6416626,6.0583801,5.0528564
		c0,2.4066162-1.4297943,3.5531006-2.7886257,4.5576172c-1.6416721,1.2319946-2.2506294,1.6990356-2.2506294,3.2843628v0.7780151
		h-3.085556l-0.0140915-0.9763184c-0.099144-2.0805054,1.047308-3.3829956,2.5762444-4.4730835
		c1.3160553-0.9763184,2.1655769-1.6134644,2.1655769-3.0004883c0-1.7836304-1.3734264-2.5194092-2.8309002-2.5194092
		c-1.9396076,0-2.9159546,1.3024902-2.9300461,2.9723511h-3.1142426
		C-31.2198811,684.3615723-27.9506321,682.8900146-24.921442,682.8900146z M-25.3884773,699.1678467
		c1.2878704,0,2.1092091,0.7498779,2.1092091,1.868103c0,1.0900879-0.8213387,1.8540649-2.1092091,1.8540649
		c-1.2033215,0-2.066431-0.7639771-2.066431-1.8540649C-27.4549084,699.9177246-26.6058903,699.1678467-25.3884773,699.1678467z"/>
</g>
</svg>
