<?xml version="1.0" encoding="utf-8"?>
<!-- Generator: Adobe Illustrator 16.2.1, SVG Export Plug-In . SVG Version: 6.00 Build 0)  -->
<!DOCTYPE svg PUBLIC "-//W3C//DTD SVG 1.1 Tiny//EN" "http://www.w3.org/Graphics/SVG/1.1/DTD/svg11-tiny.dtd">
<svg version="1.1" baseProfile="tiny" id="Lag_1" xmlns="http://www.w3.org/2000/svg" xmlns:xlink="http://www.w3.org/1999/xlink"
	 x="0px" y="0px" width="32px" height="32px" viewBox="-41.4997559 676.5 32 32" xml:space="preserve">
<rect x="-41.5002441" y="676.5" fill="none" width="32" height="32"/>
<g>
	<path fill-rule="evenodd" d="M-27.3029785,689.6816406c-0.1689453-0.4804688-0.5449219-1.7929688-0.4794922-2.875
		c0.019043-0.3076172,0.0727539-1.6503906,0.0371094-2.0283203c-0.0229492-0.2451172,0.0244141-0.5185547,0-0.7734375
		c-0.0463867-0.4853516-0.2133789-2.0097656-0.2211914-2.3222656c-0.0332031-1.3681641-0.7714844-3.3925781-0.1845703-4.5351562
		c0.2827148-0.5488281,1.3535156-0.9121094,2.027832-0.4052734c0.9345703,0.703125,0.7202148,2.9375,0.7001953,4.4609375
		c-0.0170898,1.3125-0.1206055,3.0947266,0.0737305,4.3496094c0.2114258,1.3662109,0.1606445,3.0332031-0.4790039,3.8710938
		C-26.1911621,689.8984375-26.9108887,690.2587891-27.3029785,689.6816406"/>
	<path fill-rule="evenodd" d="M-34.7492676,679.5068359c1.3369141-0.2734375,1.6728516,1.0673828,1.9902344,2.1015625
		c0.1552734,0.5058594,0.309082,1.0107422,0.4423828,1.4746094c0.4394531,1.53125,0.9174805,3.5791016,1.4008789,5.1982422
		c0.2099609,0.7021484,0.6748047,1.4169922,0.5898438,2.0634766c-0.0537109,0.4101562-0.4052734,0.9189453-0.8110352,0.921875
		c-0.5205078,0.0039062-1.2646484-1.4414062-1.4375-1.9169922c-0.2050781-0.5634766-0.5961914-1.5068359-0.8110352-2.0273438
		c-0.3837891-0.9296875-0.9516602-1.9296875-1.3271484-2.9492188c-0.3349609-0.9101562-0.6147461-1.6123047-0.8110352-2.7646484
		c-0.0800781-0.4707031-0.1894531-0.9189453-0.1103516-1.2529297
		C-35.5314941,679.9189453-35.1218262,679.5830078-34.7492676,679.5068359"/>
	<path fill-rule="evenodd" d="M-40.2790527,690.0498047c1.0517578-0.1533203,1.6943359,0.7666016,2.4331055,1.2539062
		c0.7021484,0.4628906,1.3852539,0.796875,1.8432617,1.1796875c0.3325195,0.2773438,0.7543945,0.7763672,0.8476562,1.1796875
		c0.2104492,0.90625-0.5292969,1.9238281-1.2163086,1.953125c-0.5048828,0.0224609-1.0166016-0.6181641-1.3642578-0.9951172
		c-0.7807617-0.8457031-1.6142578-1.5097656-2.359375-2.359375
		C-40.5617676,691.7294922-41.338623,690.4335938-40.2790527,690.0498047"/>
	<path fill-rule="evenodd" d="M-12.0046387,695.3212891c-0.3530273,0.1064453-0.7768555,0.4580078-1.105957,0.7373047
		c-0.2763672,0.2353516-0.7172852,0.6386719-0.9213867,0.921875c-0.1489258,0.2070312-0.4360352,0.6132812-0.6269531,0.8847656
		c-0.2714844,0.3867188-0.9189453,0.9794922-1.3852539,1.4365234c-0.3413086,0.3339844-1.2260742,0.7099609-1.8061523,0.6630859
		c-0.3305664-0.0263672-0.5415039-0.2421875-0.8295898-0.4970703c-0.2729492-0.2412109-0.5161133-0.4794922-0.8295898-0.921875
		c-0.2011719-0.2841797-0.4946289-1.2333984-0.7001953-1.6953125c-0.2060547-0.4628906-0.1611328-1.4970703-0.1108398-1.8251953
		c0.0737305-0.4794922,0.1450195-0.6513672,0.2060547-1.0673828c0.1572266-1.0722656-0.2592773-1.6542969-0.1323242-2.4716797
		c0.0581055-0.3730469,0.2114258-0.8730469,0.3901367-1.2148438c0.1723633-0.328125,0.7661133-3.3271484,0.921875-3.796875
		c0.1357422-0.4101562,0.1601562-0.8691406,0.2949219-1.2900391c0.125-0.3916016,0.2421875-0.7939453,0.3686523-1.2167969
		c0.2768555-0.9277344,0.8583984-2.0507812,0.5527344-3.1699219c-0.1708984-0.6269531-1.1035156-1.6455078-1.8061523-1.5488281
		c-0.6337891,0.0878906-0.8134766,0.4052734-1.1274414,0.8837891c-0.2138672,0.3251953-0.2631836,0.8330078-0.3320312,1.1425781
		c-0.0869141,0.3925781-0.0488281,1.0371094-0.0737305,1.4375c-0.0410156,0.6630859-0.112793,1.4316406-0.184082,2.1376953
		c-0.0664062,0.6591797-0.215332,1.1425781-0.3686523,1.7333984c-0.2578125,0.9912109-0.9824219,1.5791016-1.0844727,2.5810547
		c-0.0458984,0.4511719-0.1005859,0.9257812-0.2055664,1.2519531c-0.1557617,0.4814453-0.4433594,0.7451172-0.9741211,0.8867188
		c-0.8710938,0.2324219-1.3276367-0.4238281-2.1381836-0.3320312c-0.7709961,0.0869141-1.0537109,1.03125-1.7695312,1.4375
		c-1.0722656,0.6103516-1.5327148,0.2382812-2.1777344,0.5888672c-0.7397461,0.4013672-1.1469727,1.1757812-1.5297852,1.4003906
		c-0.534668,0.3134766-0.925293,0.2871094-1.269043,0.4072266c-0.9052734,0.3164062-1.9140625,1.2539062-1.8427734,2.359375
		c0.0234375,0.3662109,0.3291016,0.8505859,0.515625,1.1425781c0.2485352,0.3876953,0.425293,0.7646484,0.5898438,1.1064453
		c0.3613281,0.7470703,0.8330078,1.5605469,1.0693359,2.2851562c0.2792969,0.8574219,0.2978516,1.9560547,0.3686523,2.875
		c0.0322266,0.4189453,0.199707,0.8310547,0.331543,1.2539062c0.1381836,0.4404297,0.2114258,0.8955078,0.3686523,1.2167969
		c0.3320312,0.6748047,1.1782227,1.3476562,2.1381836,1.4375c1.0234375,0.0947266,1.6948242-0.2070312,2.4697266-0.40625
		c0.5307617-0.1357422,1.0947266-0.2607422,1.6958008-0.3681641c1.1508789-0.2060547,2.5185547-0.3974609,3.3916016-0.7744141
		c0.6586914-0.2841797,1.3183594-0.7529297,1.9169922-1.1796875c1.1171875-0.7949219,2.1040039-1.4521484,2.7646484-2.5800781
		c0.2641602-0.4511719,0.6367188-0.7363281,0.9584961-1.2539062c0.3398438-0.5458984,0.9482422-1.1123047,1.5849609-1.4003906
		c0.5063477-0.2285156,0.8916016-0.4980469,1.4746094-0.7001953c0.6054688-0.2109375,1.1557617-0.6201172,1.6220703-1.0693359
		c0.4550781-0.4384766,0.9731445-0.9121094,1.105957-1.5849609
		C-9.9904785,695.9248047-10.7590332,694.9472656-12.0046387,695.3212891 M-23.8190918,699.5625
		c-0.0488281,0.2753906-0.2036133,0.6123047-0.2949219,0.9951172c-0.1005859,0.4238281-0.0356445,0.9257812-0.1103516,1.1796875
		c-0.1313477,0.4433594-1.0327148,0.9716797-1.6591797,0.4423828c-0.3095703-0.2607422-0.4248047-0.9042969-0.5898438-1.2158203
		c-0.2324219-0.4384766-0.8916016-0.9365234-1.0322266-1.4384766c-0.1469727-0.5253906,0.0869141-1.1357422-0.0366211-1.8056641
		c-0.0380859-0.2060547-0.2519531-0.4667969-0.3320312-0.6640625c-0.1533203-0.3769531-0.3759766-0.90625,0.1474609-1.0322266
		c0.5429688-0.1298828,0.9282227,0.7626953,1.3271484,0.9960938c0.3227539,0.1884766,0.762207,0.2744141,1.105957,0.4423828
		C-24.5222168,697.8378906-23.5925293,698.2939453-23.8190918,699.5625"/>
</g>
</svg>
