<?xml version="1.0" encoding="utf-8"?>
<!-- Generator: Adobe Illustrator 19.1.0, SVG Export Plug-In . SVG Version: 6.00 Build 0)  -->
<!DOCTYPE svg PUBLIC "-//W3C//DTD SVG 1.1//EN" "http://www.w3.org/Graphics/SVG/1.1/DTD/svg11.dtd">
<svg version="1.1" id="Layer_1" xmlns="http://www.w3.org/2000/svg" xmlns:xlink="http://www.w3.org/1999/xlink" x="0px" y="0px"
	 viewBox="-41 676.8900146 16 16" style="enable-background:new -41 676.8900146 16 16;" xml:space="preserve">
<path d="M-32.9896507,689.2884521c-0.4898682,0-0.9072876,0.1759644-1.2522621,0.527832
	c-0.3449783,0.3518677-0.5174675,0.7761841-0.5174675,1.2729492s0.1742134,0.9210815,0.5226402,1.2729492
	s0.7675705,0.527832,1.2574387,0.527832s0.9072876-0.1759644,1.252264-0.527832s0.5174637-0.7761841,0.5174637-1.2729492
	s-0.1724873-0.9210815-0.5174637-1.2729492S-32.4928856,689.2884521-32.9896507,689.2884521z"/>
<path d="M-33.5329895,685.590332c0.1000443,0.7210083,0.1500664,1.5609741,0.1500664,2.5183105h0.7658463
	c0-0.9573364,0.0500221-1.7973022,0.1500664-2.5183105c0.1000404-0.7192993,0.3535995-1.9525757,0.7606716-3.6964111
	c0.3311768-1.4334106,0.4967651-2.390686,0.4967651-2.8736572c0-0.6623535-0.1673126-1.1815796-0.5019398-1.5610352
	c-0.3346252-0.3794556-0.764122-0.5692139-1.2884865-0.5692139s-0.9538612,0.1897583-1.2884865,0.5692139
	s-0.5019417,0.8986816-0.5019417,1.5610352c0,0.4829712,0.1655884,1.4402466,0.496769,2.8736572
	C-33.8865891,683.6377563-33.6330299,684.8710327-33.5329895,685.590332z"/>
</svg>
