<?xml version="1.0" encoding="utf-8"?>
<!-- Generator: Adobe Illustrator 18.0.0, SVG Export Plug-In . SVG Version: 6.00 Build 0)  -->
<!DOCTYPE svg PUBLIC "-//W3C//DTD SVG 1.1 Tiny//EN" "http://www.w3.org/Graphics/SVG/1.1/DTD/svg11-tiny.dtd">
<svg version="1.1" baseProfile="tiny" id="Lag_1" xmlns="http://www.w3.org/2000/svg" xmlns:xlink="http://www.w3.org/1999/xlink"
	 x="0px" y="0px" viewBox="-41.5 676.5 32 32" xml:space="preserve">
<rect x="-41.5" y="676.5" fill="none" width="32" height="32"/>
<rect x="-41.5" y="676.5" fill="none" width="32" height="32"/>
<path d="M-14.5,678.5c-0.147-0.758-0.895-2-2-2h-19c-1.105,0-1.814,1.269-2,2l-4,17.01v9.991c0,1.657,1.343,3,3,3h26
	c1.657,0,3-1.343,3-3v-9.991L-14.5,678.5z M-35.5,679.5c0-0.552,0.448-1,1-1h17c0.552,0,1,0.447,1,1l4.684,15H-19.5
	c-1.054,0-1,1-1,1v3c0,0.552-0.448,1-1,1h-8c-0.552,0-1-0.448-1-1v-3c0,0,0-1-1-1h-7.745L-35.5,679.5z M-11.499,704.5
	c0,1.105-0.896,2-2,2h-24c-1.105,0-2-0.895-2-2v-8h7v3c0,1.105,0.895,2,2,2h10c1.105,0,2-0.895,2-2v-3h7V704.5z"/>
</svg>
