<?xml version="1.0" encoding="utf-8"?>
<!-- Generator: Adobe Illustrator 19.1.0, SVG Export Plug-In . SVG Version: 6.00 Build 0)  -->
<!DOCTYPE svg PUBLIC "-//W3C//DTD SVG 1.1//EN" "http://www.w3.org/Graphics/SVG/1.1/DTD/svg11.dtd">
<svg version="1.1" id="Lag_1" xmlns="http://www.w3.org/2000/svg" xmlns:xlink="http://www.w3.org/1999/xlink" x="0px" y="0px"
	 viewBox="-281 404.8900146 32 32" style="enable-background:new -281 404.8900146 32 32;" xml:space="preserve">
<path d="M-249,422.8895874h-10c-1.0540161,0-1,1-1,1v4c0,0.552002-0.447998,1-1,1h-8c-0.552002,0-1-0.447998-1-1v-4c0,0,0-1-1-1h-10
	l4-16.0000916c0.1860046-0.7310181,0.894989-2,2-2h19c1.1049957,0,1.8529968,1.2420044,2,2L-249,422.8895874z"/>
<path d="M-271.9989929,424.8890686v4c0,1.1049805,0.894989,2,2,2h10c1.1049805,0,2-0.8950195,2-2v-4H-249v9.000946
	c0,1.6569824-1.3430023,3-3,3h-26c-1.6570129,0-3-1.3430176-3-3v-9.000946H-271.9989929z"/>
</svg>
