<?xml version="1.0" encoding="utf-8"?>
<!-- Generator: Adobe Illustrator 16.2.1, SVG Export Plug-In . SVG Version: 6.00 Build 0)  -->
<!DOCTYPE svg PUBLIC "-//W3C//DTD SVG 1.1 Tiny//EN" "http://www.w3.org/Graphics/SVG/1.1/DTD/svg11-tiny.dtd">
<svg version="1.1" baseProfile="tiny" id="Lag_1" xmlns="http://www.w3.org/2000/svg" xmlns:xlink="http://www.w3.org/1999/xlink"
	 x="0px" y="0px" width="32px" height="32px" viewBox="-41.4997559 676.5 32 32" xml:space="preserve">
<rect x="-41.4997559" y="676.5" fill="none" width="32" height="32"/>
<rect x="-41.4997559" y="676.5" fill="none" width="32" height="32"/>
<path d="M-25.4997559,678.5c7.7197266,0,14,6.2802734,14,14s-6.2802734,14-14,14s-14-6.2802734-14-14
	S-33.2194824,678.5-25.4997559,678.5 M-25.4997559,676.5c-8.8364258,0-16,7.1630859-16,16s7.1635742,16,16,16s16-7.1630859,16-16
	S-16.6633301,676.5-25.4997559,676.5L-25.4997559,676.5z"/>
<g>
	<g>
		<path fill="#231F20" d="M-23.7443848,701.3710938c-0.8789062,0.3271484-1.5761719,0.5751953-2.1015625,0.7451172
			c-0.5195312,0.171875-1.1054688,0.2578125-1.7578125,0.2578125c-1.0058594,0-1.7451172-0.2460938-2.2246094-0.734375
			c-0.4785156-0.4873047-0.6601562-1.1074219-0.5429688-1.859375c0.046875-0.2910156,0.1171875-0.59375,0.203125-0.8974609
			c0.09375-0.3037109,0.2109375-0.6494141,0.3642578-1.0322266l1.6142578-3.6572266
			c0.1484375-0.3515625,0.2744141-0.6845703,0.3867188-0.9980469c0.1132812-0.3115234,0.1894531-0.5966797,0.2304688-0.8613281
			c0.0742188-0.4658203,0.03125-0.7880859-0.1347656-0.9736328c-0.1679688-0.1845703-0.5195312-0.2744141-1.0664062-0.2744141
			c-0.2685547,0-0.5527344,0.0429688-0.8476562,0.1240234c-0.2929688,0.0898438-0.546875,0.1640625-0.7617188,0.2431641
			l0.453125-1.1318359c0.7246094-0.2744141,1.40625-0.5097656,2.0546875-0.7070312
			c0.6523438-0.1962891,1.2539062-0.2929688,1.8046875-0.2929688c0.9951172,0,1.7246094,0.2382812,2.1894531,0.7207031
			c0.4619141,0.4785156,0.6328125,1.1044922,0.5117188,1.8710938c-0.0234375,0.1582031-0.0859375,0.4414062-0.1875,0.8417969
			c-0.1015625,0.3964844-0.2246094,0.7675781-0.3789062,1.0996094l-1.609375,3.6464844
			c-0.1269531,0.2929688-0.2539062,0.6269531-0.3828125,1.0039062c-0.1259766,0.3730469-0.2021484,0.6601562-0.234375,0.8496094
			c-0.0761719,0.4863281-0.0175781,0.8154297,0.1738281,0.9912109s0.5517578,0.2646484,1.0908203,0.2646484
			c0.2529297,0,0.5449219-0.046875,0.8769531-0.1337891c0.3349609-0.0908203,0.5791016-0.1669922,0.7294922-0.2353516
			L-23.7443848,701.3710938z M-20.623291,684.9306641c-0.0976562,0.6347656-0.4257812,1.1767578-0.9746094,1.6230469
			c-0.5527344,0.4453125-1.1660156,0.6699219-1.8417969,0.6699219c-0.6777344,0-1.2265625-0.2246094-1.640625-0.6699219
			c-0.4121094-0.4462891-0.5683594-0.9882812-0.46875-1.6230469s0.4277344-1.1757812,0.9824219-1.6269531
			c0.5566406-0.4511719,1.1699219-0.6777344,1.8505859-0.6777344c0.6757812,0,1.2177734,0.2265625,1.6259766,0.6777344
			C-20.677002,683.7548828-20.5236816,684.2958984-20.623291,684.9306641z"/>
	</g>
</g>
</svg>
