<?xml version="1.0" encoding="utf-8"?>
<!-- Generator: Adobe Illustrator 16.2.1, SVG Export Plug-In . SVG Version: 6.00 Build 0)  -->
<!DOCTYPE svg PUBLIC "-//W3C//DTD SVG 1.1 Tiny//EN" "http://www.w3.org/Graphics/SVG/1.1/DTD/svg11-tiny.dtd">
<svg version="1.1" baseProfile="tiny" id="Lag_1" xmlns="http://www.w3.org/2000/svg" xmlns:xlink="http://www.w3.org/1999/xlink"
	 x="0px" y="0px" width="32px" height="32px" viewBox="-41.4997559 676.5 32 32" xml:space="preserve">
<rect x="-41.4997559" y="676.5" fill="none" width="32" height="32"/>
<g>
	<path fill="none" d="M-24.8005371,701.8769531c-0.6298828,0-1.0517578-0.1035156-1.2763672-0.3085938
		c-0.2236328-0.2060547-0.2919922-0.5908203-0.2011719-1.1601562c0.0371094-0.2207031,0.1259766-0.5546875,0.2724609-0.9921875
		c0.1503906-0.4404297,0.2988281-0.8300781,0.4482422-1.171875l1.8798828-4.2626953
		c0.1806641-0.3896484,0.3242188-0.8212891,0.4433594-1.2851562c0.1181641-0.4677734,0.1923828-0.7998047,0.21875-0.9853516
		c0.1425781-0.8945312-0.0566406-1.6269531-0.5976562-2.1855469c-0.5429688-0.5634766-1.3955078-0.84375-2.5585938-0.84375
		c-0.6445312,0-1.3476562,0.1142578-2.1083984,0.34375c-0.7597656,0.2304688-1.5546875,0.5058594-2.4033203,0.8261719
		l-0.5292969,1.3222656c0.2509766-0.0917969,0.5478516-0.1787109,0.890625-0.2841797
		c0.3457031-0.0947266,0.6777344-0.1445312,0.9902344-0.1445312c0.640625,0,1.0517578,0.1044922,1.2460938,0.3212891
		s0.2441406,0.5917969,0.1582031,1.1376953c-0.0478516,0.3085938-0.1376953,0.6435547-0.2695312,1.0068359
		c-0.1298828,0.3662109-0.2783203,0.7558594-0.4521484,1.1660156l-1.8857422,4.2753906
		c-0.1787109,0.4472656-0.3173828,0.8505859-0.4267578,1.2050781c-0.1005859,0.3554688-0.1826172,0.7089844-0.2373047,1.0488281
		c-0.1367188,0.8789062,0.0761719,1.6044922,0.6347656,2.1738281c0.5615234,0.5712891,1.4238281,0.8583984,2.5996094,0.8583984
		c0.7636719,0,1.4482422-0.1005859,2.0546875-0.3007812c0.6142578-0.2001953,1.4306641-0.4892578,2.4570312-0.8720703
		l0.5302734-1.3193359c-0.1767578,0.0791016-0.4628906,0.1689453-0.8525391,0.2744141
		C-24.1638184,701.8222656-24.5056152,701.8769531-24.8005371,701.8769531z"/>
	<path fill="none" d="M-22.2507324,680.8574219c-0.796875,0-1.5136719,0.265625-2.1640625,0.7919922
		c-0.6484375,0.5273438-1.03125,1.1591797-1.1484375,1.9013672c-0.1162109,0.7421875,0.0664062,1.375,0.5498047,1.8974609
		c0.4833984,0.5205078,1.1240234,0.7822266,1.9160156,0.7822266c0.7900391,0,1.5068359-0.2617188,2.1523438-0.7822266
		c0.6416016-0.5224609,1.0253906-1.1552734,1.1396484-1.8974609c0.1162109-0.7421875-0.0615234-1.3740234-0.5449219-1.9013672
		C-20.8269043,681.1230469-21.4606934,680.8574219-22.2507324,680.8574219z"/>
	<path d="M-25.4997559,677.5c-8.2841797,0-15,6.7167969-15,15c0,8.2841797,6.7158203,15,15,15c8.2832031,0,15-6.7158203,15-15
		C-10.4997559,684.2167969-17.2165527,677.5-25.4997559,677.5z M-23.4528809,702.765625
		c-1.0263672,0.3828125-1.8427734,0.671875-2.4570312,0.8720703c-0.6064453,0.2001953-1.2910156,0.3007812-2.0546875,0.3007812
		c-1.1757812,0-2.0380859-0.2871094-2.5996094-0.8583984c-0.5585938-0.5693359-0.7714844-1.2949219-0.6347656-2.1738281
		c0.0546875-0.3398438,0.1367188-0.6933594,0.2373047-1.0488281c0.109375-0.3544922,0.2480469-0.7578125,0.4267578-1.2050781
		l1.8857422-4.2753906c0.1738281-0.4101562,0.3222656-0.7998047,0.4521484-1.1660156
		c0.1318359-0.3632812,0.2216797-0.6982422,0.2695312-1.0068359c0.0859375-0.5458984,0.0361328-0.9208984-0.1582031-1.1376953
		s-0.6054688-0.3212891-1.2460938-0.3212891c-0.3125,0-0.6445312,0.0498047-0.9902344,0.1445312
		c-0.3427734,0.1054688-0.6396484,0.1923828-0.890625,0.2841797l0.5292969-1.3222656
		c0.8486328-0.3203125,1.6435547-0.5957031,2.4033203-0.8261719c0.7607422-0.2294922,1.4638672-0.34375,2.1083984-0.34375
		c1.1630859,0,2.015625,0.2802734,2.5585938,0.84375c0.5410156,0.5585938,0.7402344,1.2910156,0.5976562,2.1855469
		c-0.0263672,0.1855469-0.1005859,0.5175781-0.21875,0.9853516c-0.1191406,0.4638672-0.2626953,0.8955078-0.4433594,1.2851562
		l-1.8798828,4.2626953c-0.1494141,0.3417969-0.2978516,0.7314453-0.4482422,1.171875
		c-0.1464844,0.4375-0.2353516,0.7714844-0.2724609,0.9921875c-0.0908203,0.5693359-0.0224609,0.9541016,0.2011719,1.1601562
		c0.2246094,0.2050781,0.6464844,0.3085938,1.2763672,0.3085938c0.2949219,0,0.6367188-0.0546875,1.0253906-0.15625
		c0.3896484-0.1054688,0.6757812-0.1953125,0.8525391-0.2744141L-23.4528809,702.765625z M-19.8054199,683.5507812
		c-0.1142578,0.7421875-0.4980469,1.375-1.1396484,1.8974609c-0.6455078,0.5205078-1.3623047,0.7822266-2.1523438,0.7822266
		c-0.7919922,0-1.4326172-0.2617188-1.9160156-0.7822266c-0.4833984-0.5224609-0.6660156-1.1552734-0.5498047-1.8974609
		c0.1171875-0.7421875,0.5-1.3740234,1.1484375-1.9013672c0.6503906-0.5263672,1.3671875-0.7919922,2.1640625-0.7919922
		c0.7900391,0,1.4238281,0.265625,1.9003906,0.7919922C-19.8669434,682.1767578-19.689209,682.8085938-19.8054199,683.5507812z"/>
</g>
</svg>
