<?xml version="1.0" encoding="utf-8"?>
<!-- Generator: Adobe Illustrator 17.1.0, SVG Export Plug-In . SVG Version: 6.00 Build 0)  -->
<!DOCTYPE svg PUBLIC "-//W3C//DTD SVG 1.1 Tiny//EN" "http://www.w3.org/Graphics/SVG/1.1/DTD/svg11-tiny.dtd">
<svg version="1.1" baseProfile="tiny" id="Lag_1" xmlns="http://www.w3.org/2000/svg" xmlns:xlink="http://www.w3.org/1999/xlink"
	 x="0px" y="0px" viewBox="-41.4997559 676.5 32 32" xml:space="preserve">
<g>
	<polygon fill="#1C2021" points="-24.4995918,704.1370239 -24.4995918,690.5019531 -25.4997559,690.5019531 
		-25.4997559,704.1360474 -29.1038437,700.5319214 -29.8110104,701.2391357 -24.9991741,706.050415 -20.1883392,701.2391357 
		-20.895504,700.5319214 	"/>
	<path fill="#1C2021" d="M-15.9840517,686.4886475c0.0019503-0.0800781,0.0117521-0.1572876,0.0117521-0.2373657
		c0-4.2809448-3.4703178-7.7512817-7.7512665-7.7512817c-3.0845032,0-5.7401867,1.8059692-6.9874916,4.4138184
		c-0.5401382-0.2714844-1.1476364-0.4277954-1.7922916-0.4277954c-1.9798241,0-3.6197433,1.4406738-3.940094,3.3296509
		c-2.3577766,0.8087158-4.0563126,3.0395508-4.0563126,5.6727905c0,3.3120728,2.6849899,5.9970703,5.9960785,6.000061h6.0034313
		v-1.0001831h-6.0024319c-2.7553482-0.0029297-4.9969139-2.2455444-4.9969139-4.9998779
		c0-2.1341553,1.3586197-4.0338745,3.3804512-4.7272949l0.5625916-0.1924438l0.0986176-0.5860596
		c0.2451897-1.4464722,1.4875412-2.49646,2.9545822-2.49646c0.466877,0,0.9190998,0.1083984,1.3420181,0.3212891
		l0.9122505,0.4580688l0.4395218-0.9200439c1.1183815-2.3363037,3.5074215-3.8453369,6.0859928-3.8453369
		c3.723259,0,6.7511024,3.027832,6.7511024,6.7510986c0,0.0205078-0.0019493,0.0419922-0.0039005,0.0625
		c-0.0029507,0.0498657-0.0059013,0.0996704-0.0068512,0.1503906l-0.025404,1.0206909l1.0216675,0.0039673
		c2.4740038,0.0067749,4.4870329,2.0256958,4.4870329,4.4996948c0,2.4672241-2.0091286,4.486084-4.4772816,4.4988403
		l-0.2187853,0.0009766h-5.3031158v1.0001831h5.5268021v-0.0010376c3.0248938-0.015625,5.4725437-2.4710693,5.4725437-5.4989624
		C-10.4997559,688.9558716-12.9532566,686.4974365-15.9840517,686.4886475z"/>
</g>
</svg>
