<?xml version="1.0" encoding="utf-8"?>
<!-- Generator: Adobe Illustrator 17.1.0, SVG Export Plug-In . SVG Version: 6.00 Build 0)  -->
<!DOCTYPE svg PUBLIC "-//W3C//DTD SVG 1.1 Tiny//EN" "http://www.w3.org/Graphics/SVG/1.1/DTD/svg11-tiny.dtd">
<svg version="1.1" baseProfile="tiny" id="Lag_1" xmlns="http://www.w3.org/2000/svg" xmlns:xlink="http://www.w3.org/1999/xlink"
	 x="0px" y="0px" viewBox="-41.4997559 676.5 32 32" xml:space="preserve">
<g>
	<polygon fill="#1C2021" points="-20.8964539,695.434082 -20.1892891,694.7269287 -25.0006237,689.9155884 -29.8115101,694.7269287 
		-29.1043453,695.434082 -25.4968052,691.8261108 -25.4968052,706.43396 -24.4966412,706.43396 -24.4966412,691.8339233 	"/>
	<path fill="#1C2021" d="M-15.9840517,688.4885864c0.0019503-0.0800171,0.0117521-0.1572266,0.0117521-0.2373047
		c0-4.2809448-3.4703178-7.7512817-7.7512665-7.7512817c-3.0845032,0-5.7401867,1.8059692-6.9874916,4.4138184
		c-0.5401382-0.2715454-1.1476364-0.4277954-1.7922916-0.4277954c-1.9798241,0-3.6197433,1.4406738-3.940094,3.3296509
		c-2.3577843,0.8087158-4.0563126,3.0394897-4.0563126,5.6727905c0,3.3120728,2.6849899,5.9970703,5.9960785,6h6.0034313v-1.0001831
		h-6.0024319c-2.7553482-0.0028687-4.9969139-2.2454834-4.9969139-4.9998169c0-2.1341553,1.3586311-4.0338745,3.3804626-4.727356
		l0.5625916-0.1923828l0.0986061-0.5860596c0.2451897-1.4465332,1.4875412-2.496521,2.9545822-2.496521
		c0.4668846,0,0.9190998,0.1084595,1.3420296,0.3213501l0.9122391,0.4580688l0.4395218-0.9200439
		c1.1183815-2.3363037,3.5074215-3.8453369,6.0859928-3.8453369c3.723259,0,6.7511024,3.027832,6.7511024,6.7510986
		c0,0.0205078-0.0019493,0.0419922-0.0039005,0.0625c-0.0029507,0.0498047-0.0059013,0.0996094-0.0068512,0.1503906
		l-0.025404,1.0206909l1.0216675,0.0039062c2.4740152,0.0068359,4.4870329,2.0257568,4.4870329,4.4997559
		c0,2.4672241-2.009078,4.486084-4.4772816,4.4988403l-0.2187853,0.0009155h-5.3031158v1.0001831h5.5268021v-0.0009766
		c3.0248938-0.015625,5.4725437-2.4710693,5.4725437-5.4989624
		C-10.4997559,690.9558105-12.9532566,688.4974365-15.9840517,688.4885864z"/>
</g>
</svg>
