<?xml version="1.0" encoding="utf-8"?>
<!-- Generator: Adobe Illustrator 14.0.0, SVG Export Plug-In  -->
<!DOCTYPE svg PUBLIC "-//W3C//DTD SVG 1.1 Tiny//EN" "http://www.w3.org/Graphics/SVG/1.1/DTD/svg11-tiny.dtd" [
	<!ENTITY ns_flows "http://ns.adobe.com/Flows/1.0/">
]>
<svg version="1.1" baseProfile="tiny"
	 xmlns="http://www.w3.org/2000/svg" xmlns:xlink="http://www.w3.org/1999/xlink" xmlns:a="http://ns.adobe.com/AdobeSVGViewerExtensions/3.0/"
	 x="0px" y="0px" width="32px" height="32px" viewBox="0 0 32 32" xml:space="preserve">
<defs>
</defs>
<rect fill="none" width="32" height="32"/>
<path id="path3214_2_" d="M22.1953125,15.9995117c0,3.4233398-2.7744141,6.1958008-6.1953125,6.1958008
	c-3.421875,0-6.1962891-2.7724609-6.1962891-6.1958008c0-3.4213867,2.7744141-6.1953125,6.1962891-6.1953125
	C19.4208984,9.8041992,22.1953125,12.578125,22.1953125,15.9995117L22.1953125,15.9995117z"/>
<path d="M20.1474609,23.1953125c-1.6328125,0.9423828-3.4541016,1.2597656-5.1918945,1.0361328l-1.9682617,7.4765625
	c3.6435547,0.7021484,7.5458984,0.1601562,11.0117188-1.8398438c3.4892578-2.015625,5.9199219-5.1503906,7.1269531-8.6865234
	L23.6455078,19.15625C22.9736328,20.7949219,21.7998047,22.2431641,20.1474609,23.1953125z"/>
<path d="M8.8203125,20.1601562c-0.9624023-1.6660156-1.2700195-3.5263672-1.0205078-5.2949219l-6.2451172-1.690918
	c-0.6650391,3.3759766-0.171875,6.996582,1.6835938,10.2084961c1.8564453,3.2167969,4.7470703,5.4541016,8.0053711,6.5654297
	l1.6523438-6.2744141C11.2426758,23.0039062,9.78125,21.8261719,8.8203125,20.1601562z"/>
<path d="M11.8554688,8.8334961c1.6430664-0.9487305,3.4741211-1.262207,5.21875-1.0322266l1.9755859-7.5024414
	C15.3911133-0.4130859,11.472168,0.1279297,7.9902344,2.137207c-3.4760742,2.0073242-5.9008789,5.1245117-7.1162109,8.640625
	l7.5112305,2.0341797C9.0620117,11.1982422,10.2241211,9.7749023,11.8554688,8.8334961z"/>
<path d="M23.1816406,11.8686523c0.9511719,1.6459961,1.2646484,3.4804688,1.03125,5.2290039l6.2470703,1.6914062
	c0.6455078-3.3579102,0.1484375-6.9506836-1.6953125-10.1435547c-1.8515625-3.2075195-4.7314453-5.4414062-7.9794922-6.5556641
	l-1.6523438,6.2773438C20.7753906,9.0380859,22.2265625,10.2124023,23.1816406,11.8686523z"/>
</svg>
