<?xml version="1.0" encoding="utf-8"?>
<!-- Generator: Adobe Illustrator 15.0.2, SVG Export Plug-In  -->
<!DOCTYPE svg PUBLIC "-//W3C//DTD SVG 1.1 Tiny//EN" "http://www.w3.org/Graphics/SVG/1.1/DTD/svg11-tiny.dtd" [
	<!ENTITY ns_flows "http://ns.adobe.com/Flows/1.0/">
]>
<svg version="1.1" baseProfile="tiny"
	 xmlns="http://www.w3.org/2000/svg" xmlns:xlink="http://www.w3.org/1999/xlink" xmlns:a="http://ns.adobe.com/AdobeSVGViewerExtensions/3.0/"
	 x="0px" y="0px" width="32px" height="32px" viewBox="0 0 32 32" overflow="visible" xml:space="preserve">
<defs>
</defs>
<rect fill="none" width="32" height="32"/>
<path d="M23.4667969,19.1992188c-2.1328125,2.1347656-2.1328125,4.2675781-4.2675781,4.2675781
	c-2.1328125,0-4.265625-2.1328125-6.3994141-4.2675781c-2.1328125-2.1328125-4.2666016-4.265625-4.2666016-6.3984375
	c0-2.1347656,2.1337891-2.1347656,4.2666016-4.2675781C14.9335938,6.4003906,8.5332031,0,6.4003906,0
	C4.2666016,0,0,6.4003906,0,6.4003906c0,4.265625,4.3837891,12.9160156,8.5332031,17.0664062
	C12.6835938,27.6171875,21.3339844,32,25.5996094,32C25.5996094,32,32,27.7324219,32,25.5996094
	S25.5996094,17.0664062,23.4667969,19.1992188z"/>
</svg>
