<?xml version="1.0" encoding="utf-8"?>
<!-- Generator: Adobe Illustrator 16.2.1, SVG Export Plug-In . SVG Version: 6.00 Build 0)  -->
<!DOCTYPE svg PUBLIC "-//W3C//DTD SVG 1.1 Tiny//EN" "http://www.w3.org/Graphics/SVG/1.1/DTD/svg11-tiny.dtd">
<svg version="1.1" baseProfile="tiny" id="Lag_1" xmlns="http://www.w3.org/2000/svg" xmlns:xlink="http://www.w3.org/1999/xlink"
	 x="0px" y="0px" width="32px" height="32px" viewBox="-41.4997559 676.5 32 32" xml:space="preserve">
<rect x="-41.4997559" y="676.5" fill="none" width="32" height="32"/>
<path d="M-13.4997559,688.5l-3.8730469-11.1416016c-0.2426758-0.6660156-0.9521484-1.0166016-1.5839844-0.7900391
	l-21.753418,7.9414062c-0.6333008,0.2304688-0.9506836,0.9570312-0.7080078,1.6230469l3.918457,9.5078125v-3.9716797
	c0-2.2988281,1.3691406-3.1689453,3.6289062-3.1689453h5.7475586l6.8579102-6.9384766L-17.2980957,688.5H-13.4997559z
	 M-11.4997559,690.5h-22c-1,0-2,1-2,2v14c0,1,1.03125,2,2,2h22.03125c0.96875,0,1.96875-1,1.96875-2v-14
	C-9.4997559,691.53125-10.4997559,690.5-11.4997559,690.5 M-12.4997559,705.5h-20v-3l3.7753906-6.8300781l4.4291992,5.5
	l4.1552734-4.2607422l5.340332-1.9287109L-12.4997559,699.5V705.5z"/>
</svg>
