<?xml version="1.0" encoding="utf-8"?>
<!-- Generator: Adobe Illustrator 16.2.1, SVG Export Plug-In . SVG Version: 6.00 Build 0)  -->
<!DOCTYPE svg PUBLIC "-//W3C//DTD SVG 1.1 Tiny//EN" "http://www.w3.org/Graphics/SVG/1.1/DTD/svg11-tiny.dtd">
<svg version="1.1" baseProfile="tiny" id="Lag_1" xmlns="http://www.w3.org/2000/svg" xmlns:xlink="http://www.w3.org/1999/xlink"
	 x="0px" y="0px" width="32px" height="32px" viewBox="-41.4997559 676.5 32 32" xml:space="preserve">
<rect x="-41.4997559" y="676.5" fill="none" width="32" height="32"/>
<path d="M-26.4997559,703.5l-5,2l-1-1l6-4v-2h-11c-1,0-1.5-0.6269531-1.5-1.5c0-0.8300781,0.5-1.5,1.5-1.5v-14
	c-0.8295898-0.0429688-1.5-0.7128906-1.5-1.5c0-0.8710938,0.6264648-1.5,1.5-1.5h11l0.7998047-2h0.4003906l0.7998047,2h11
	c0.8735352,0,1.5,0.6289062,1.5,1.5c0,0.8730469-0.6264648,1.5-1.5,1.5v14c1,0,1.5,0.6269531,1.5,1.5s-0.5,1.5-1.5,1.5h-11v2l6,4
	l-1,1l-5-2v4c0,0.6113281-0.3886719,1-1,1c-0.6552734,0-1-0.3886719-1-1V703.5z M-15.4997559,681.5h-20v14h20V681.5z"/>
</svg>
