<?xml version="1.0" encoding="utf-8"?>
<!-- Generator: Adobe Illustrator 19.1.0, SVG Export Plug-In . SVG Version: 6.00 Build 0)  -->
<!DOCTYPE svg PUBLIC "-//W3C//DTD SVG 1.1//EN" "http://www.w3.org/Graphics/SVG/1.1/DTD/svg11.dtd">
<svg version="1.1" id="Layer_1" xmlns="http://www.w3.org/2000/svg" xmlns:xlink="http://www.w3.org/1999/xlink" x="0px" y="0px"
	 viewBox="-41 676.8900146 32 32" style="enable-background:new -41 676.8900146 32 32;" xml:space="preserve">
<g>
	<path d="M-25.3701591,699.0690918h-1.5869274l-0.0215282-1.3447266c0-1.3955078,0.1264019-2.5576172,0.380312-3.4863281
		c0.253355-0.9287109,0.7424049-1.9882812,1.4671478-3.1796875c1.013979-1.6386719,2.2338638-2.5739746,2.7847748-3.4960938
		c0.4922142-0.8239136,0.8672142-1.8294678,0.8672142-2.8031006c0-1.5361328-0.4962444-2.6923828-1.2916679-3.5
		c-0.7960224-0.8066406-2.1052895-1.3043213-3.3821678-1.3043213c-0.9929276,0-1.968708,0.144165-2.6386642,0.5543213
		c-0.7693405,0.418335-1.145834,0.854187-1.2916679,1.270874c-0.1079063,0.3082886-0.1353283,0.6480103,0.4013062,0.9248047
		c0.8824673,0.4619141,1.2289028,0.6064453,1.6544781,1.0380859c0.4057827,0.4115601,0.5679016,0.9492188,0.5679016,1.5390625
		c0,0.78125-0.2876129,1.5004883-0.9778519,2.0813599c-0.6906528,0.5812378-1.25,0.8125-2.125,0.8125
		c-1.0403519,0-1.6952019-0.3206177-2.3835144-0.9807739s-1.0327454-1.5292969-1.0327454-2.6054688
		c0-1.7431641,0.7937393-3.2431641,2.3806686-4.5c1.5869274-1.2558594,3.6629047-1.8847656,6.227932-1.8847656
		c2.5214214,0,4.5935345,0.6796875,6.2168922,2.0371094c1.6228065,1.3574219,2.434761,2.9970703,2.434761,4.9179688
		c0,0.78125-0.1451702,1.5595703-0.4349556,2.3339844c-0.2897873,0.7753906-0.6811371,1.4511719-1.1734982,2.0273438
		c-0.4929142,0.5761719-1.4130573,1.3642578-2.7609787,2.3623047c-1.3186684,0.9736328-2.228323,1.7646484-2.7278595,2.3730469
		c-0.5000896,0.6083984-0.884264,1.2939453-1.1525249,2.0556641
		C-25.2365818,697.0739746-25.3701591,697.9938965-25.3701591,699.0690918z M-26.0214844,701.2810059
		c0.9228516,0,1.7045898,0.3232422,2.3457031,0.9707031s0.9619141,1.4326172,0.9619141,2.3554688
		s-0.3242188,1.7089844-0.9711914,2.3554688c-0.6474609,0.6474609-1.4262695,0.9716797-2.3364258,0.9716797
		c-0.9106445,0-1.6894531-0.3242188-2.3364258-0.9716797c-0.6474609-0.6464844-0.9711914-1.4326172-0.9711914-2.3554688
		s0.3237305-1.7080078,0.9711914-2.3554688C-27.7109375,701.604248-26.9321289,701.2810059-26.0214844,701.2810059z"/>
</g>
</svg>
