<?xml version="1.0" encoding="utf-8"?>
<!-- Generator: Adobe Illustrator 19.1.0, SVG Export Plug-In . SVG Version: 6.00 Build 0)  -->
<!DOCTYPE svg PUBLIC "-//W3C//DTD SVG 1.1//EN" "http://www.w3.org/Graphics/SVG/1.1/DTD/svg11.dtd">
<svg version="1.1" id="Layer_1" xmlns="http://www.w3.org/2000/svg" xmlns:xlink="http://www.w3.org/1999/xlink" x="0px" y="0px"
	 viewBox="-41 676.8900146 32 32" style="enable-background:new -41 676.8900146 32 32;" xml:space="preserve">
<style type="text/css">
	.st0{fill:#1D1D1B;}
</style>
<g id="icomoon-ignore">
</g>
<g>
	<g>
		<path class="st0" d="M-26.6105385,683.7368164c-1.3648262,0.7804565-2.4684582,1.4536133-3.3098602,2.0172729
			c-0.8424358,0.5657349-1.6982918,1.3111572-2.5685997,2.236145c-0.81353,0.8672485-1.4370956,1.7799072-1.8727684,2.7338257
			c-0.4356689,0.9559937-0.7402267,2.1845093-0.9147034,3.6897583h2.0906029c1.7994671,0,3.2148819,0.4418945,4.2452126,1.3276978
			c1.0303307,0.8857422,1.545496,2.1845093,1.545496,3.8962402c0,1.2202759-0.4573517,2.3600464-1.3710213,3.4193115
			c-0.9147034,1.0592041-2.1711292,1.5898438-3.7672138,1.5898438c-2.4963303,0-4.2813454-0.8197021-5.3550377-2.4570923
			C-38.9631538,700.5545044-39.5,698.4009399-39.5,695.7352905c0-1.8830566,0.4057312-3.598938,1.2192612-5.1495972
			c0.8124924-1.548584,1.7994652-2.934082,2.9609108-4.1502075c1.1903496-1.2450562,2.4529724-2.3043213,3.787859-3.173584
			c1.3348885-0.8692627,2.4529724-1.5775146,3.3532219-2.1287842L-26.6105385,683.7368164z M-10.5,683.7368164
			c-1.3648272,0.7804565-2.4674263,1.4536133-3.3088284,2.0172729c-0.8424358,0.5657349-1.6982918,1.3111572-2.5696335,2.236145
			c-0.8424358,0.8961792-1.4732285,1.8150024-1.8944473,2.7565308c-0.4201851,0.9394531-0.717514,2.1618042-0.8919888,3.6670532
			h2.0895691c1.7994652,0,3.21488,0.4418945,4.2462435,1.3276978c1.0292988,0.8857422,1.5454969,2.1845093,1.5454969,3.8962402
			c0,1.2202759-0.4573517,2.3600464-1.3720541,3.4193115c-0.9136705,1.0592041-2.1700964,1.5898438-3.766181,1.5898438
			c-2.497364,0-4.2823772-0.8197021-5.3560696-2.4570923c-1.0736904-1.6353149-1.6105366-3.7888794-1.6105366-6.4545288
			c0-1.8830566,0.4057312-3.598938,1.2192593-5.1495972c0.8114624-1.548584,1.7994652-2.934082,2.9609108-4.1502075
			c1.1893196-1.2450562,2.4519405-2.3043213,3.7878609-3.173584c1.3348875-0.8692627,2.4529724-1.5775146,3.3532219-2.1287842
			L-10.5,683.7368164z"/>
	</g>
</g>
</svg>
