<?xml version="1.0" encoding="utf-8"?>
<!-- Generator: Adobe Illustrator 18.0.0, SVG Export Plug-In . SVG Version: 6.00 Build 0)  -->
<!DOCTYPE svg PUBLIC "-//W3C//DTD SVG 1.1 Tiny//EN" "http://www.w3.org/Graphics/SVG/1.1/DTD/svg11-tiny.dtd">
<svg version="1.1" baseProfile="tiny" id="Lag_1" xmlns="http://www.w3.org/2000/svg" xmlns:xlink="http://www.w3.org/1999/xlink"
	 x="0px" y="0px" viewBox="-41.5 676.5 32 32" xml:space="preserve">
<rect x="-41.5" y="676.5" fill="none" width="32" height="32"/>
<rect x="-41.5" y="676.5" fill="none" width="32" height="32"/>
<g>
	<path fill-rule="evenodd" d="M-14.5,698.5c-1.646,0-3.093,0.806-4.004,2.032l-13.191-6.722c0.115-0.42,0.195-0.854,0.195-1.31
		c0-0.571-0.116-1.112-0.293-1.623l13.266-6.437c0.91,1.243,2.368,2.06,4.027,2.06c2.761,0,5-2.239,5-5c0-2.761-2.239-5-5-5
		s-5,2.238-5,5c0,0.388,0.054,0.762,0.138,1.125l-13.449,6.526c-0.915-1.007-2.222-1.651-3.689-1.651c-2.761,0-5,2.238-5,5
		c0,2.762,2.239,5,5,5c1.589,0,2.987-0.755,3.903-1.91l13.246,6.75c-0.089,0.374-0.149,0.759-0.149,1.16c0,2.762,2.239,5,5,5
		s5-2.239,5-5C-9.5,700.739-11.738,698.5-14.5,698.5z M-14.5,678.5c1.657,0,3,1.343,3,3c0,1.657-1.343,3-3,3c-1.657,0-3-1.343-3-3
		C-17.5,679.843-16.157,678.5-14.5,678.5z M-36.5,695.5c-1.657,0-3-1.343-3-3c0-1.657,1.343-3,3-3c1.657,0,3,1.343,3,3
		C-33.5,694.157-34.843,695.5-36.5,695.5z M-14.5,706.5c-1.657,0-3-1.343-3-3c0-1.657,1.343-3,3-3c1.657,0,3,1.343,3,3
		C-11.5,705.157-12.843,706.5-14.5,706.5z"/>
</g>
</svg>
