<?xml version="1.0" encoding="utf-8"?>
<!-- Generator: Adobe Illustrator 16.2.1, SVG Export Plug-In . SVG Version: 6.00 Build 0)  -->
<!DOCTYPE svg PUBLIC "-//W3C//DTD SVG 1.1//EN" "http://www.w3.org/Graphics/SVG/1.1/DTD/svg11.dtd">
<svg version="1.1" id="Lag_1" xmlns="http://www.w3.org/2000/svg" xmlns:xlink="http://www.w3.org/1999/xlink" x="0px" y="0px"
	 width="32px" height="32px" viewBox="-41.4997559 676.5 32 32" enable-background="new -41.4997559 676.5 32 32"
	 xml:space="preserve">
<rect x="-41.4997559" y="676.5" fill="none" width="32" height="32"/>
<path d="M-17.4997559,700.5h-20v-14h5.3525391c0,0,1.9599609-2.75,5.6474609-4h-13.5c-0.8847656,0-1.5,0.6171875-1.5,1.5v18.8994141
	c0,0.8847656,0.7163086,1.6005859,1.6010742,1.6005859h24.8364258c0.8842773,0,1.5625-0.7158203,1.5625-1.6005859V695.5l-4,3V700.5z
	 M-19.4997559,695.5l10-8l-10-8v5c-12.9018555,0-13,13.2792969-13,13.2792969c3.6518555-5.9970703,5.9956055-7.2792969,13-7.2792969
	"/>
</svg>
