<?xml version="1.0" encoding="utf-8"?>
<!-- Generator: Adobe Illustrator 18.0.0, SVG Export Plug-In . SVG Version: 6.00 Build 0)  -->
<!DOCTYPE svg PUBLIC "-//W3C//DTD SVG 1.1 Tiny//EN" "http://www.w3.org/Graphics/SVG/1.1/DTD/svg11-tiny.dtd">
<svg version="1.1" baseProfile="tiny" id="Lag_1" xmlns="http://www.w3.org/2000/svg" xmlns:xlink="http://www.w3.org/1999/xlink"
	 x="0px" y="0px" viewBox="-41.5 676.5 32 32" xml:space="preserve">
<rect x="-41.5" y="676.5" fill="none" width="32" height="32"/>
<rect x="-41.5" y="676.5" fill="none" width="32" height="32"/>
<path d="M-25.5,678.997l4.273,8.818l9.716,1.375l-7.006,7.049l1.612,9.759l-8.597-4.446l-8.597,4.447l1.612-9.76l-7.003-7.049
	l9.716-1.375L-25.5,678.997 M-25.501,677.001c-0.894,0-1.71,0.505-2.091,1.294l-3.618,7.512l-8.326,1.239
	c-0.855,0.128-1.565,0.711-1.841,1.511c-0.275,0.801-0.067,1.683,0.537,2.284l6.1,6.094l-1.415,8.45
	c-0.142,0.851,0.226,1.705,0.948,2.203c0.397,0.273,0.864,0.411,1.331,0.411c0.385,0,0.769-0.093,1.117-0.28l7.258-3.784l7.26,3.784
	c0.349,0.186,0.734,0.28,1.117,0.28c0.467,0,0.933-0.139,1.332-0.411c0.722-0.498,1.09-1.352,0.946-2.203l-1.415-8.45l6.103-6.094
	c0.604-0.601,0.811-1.483,0.536-2.284c-0.276-0.8-0.986-1.383-1.841-1.511l-8.325-1.239l-3.62-7.512
	C-23.788,677.506-24.604,677.001-25.501,677.001L-25.501,677.001z"/>
</svg>
