<?xml version="1.0" encoding="utf-8"?>
<!-- Generator: Adobe Illustrator 19.1.0, SVG Export Plug-In . SVG Version: 6.00 Build 0)  -->
<!DOCTYPE svg PUBLIC "-//W3C//DTD SVG 1.1//EN" "http://www.w3.org/Graphics/SVG/1.1/DTD/svg11.dtd">
<svg version="1.1" id="Lag_1" xmlns="http://www.w3.org/2000/svg" xmlns:xlink="http://www.w3.org/1999/xlink" x="0px" y="0px"
	 viewBox="-281 404.8900146 32 32" style="enable-background:new -281 404.8900146 32 32;" xml:space="preserve">
<style type="text/css">
	.st0{fill:none;}
</style>
<rect x="-281" y="404.8900146" class="st0" width="32" height="32"/>
<rect x="-281" y="404.8900146" class="st0" width="32" height="32"/>
<path d="M-265.0010071,405.3909912c-0.8939819,0-1.7099915,0.5050049-2.0910034,1.2940063l-3.617981,7.5120239l-8.3260193,1.2390137
	c-0.8549805,0.1279907-1.5650024,0.7109985-1.8410034,1.5109863c-0.2749939,0.8010254-0.0669861,1.6829834,0.5370178,2.2839966
	l6.1000061,6.0939941l-1.4150085,8.4500122c-0.1419983,0.8510132,0.2259827,1.7050171,0.947998,2.2030029
	c0.3970032,0.2730103,0.8639832,0.4110107,1.3309937,0.4110107c0.3850098,0,0.7690125-0.0930176,1.1170044-0.2800293
	l7.2579956-3.7839966l7.2600098,3.7839966c0.348999,0.1859741,0.7340088,0.2800293,1.1170044,0.2800293
	c0.4670105,0,0.9329987-0.1389771,1.3320007-0.4110107c0.7220001-0.4979858,1.0899963-1.3519897,0.9459991-2.2030029
	l-1.4150085-8.4500122l6.1030121-6.0939941c0.6039886-0.6010132,0.8109894-1.4829712,0.5359955-2.2839966
	c-0.276001-0.7999878-0.9860077-1.3829956-1.8410034-1.5109863l-8.3249969-1.2390137l-3.6199951-7.5120239
	C-263.2879944,405.8959961-264.1040039,405.3909912-265.0010071,405.3909912L-265.0010071,405.3909912z"/>
</svg>
