<?xml version="1.0" encoding="utf-8"?>
<!-- Generator: Adobe Illustrator 15.0.2, SVG Export Plug-In  -->
<!DOCTYPE svg PUBLIC "-//W3C//DTD SVG 1.1 Tiny//EN" "http://www.w3.org/Graphics/SVG/1.1/DTD/svg11-tiny.dtd" [
	<!ENTITY ns_flows "http://ns.adobe.com/Flows/1.0/">
]>
<svg version="1.1" baseProfile="tiny"
	 xmlns="http://www.w3.org/2000/svg" xmlns:xlink="http://www.w3.org/1999/xlink" xmlns:a="http://ns.adobe.com/AdobeSVGViewerExtensions/3.0/"
	 x="0px" y="0px" width="512px" height="512px" viewBox="0.5 0.5 512 512" overflow="visible" xml:space="preserve">
<defs>
</defs>
<line fill="none" stroke="#B35047" x1="32.5" y1="0.5" x2="32.5" y2="512.5"/>
<line fill="none" stroke="#B35047" x1="64.5" y1="0.5" x2="64.5" y2="512.5"/>
<line fill="none" stroke="#B35047" x1="96.5" y1="0.5" x2="96.5" y2="512.5"/>
<line fill="none" stroke="#B35047" x1="128.5" y1="0.5" x2="128.5" y2="512.5"/>
<line fill="none" stroke="#B35047" x1="160.5" y1="0.5" x2="160.5" y2="512.5"/>
<line fill="none" stroke="#B35047" x1="192.5" y1="0.5" x2="192.5" y2="512.5"/>
<line fill="none" stroke="#B35047" x1="224.5" y1="0.5" x2="224.5" y2="512.5"/>
<line fill="none" stroke="#B35047" x1="256.5" y1="0.5" x2="256.5" y2="512.5"/>
<line fill="none" stroke="#B35047" x1="288.5" y1="0.5" x2="288.5" y2="512.5"/>
<line fill="none" stroke="#B35047" x1="320.5" y1="0.5" x2="320.5" y2="512.5"/>
<line fill="none" stroke="#B35047" x1="352.5" y1="0.5" x2="352.5" y2="512.5"/>
<line fill="none" stroke="#B35047" x1="384.5" y1="0.5" x2="384.5" y2="512.5"/>
<line fill="none" stroke="#B35047" x1="416.5" y1="0.5" x2="416.5" y2="512.5"/>
<line fill="none" stroke="#B35047" x1="448.5" y1="0.5" x2="448.5" y2="512.5"/>
<line fill="none" stroke="#B35047" x1="480.5" y1="0.5" x2="480.5" y2="512.5"/>
<line fill="none" stroke="#B35047" x1="0.5" y1="32.5" x2="512.5" y2="32.5"/>
<line fill="none" stroke="#B35047" x1="0.5" y1="64.5" x2="512.5" y2="64.5"/>
<line fill="none" stroke="#B35047" x1="0.5" y1="96.5" x2="512.5" y2="96.5"/>
<line fill="none" stroke="#B35047" x1="0.5" y1="128.5" x2="512.5" y2="128.5"/>
<line fill="none" stroke="#B35047" x1="0.5" y1="160.5" x2="512.5" y2="160.5"/>
<line fill="none" stroke="#B35047" x1="0.5" y1="192.5" x2="512.5" y2="192.5"/>
<line fill="none" stroke="#B35047" x1="0.5" y1="224.5" x2="512.5" y2="224.5"/>
<line fill="none" stroke="#B35047" x1="0.5" y1="256.5" x2="512.5" y2="256.5"/>
<line fill="none" stroke="#B35047" x1="0.5" y1="288.5" x2="512.5" y2="288.5"/>
<line fill="none" stroke="#B35047" x1="0.5" y1="320.5" x2="512.5" y2="320.5"/>
<line fill="none" stroke="#B35047" x1="0.5" y1="352.5" x2="512.5" y2="352.5"/>
<line fill="none" stroke="#B35047" x1="0.5" y1="384.5" x2="512.5" y2="384.5"/>
<line fill="none" stroke="#B35047" x1="0.5" y1="416.5" x2="512.5" y2="416.5"/>
<line fill="none" stroke="#B35047" x1="0.5" y1="448.5" x2="512.5" y2="448.5"/>
<line fill="none" stroke="#B35047" x1="0.5" y1="480.5" x2="512.5" y2="480.5"/>
<rect x="0.5" y="0.5" fill="none" stroke="#B35047" width="512" height="512"/>
<path d="M464.40625,0.5H320.125c-26.453125,0-63.3979492,15.3027344-82.1020508,34.0068359L14.527832,258.0019531
	c-18.7036133,18.7041016-18.7036133,49.3125,0,68.015625l172.4550781,172.453125
	c18.7041016,18.7050781,49.3110352,18.7050781,68.0151367,0l223.4951172-223.4941406
	C497.1972656,256.2719727,512.5,219.3261719,512.5,192.875V48.59375C512.5,22.1420898,490.8574219,0.5,464.40625,0.5z M400.5,160.5
	c-26.5097656,0-48-21.4902344-48-48s21.4902344-48,48-48s48,21.4902344,48,48S427.0097656,160.5,400.5,160.5z"/>
</svg>
