<?xml version="1.0" encoding="utf-8"?>
<!-- Generator: Adobe Illustrator 18.0.0, SVG Export Plug-In . SVG Version: 6.00 Build 0)  -->
<!DOCTYPE svg PUBLIC "-//W3C//DTD SVG 1.1 Tiny//EN" "http://www.w3.org/Graphics/SVG/1.1/DTD/svg11-tiny.dtd">
<svg version="1.1" baseProfile="tiny" id="Lag_1" xmlns="http://www.w3.org/2000/svg" xmlns:xlink="http://www.w3.org/1999/xlink"
	 x="0px" y="0px" viewBox="-41.5 676.5 32 32" xml:space="preserve">
<rect x="-41.5" y="676.5" fill="none" width="32" height="32"/>
<rect x="-41.5" y="676.5" fill="none" width="32" height="32"/>
<g>
	<path fill-rule="evenodd" d="M-19.003,682.503c-1.934,0-3.501,1.568-3.501,3.501c0,1.934,1.568,3.501,3.501,3.501
		c1.934,0,3.501-1.568,3.501-3.501C-15.502,684.07-17.07,682.503-19.003,682.503z M-19.003,687.505
		c-0.829,0-1.501-0.672-1.501-1.501s0.672-1.501,1.501-1.501c0.829,0,1.5,0.672,1.5,1.501S-18.175,687.505-19.003,687.505z
		 M-12.083,676.499l-11.431,0.016c-1.808,0-3.164,0.45-4.521,1.801l-12.671,12.509c-1.059,1.056-1.059,2.766,0,3.821l13.116,13.063
		c1.059,1.055,2.777,1.055,3.836,0l12.898-12.733c1.356-1.351,1.356-4.316,1.356-4.953v-10.807
		C-9.5,677.725-10.585,676.499-12.083,676.499z M-11.501,689.912c0,0.537,0,3.039-1.145,4.179l-11.331,11.15
		c-0.895,0.89-2.345,0.89-3.24,0l-11.077-11.022c-0.895-0.89-0.895-2.333,0-3.224l11.139-10.961c1.145-1.14,2.291-1.52,3.818-1.52
		l9.654-0.014c1.265,0,2.182,1.034,2.182,2.293V689.912z"/>
</g>
</svg>
