<?xml version="1.0" encoding="utf-8"?>
<!-- Generator: Adobe Illustrator 19.1.0, SVG Export Plug-In . SVG Version: 6.00 Build 0)  -->
<!DOCTYPE svg PUBLIC "-//W3C//DTD SVG 1.1//EN" "http://www.w3.org/Graphics/SVG/1.1/DTD/svg11.dtd">
<svg version="1.1" id="Lag_1" xmlns="http://www.w3.org/2000/svg" xmlns:xlink="http://www.w3.org/1999/xlink" x="0px" y="0px"
	 viewBox="-281 404.8900146 32 32" style="enable-background:new -281 404.8900146 32 32;" xml:space="preserve">
<path d="M-251.5828857,404.8894043l-11.4309692,0.0159912c-1.8080444,0-3.1640015,0.4500122-4.5209961,1.8010254
	l-12.6710205,12.5089722c-1.05896,1.0560303-1.05896,2.7659912,0,3.8209839l13.1159668,13.0629883
	c1.059021,1.0549927,2.7770386,1.0549927,3.8360596,0l12.8979492-12.7329712
	c1.3560181-1.3510132,1.3560181-4.315979,1.3560181-4.9530029v-10.8070068
	C-248.9998779,406.1153564-250.0848999,404.8894043-251.5828857,404.8894043z M-258.5028687,417.8953247
	c-1.9329834,0-3.5009766-1.5669556-3.5009766-3.5009766c0-1.9329834,1.5669556-3.5009766,3.5009766-3.5009766
	c1.9329834,0,3.5009766,1.5670166,3.5009766,3.5009766C-255.0018921,416.3273315-256.5688477,417.8953247-258.5028687,417.8953247z"
	/>
</svg>
