<?xml version="1.0" encoding="utf-8"?>
<!-- Generator: Adobe Illustrator 19.1.0, SVG Export Plug-In . SVG Version: 6.00 Build 0)  -->
<!DOCTYPE svg PUBLIC "-//W3C//DTD SVG 1.1//EN" "http://www.w3.org/Graphics/SVG/1.1/DTD/svg11.dtd">
<svg version="1.1" id="Layer_1" xmlns="http://www.w3.org/2000/svg" xmlns:xlink="http://www.w3.org/1999/xlink" x="0px" y="0px"
	 viewBox="-41 676.8900146 16 16" style="enable-background:new -41 676.8900146 16 16;" xml:space="preserve">
<style type="text/css">
	.st0{fill-rule:evenodd;clip-rule:evenodd;}
</style>
<g>
	<path class="st0" d="M-28.9957008,678.8970337l-0.0079994-0.085022c-0.0419998-1.0670166-0.9139996-1.9219971-1.9920006-1.9219971
		h-2.9996986c-1.0779991,0-1.9500008,0.9329834-1.9920006,2l-0.0079994,0.007019h-3.0041008v0.992981l0.9179993,0.0009766
		l0.8751144,11.4280396c0.0493393,0.8659668,0.6449127,1.5709839,1.4105301,1.5709839h6.6605015
		c0.7656155,0,1.2290382-0.7050171,1.2783756-1.5709839l0.9633789-11.4280396l0.887001-0.0009766v-0.992981H-28.9957008z
		 M-34.9953995,678.8900146c0-0.552002,0.447998-1,1-1h2.9996986c0.552,0,1,0.447998,1,1v0.007019h-4.9996986V678.8900146z
		 M-28.7103615,691.0480347c-0.0245724,0.4459839-0.1737003,0.8239746-0.553297,0.8239746h-6.4056034
		c-0.3787498,0-0.6558189-0.3779907-0.6803932-0.8239746L-37.1875,679.8909912h9.3999004L-28.7103615,691.0480347z"/>
	<rect x="-32.9948997" y="681.8898315" class="st0" width="1" height="8.0003004"/>
	<polygon class="st0" points="-29.4951992,681.8898315 -30.4951992,681.8898315 -30.9627151,689.8901367 -29.9973831,689.8901367 	
		"/>
	<polygon class="st0" points="-34.4948997,681.8898315 -35.4948997,681.8898315 -34.9927101,689.8901367 -34.0273781,689.8901367 	
		"/>
</g>
</svg>
