<?xml version="1.0" encoding="utf-8"?>
<!-- Generator: Adobe Illustrator 14.0.0, SVG Export Plug-In  -->
<!DOCTYPE svg PUBLIC "-//W3C//DTD SVG 1.1 Tiny//EN" "http://www.w3.org/Graphics/SVG/1.1/DTD/svg11-tiny.dtd" [
	<!ENTITY ns_flows "http://ns.adobe.com/Flows/1.0/">
]>
<svg version="1.1" baseProfile="tiny"
	 xmlns="http://www.w3.org/2000/svg" xmlns:xlink="http://www.w3.org/1999/xlink" xmlns:a="http://ns.adobe.com/AdobeSVGViewerExtensions/3.0/"
	 x="0px" y="0px" width="32px" height="32px" viewBox="0 0 32 32" xml:space="preserve">
<defs>
</defs>
<rect fill="none" width="32" height="32"/>
<path d="M22.5917969,11.8320312c0,0,1.1640625-4.8085938,0-6.4379883c-1.1640625-1.628418-1.6298828-2.7138672-4.1884766-3.4902344
	c-2.5615234-0.7763672-1.628418-0.6225586-3.4902344-0.5429688c-1.8618164,0.078125-3.4140625,1.0849609-3.4140625,1.6274414
	c0,0-1.1625977,0.078125-1.6274414,0.5439453C9.40625,3.9985352,8.6303711,6.1679688,8.6303711,6.7119141
	c0,0.5449219,0.3886719,4.1899414,0.7758789,4.965332l-0.4614258,0.1547852
	c-0.3891602,4.4975586,1.5493164,5.0410156,1.5493164,5.0410156c0.6987305,4.1904297,1.3969727,2.40625,1.3969727,3.4921875
	c0,1.0839844-0.6982422,0.6982422-0.6982422,0.6982422s-0.6191406,1.7060547-2.1713867,2.3261719
	c-1.5498047,0.6191406-7.6982422,3.953125-8.3974609,4.6523438C-0.0761719,28.7421875,0.0029297,32,0.0029297,32h31.9941406
	c0,0,0.0820312-3.2578125-0.6191406-3.9580078c-0.7011719-0.6992188-6.8476562-4.0332031-8.3994141-4.6523438
	c-1.5507812-0.6201172-2.1699219-2.3261719-2.1699219-2.3261719s-0.6982422,0.3857422-0.6982422-0.6982422
	c0-1.0859375,0.6982422,0.6982422,1.3974609-3.4921875c0,0,1.9375-0.543457,1.5507812-5.0410156H22.5917969z"/>
</svg>
