<?xml version="1.0" encoding="utf-8"?>
<!-- Generator: Adobe Illustrator 17.1.0, SVG Export Plug-In . SVG Version: 6.00 Build 0)  -->
<!DOCTYPE svg PUBLIC "-//W3C//DTD SVG 1.1 Tiny//EN" "http://www.w3.org/Graphics/SVG/1.1/DTD/svg11-tiny.dtd">
<svg version="1.1" baseProfile="tiny" id="Lag_1" xmlns="http://www.w3.org/2000/svg" xmlns:xlink="http://www.w3.org/1999/xlink"
	 x="0px" y="0px" viewBox="-41.4997559 676.5 20 20" xml:space="preserve">
<rect x="-40.4997559" y="677.5" width="3" height="3"/>
<rect x="-35.4997559" y="677.5" width="7" height="1"/>
<rect x="-35.4997559" y="679.5" width="7" height="1"/>
<rect x="-26.4997559" y="677.5" width="4" height="1"/>
<rect x="-26.4997559" y="679.5" width="4" height="1"/>
<rect x="-40.4997559" y="682.5" width="3" height="3"/>
<rect x="-35.4997559" y="682.5" width="7" height="1"/>
<rect x="-35.4997559" y="684.5" width="7" height="1"/>
<rect x="-26.4997559" y="682.5" width="4" height="1"/>
<rect x="-26.4997559" y="684.5" width="4" height="1"/>
<rect x="-40.4997559" y="687.5" width="3" height="3"/>
<rect x="-35.4997559" y="687.5" width="7" height="1"/>
<rect x="-35.4997559" y="689.5" width="7" height="1"/>
<rect x="-26.4997559" y="687.5" width="4" height="1"/>
<rect x="-26.4997559" y="689.5" width="4" height="1"/>
<rect x="-40.4997559" y="692.5" width="3" height="3"/>
<rect x="-35.4997559" y="692.5" width="7" height="1"/>
<rect x="-35.4997559" y="694.5" width="7" height="1"/>
<rect x="-26.4997559" y="692.5" width="4" height="1"/>
<rect x="-26.4997559" y="694.5" width="4" height="1"/>
</svg>
