<?xml version="1.0" encoding="utf-8"?>
<!-- Generator: Adobe Illustrator 18.0.0, SVG Export Plug-In . SVG Version: 6.00 Build 0)  -->
<!DOCTYPE svg PUBLIC "-//W3C//DTD SVG 1.1//EN" "http://www.w3.org/Graphics/SVG/1.1/DTD/svg11.dtd">
<svg version="1.1" id="Lag_1" xmlns="http://www.w3.org/2000/svg" xmlns:xlink="http://www.w3.org/1999/xlink" x="0px" y="0px"
	 viewBox="-41.5 676.5 32 32" enable-background="new -41.5 676.5 32 32" xml:space="preserve">
<rect x="-41.5" y="676.5" fill="none" width="32" height="32"/>
<rect x="-41.5" y="676.5" fill="none" width="32" height="32"/>
<g>
	<g>
		<path fill-rule="evenodd" clip-rule="evenodd" d="M-25.5,686.5c-3.314,0-6,2.687-6,6c0,3.314,2.686,6,6,6c3.314,0,6-2.686,6-6
			C-19.5,689.186-22.186,686.5-25.5,686.5z M-25.5,696.5c-2.209,0-4-1.791-4-4c0-2.209,1.791-4,4-4c2.209,0,4,1.791,4,4
			C-21.5,694.709-23.291,696.5-25.5,696.5z M-25.5,681.5c-8.837,0-16,11-16,11s7.163,11,16,11s16-11,16-11S-16.663,681.5-25.5,681.5
			z M-25.5,701.5c-7.732,0-14-9-14-9s6.268-9,14-9s14,9,14,9S-17.768,701.5-25.5,701.5z"/>
	</g>
</g>
</svg>
