<?xml version="1.0" encoding="utf-8"?>
<!-- Generator: Adobe Illustrator 15.0.2, SVG Export Plug-In  -->
<!DOCTYPE svg PUBLIC "-//W3C//DTD SVG 1.1 Tiny//EN" "http://www.w3.org/Graphics/SVG/1.1/DTD/svg11-tiny.dtd" [
	<!ENTITY ns_flows "http://ns.adobe.com/Flows/1.0/">
]>
<svg version="1.1" baseProfile="tiny"
	 xmlns="http://www.w3.org/2000/svg" xmlns:xlink="http://www.w3.org/1999/xlink" xmlns:a="http://ns.adobe.com/AdobeSVGViewerExtensions/3.0/"
	 x="0px" y="0px" width="32px" height="32px" viewBox="0 0 32 32" overflow="visible" xml:space="preserve">
<defs>
</defs>
<rect fill="none" width="32" height="32"/>
<path d="M31.6845703,28.2197266L18.2548828,1.5888672C17.8769531,0.6552734,16.9697266,0,15.9072266,0
	c-0.8911133,0-1.6738281,0.4677734-2.1274414,1.1611328c-0.105957,0.1777344-0.1870117,0.3388672-0.25,0.5224609
	L0.4077148,28.0644531C0.1430664,28.4697266,0,28.9404297,0,29.4648438C0,30.8486328,1.1269531,32,2.5322266,32h26.9355469
	C30.8720703,32,32,30.8486328,32,29.4648438C32,29.0029297,31.8779297,28.5917969,31.6845703,28.2197266 M18.5888672,8
	l-0.7197266,14h-3.7114258L13.4516602,8H18.5888672z M16.015625,30h-0.0322266C14.2084961,30,13,28.7304688,13,27
	c0-1.7705078,1.2412109-3,3.015625-3C17.7978516,24,18.9667969,25.2294922,19,27C19,28.7304688,17.8310547,30,16.015625,30"/>
</svg>
