<svg viewBox="0 0 343 364" xmlns="http://www.w3.org/2000/svg" fill-rule="evenodd" clip-rule="evenodd" stroke-linejoin="round" stroke-miterlimit="2"><path d="M313.618 54.931c0-5.818-1.682-10.5-7.5-10.5-102-4.5-113.75-5.065-196.205-.741-2.702 0-21.504 100.493-16.5 166.491 5.773 76.145 35.883 115.5 39 115.5 72.276.288 84.02-.835 156.75-6 5.818 0 6.398-5.25 6.75-7.5 13.818-88.494 15.395-167.724 17.705-257.25zM315.413 146.431v-26.25l11.25-.75v-22.5l15.75 1.5-3 70.5-10.5.75.75-19.5" fill="#505e6b"/><path d="M267.963 124.286c.736-12.631.95-19.393.95-26.361 0-3.691-28.264-4.744-34.736-4.744-3.238 0-.655 47.983-.655 60.344 0 3.431 25.491-1.866 32.111-1.866" fill="#fff"/><path d="M232.638 79.999c11.567.072 23.192-.215 34.972 3.4.364.111.726.23 1.084.359.291.105.58.216.866.336.192.082.382.167.57.258 1.344.647 2.767 1.679 2.713 3.463-.469 10.504-1.502 21.081-2.746 31.465l-.018.151c-.071-5.842-.097-11.692-.219-17.542 0 0-.037-3.673-.125-7.073a371.372 371.372 0 0 0-.24-6.837c-3.243-2.361-8.963-2.148-13.147-2.595-7.866-.842-15.812-1.32-23.76-1.503l-.201-.004c-1.916 7.385-1.131 15.567-1.158 23.551-.051 15.469.618 30.866.411 46.518 0 0-.195.555-.009.69.077.056 3.573.665 6.925.501 9.626-.471 19.158-2.893 28.767-2.708 0 0-2.12.164-3.653.376-9.731 1.349-19.21 4.221-29.253 4.139-.325-.003-.65-.012-.974-.032a13.56 13.56 0 0 1-.668-.055 9.84 9.84 0 0 1-.516-.07 7.143 7.143 0 0 1-.663-.142c-2.048-.559-1.935-3.529-2.026-5.993-.775-21.091-2.997-41.821-1.511-62.999.223-3.172-.162-7.54 3.327-7.653.417-.002.834-.002 1.252-.001zm-1.029 74.618zm-.001-.001zm-.002-.001s0-.001 0 0zm0-.001s-.001 0 0 0zm-.001 0s0-.001 0 0zm-.001-.001zm0 0s-.014-.011 0 0zm.003 0s-.002-.003 0 0zm-.002-.001s-.005-.013 0 0zm-.001-.001s-.009-.021 0 0zm-.001-.001s-.013-.029 0 0zm0 0s-.019-.036 0 0zm-.001-.001s-.001-.002 0 0zm0 0s-.056-.052 0 0zm-.001-.001s-.021-.04 0 0zm-.007-.009c-.119.027-.026-.034 0 0zm37.892-66.84s-.001-.006 0 0zm0-.009s-.005-.035 0 0zm0-.009s-.008-.066 0 0zm-.002-.045s-.004-.119 0 0zm-36.908-4.386zm.009-.015s.003-.005 0 0zm.003-.007c-.018.031.008-.014 0 0zm.001-.002s.005-.008 0 0z"/><path d="M170.663 33.931c.742.11 34.503 32.018 34.503 73.412 0 41.393-21 62.25-43.5 83.25-22.356 20.865-37.747 41.417-41.25 71.25-4.503 38.338 26.997 71.338 26.997 71.338-90.682-.718-153.115-74.989-147-162 5.459-77.687 70.732-151.922 170.25-137.25z" fill="#dee2e5"/><path d="M118.541 101.431c27.112 0 39.372 26.461 39.372 26.461s-12.26 17.077-39.372 17.077c-27.113 0-43.878-13.122-43.878-13.122s16.765-30.416 43.878-30.416z" fill="#fff"/><path d="M118.038 91.372c17.523.092 33.4 14.544 39.843 31.829 0 0-2.21-4.141-3.871-6.633-6.501-9.753-15.462-18.25-27.479-20.85-19.879-4.301-39.44 13.538-49.593 31.612 0 0 2.495 1.986 4.83 3.476 18.953 12.1 43.978 15.473 62.669 4.873l.151-.087c-20.2 13.096-49.761 8.86-68.937-4.806a60.327 60.327 0 0 1-2.164-1.655c-1.816-1.873 1.075-5.249 3.025-8.44 5.672-9.284 12.831-17.886 22.115-23.596 5.419-3.332 12.178-5.656 19.077-5.722l.334-.001z"/><path d="M118.144 107.859c5.132.115 9.713 4.08 11.173 9.155.855 2.969.462 6.347-.955 9.407 0 0-.757 1.402-1.307 2.108-.299.383-.618.751-.952 1.104-1.438 1.518-1.744 1.532-2.466 2 0 0-1.524.853-2.402 1.148-5.058 1.699-11.338.343-14.782-4.084-2.139-2.749-2.953-6.666-1.592-10.07l.767-1.136.928-.447 1.551 1.725c.489 1.353.987 1.913 1.518 2.445a4.124 4.124 0 0 0 4.025 1.063c1.944-.549 3.413-2.463 4.041-3.124 1.988-2.164.618-6.323-2.42-7.744l-1.104-.808-.428-.911.528-.888 1.177-.634c.867-.238 1.792-.318 2.7-.309z"/><ellipse cx="247.539" cy="119.012" rx="6.374" ry="7.919"/><path d="M235.913 236.431s-153.75 10.5-203.25-37.5c22.5 74.25 86.25 81 86.25 81s44.156 4.739 112.5 2.25c8.25-3.75 4.5-45.75 4.5-45.75z" fill="#fff"/><path d="M136.5 257.497c30.629.251 61.514.819 92.327 1.34l.339.006-.339.006-12.242.206c-28.033.452-55.995 1.043-84.138 1.149l-1.053-.014c-2.492-.099-4.125-.243-6.592-.64-1.209-.194-2.404-.466-3.605-.7l3.605-.715c4.46-.567 7.903-.653 11.698-.638z"/><path d="M210.424 237.915c.43 3.797.872 7.648 1.209 11.595.171 2.002.246 3.068.36 5.058.062 1.096.123 3.058.082 4.51a108.153 108.153 0 0 1-.231 4.923c-.175 2.641-.377 4.783-.675 7.627l-.234-1.467c-.687-5.063-1.238-8.919-1.343-13.285a77.203 77.203 0 0 1-.014-2.254c.026-1.994.054-3.062.136-5.07.163-3.957.434-7.824.696-11.636 0 0-.006-.173.014-.001zM187.66 237.95c.393 4.725.79 9.45 1.114 14.18.229 3.341.423 5.142.469 9.372.037 3.36-.08 6.38-.575 11.626l-.183-1.109c-.707-5.248-1.126-8.651-1.155-14.011a307.65 307.65 0 0 1 .017-5.837c.053-4.741.179-9.481.301-14.221 0 0-.009-.255.012 0zM164.894 237.88c.343 1.856.357 1.854.669 4.142.327 2.399.654 5.691.489 11.402a580.168 580.168 0 0 1-.333 9.189c-.241 5.707-.529 11.411-.826 17.115l-.196-3.541c-.416-8.507-.903-17.615-1.014-24.562-.049-3.088-.05-5.36.528-9.603.312-2.288.326-2.286.669-4.142 0 0-.003-.088.014 0zM142.13 237.851c.586.821 1.325 1.621 1.346 3.107l-.071 1.333c-.315 4.611-.539 7.082-.926 11.451-.57 6.447-1.185 12.89-1.806 19.333l-.067-4.119c-.076-6.863-.167-13.728-.169-20.581-.001-2.034.015-5.316.08-7.539 0 0 .477-1.663 1.598-2.986 0 0 .001-.015.015.001z"/><path d="M122.308.008c11.983 4.504 23.163 11.098 33.555 18.563 28.914 20.77 49.643 52.145 51.644 87.006.998 17.387-2.345 35.097-10.956 49.982-12.264 21.201-31.474 37.615-46.934 53.742-9.349 9.753-17.769 20.696-22.483 33.241-7.399 19.694-5.861 42.379 2.673 61.282 10.762 23.839 31.062 42.683 53.203 55.586a83.46 83.46 0 0 0 3.763 2.084l.469 1.251-1.228.424c-13.279-6.189-25.376-15.162-35.88-25.062-15.49-14.599-27.58-33.031-31.726-54.162-4.395-22.402.987-46.453 14.511-65.244 16.123-22.405 39.79-38.364 56.24-64.285 12.512-19.715 15.81-44.471 9.444-69.845-9.087-36.214-39.696-65.073-72.897-81.006a86.947 86.947 0 0 0-4.07-1.844l-.578-1.212s1.02-.586 1.25-.501z"/><path d="M224.999 234.229c2.629.009 5.347-.455 7.11 1.219 4.097 3.891 2.447 10.828 2.004 14.748-.885 7.824-3.108 15.537-3.734 23.359-.276 3.45.42 1.891.242 1.875-1.053-.167-.613-2.668-.567-5.121.133-7.192.752-14.377.587-21.57-.077-2.767-.03-5.541-.747-8.218-.225-.838-.778-1.91-.778-1.91-32.63-.264-65.206-.915-97.62-1.224l-1.273-.013-2.06-.011-3.267-.019c-24.716-1.081-49.786-6.586-71.827-20.431a115.008 115.008 0 0 1-12.624-9.187l-.337-.287c4.437 16.86 13.999 32.809 26.376 44.697 9.374 9.005 20.202 17.073 32.593 20.633.903.26 2.405.477 1.555.386-5.48-.653-10.741-3.34-15.88-6.016-17.918-9.331-33.101-24.179-42.266-41.996-3.775-7.339-6.468-15.197-8.181-23.313 0 0-.272-1.26.341-2.072 2.373-3.147 8.511 4.471 12.415 7.591 14.396 11.505 31.229 19.733 49.052 24.249 9.392 2.379 19.125 3.617 28.817 3.921l3.233-.021 2.058-.013c25.333-.276 50.663-.778 75.728-1.129l3.076-.041.472-.006c5.164-.041 10.333-.094 15.502-.08z"/></svg>