<?xml version="1.0" encoding="utf-8"?>
<!-- Generator: Adobe Illustrator 19.2.0, SVG Export Plug-In . SVG Version: 6.00 Build 0)  -->
<!DOCTYPE svg PUBLIC "-//W3C//DTD SVG 1.1//EN" "http://www.w3.org/Graphics/SVG/1.1/DTD/svg11.dtd">
<svg version="1.1" id="Layer_1" xmlns="http://www.w3.org/2000/svg" xmlns:xlink="http://www.w3.org/1999/xlink" x="0px" y="0px"
	 width="768px" height="768px" viewBox="0 0 768 768" style="enable-background:new 0 0 768 768;" xml:space="preserve">
<path d="M320,32c39,0,76.3,7.6,111.9,22.9s66.2,35.7,91.9,61.4c25.7,25.7,46.1,56.3,61.4,91.9S608,281,608,320
	c0,33.5-5.5,65.6-16.4,96.2s-26.5,58.5-46.6,83.5l181.8,181.5c6.2,6.2,9.2,13.8,9.2,22.8c0,9.2-3,16.8-9.1,22.9S713.2,736,704,736
	c-9,0-16.6-3.1-22.8-9.2L499.8,545c-25,20.2-52.8,35.7-83.5,46.6S353.5,608,320,608c-39,0-76.3-7.6-111.9-22.9s-66.2-35.7-91.9-61.4
	c-25.7-25.7-46.1-56.3-61.4-91.9S32,359,32,320s7.6-76.3,22.9-111.9s35.7-66.2,61.4-91.9s56.3-46.1,91.9-61.4S281,32,320,32z
	 M320,96c-30.3,0-59.3,5.9-87,17.8s-51.5,27.8-71.5,47.8s-35.9,43.8-47.8,71.5S96,289.7,96,320s5.9,59.3,17.8,87
	s27.8,51.5,47.8,71.5s43.8,35.9,71.5,47.8s56.7,17.8,87,17.8s59.3-5.9,87-17.8s51.5-27.8,71.5-47.8s35.9-43.8,47.8-71.5
	s17.8-56.7,17.8-87s-5.9-59.3-17.8-87s-27.8-51.5-47.8-71.5s-43.8-35.9-71.5-47.8S350.3,96,320,96z"/>
</svg>
